<svg xmlns="http://www.w3.org/2000/svg" viewBox="0 0 992.1 992.1">
<g id="layer-1" fill="#c9e2f7" data-original="#c9e2f7"><polygon points="258.7 267 49.2 49.2 49.2 943 258.7 725.1 258.7 267"/></g>
<g id="layer-2" fill="#e09192" data-original="#e09192"><polygon points="258.7 267 733.4 267 943 49.2 49.2 49.2 258.7 267 258.7 267"/></g>
<g id="layer-3" fill="#fdeff0" data-original="#fdeff0"><polygon points="258.7 725.1 258.7 725.1 49.2 943 943 943 733.4 725.1 258.7 725.1"/></g>
<g id="layer-4" fill="#f2c3c3" data-original="#f2c3c3"><polygon points="733.4 267 733.4 267 733.4 725.1 733.4 725.1 943 943 943 49.2 733.4 267"/></g>
<g id="layer-5" fill="#f4d9d9" data-original="#f4d9d9"><rect y="0" width="992.1" height="49.2"/><rect y="943" width="992.1" height="49.2"/><rect x="471.5" y="471.5" width="992.1" height="49.2" transform="translate(1463.6017 -471.4757) rotate(90)"/><rect x="-471.5" y="471.5" width="992.1" height="49.2" transform="translate(520.7 471.5) rotate(90)"/></g>
</svg>