<svg xmlns="http://www.w3.org/2000/svg" viewBox="0 0 8928.9 10913.1">
<defs><linearGradient id="grad_felix" x1="0" y1="0" x2="0" y2="1">
<stop offset="0" stop-color="#c9e2f7"/><stop offset="1" stop-color="#8ba2c0"/>
</linearGradient></defs>
<rect width="8928.9" height="10913.1" fill="url(#grad_felix)"/>
<g transform="translate(1984.2,1984.2)">
<g id="layer-1" fill="#c9e2f7" data-original="#c9e2f7"><polygon points="258.7 267 49.2 49.2 49.2 943 258.7 725.1 258.7 267"/></g>
<g id="layer-2" fill="#e09192" data-original="#e09192"><polygon points="258.7 267 733.4 267 943 49.2 49.2 49.2 258.7 267 258.7 267"/></g>
<g id="layer-3" fill="#fdeff0" data-original="#fdeff0"><polygon points="258.7 725.1 258.7 725.1 49.2 943 943 943 733.4 725.1 258.7 725.1"/></g>
<g id="layer-4" fill="#f2c3c3" data-original="#f2c3c3"><polygon points="733.4 267 733.4 267 733.4 725.1 733.4 725.1 943 943 943 49.2 733.4 267"/></g>
<g id="layer-5" fill="#f4d9d9" data-original="#f4d9d9"><rect y="0" width="992.1" height="49.2"/><rect y="943" width="992.1" height="49.2"/><rect x="471.5" y="471.5" width="992.1" height="49.2" transform="translate(1463.6017 -471.4757) rotate(90)"/><rect x="-471.5" y="471.5" width="992.1" height="49.2" transform="translate(520.7 471.5) rotate(90)"/></g>
</g><g transform="translate(2976.3,1984.2)">
<g id="layer-1" fill="#c9e2f7" data-original="#c9e2f7"><polygon points="258.7 267 49.2 49.2 49.2 943 258.7 725.1 258.7 267"/></g>
<g id="layer-2" fill="#e09192" data-original="#e09192"><polygon points="258.7 267 733.4 267 943 49.2 49.2 49.2 258.7 267 258.7 267"/></g>
<g id="layer-3" fill="#fdeff0" data-original="#fdeff0"><polygon points="258.7 725.1 258.7 725.1 49.2 943 943 943 733.4 725.1 258.7 725.1"/></g>
<g id="layer-4" fill="#f2c3c3" data-original="#f2c3c3"><polygon points="733.4 267 733.4 267 733.4 725.1 733.4 725.1 943 943 943 49.2 733.4 267"/></g>
<g id="layer-5" fill="#f4d9d9" data-original="#f4d9d9"><rect y="0" width="992.1" height="49.2"/><rect y="943" width="992.1" height="49.2"/><rect x="471.5" y="471.5" width="992.1" height="49.2" transform="translate(1463.6017 -471.4757) rotate(90)"/><rect x="-471.5" y="471.5" width="992.1" height="49.2" transform="translate(520.7 471.5) rotate(90)"/></g>
</g><g transform="translate(3968.4,1984.2)">
<g id="layer-1" fill="#c9e2f7" data-original="#c9e2f7"><polygon points="258.7 267 49.2 49.2 49.2 943 258.7 725.1 258.7 267"/></g>
<g id="layer-2" fill="#e09192" data-original="#e09192"><polygon points="258.7 267 733.4 267 943 49.2 49.2 49.2 258.7 267 258.7 267"/></g>
<g id="layer-3" fill="#fdeff0" data-original="#fdeff0"><polygon points="258.7 725.1 258.7 725.1 49.2 943 943 943 733.4 725.1 258.7 725.1"/></g>
<g id="layer-4" fill="#f2c3c3" data-original="#f2c3c3"><polygon points="733.4 267 733.4 267 733.4 725.1 733.4 725.1 943 943 943 49.2 733.4 267"/></g>
<g id="layer-5" fill="#f4d9d9" data-original="#f4d9d9"><rect y="0" width="992.1" height="49.2"/><rect y="943" width="992.1" height="49.2"/><rect x="471.5" y="471.5" width="992.1" height="49.2" transform="translate(1463.6017 -471.4757) rotate(90)"/><rect x="-471.5" y="471.5" width="992.1" height="49.2" transform="translate(520.7 471.5) rotate(90)"/></g>
</g><g transform="translate(4960.5,1984.2)">
<g id="layer-1" fill="#c9e2f7" data-original="#c9e2f7"><polygon points="258.7 267 49.2 49.2 49.2 943 258.7 725.1 258.7 267"/></g>
<g id="layer-2" fill="#e09192" data-original="#e09192"><polygon points="258.7 267 733.4 267 943 49.2 49.2 49.2 258.7 267 258.7 267"/></g>
<g id="layer-3" fill="#fdeff0" data-original="#fdeff0"><polygon points="258.7 725.1 258.7 725.1 49.2 943 943 943 733.4 725.1 258.7 725.1"/></g>
<g id="layer-4" fill="#f2c3c3" data-original="#f2c3c3"><polygon points="733.4 267 733.4 267 733.4 725.1 733.4 725.1 943 943 943 49.2 733.4 267"/></g>
<g id="layer-5" fill="#f4d9d9" data-original="#f4d9d9"><rect y="0" width="992.1" height="49.2"/><rect y="943" width="992.1" height="49.2"/><rect x="471.5" y="471.5" width="992.1" height="49.2" transform="translate(1463.6017 -471.4757) rotate(90)"/><rect x="-471.5" y="471.5" width="992.1" height="49.2" transform="translate(520.7 471.5) rotate(90)"/></g>
</g><g transform="translate(5952.6,1984.2)">
<g id="layer-1" fill="#c9e2f7" data-original="#c9e2f7"><polygon points="258.7 267 49.2 49.2 49.2 943 258.7 725.1 258.7 267"/></g>
<g id="layer-2" fill="#e09192" data-original="#e09192"><polygon points="258.7 267 733.4 267 943 49.2 49.2 49.2 258.7 267 258.7 267"/></g>
<g id="layer-3" fill="#fdeff0" data-original="#fdeff0"><polygon points="258.7 725.1 258.7 725.1 49.2 943 943 943 733.4 725.1 258.7 725.1"/></g>
<g id="layer-4" fill="#f2c3c3" data-original="#f2c3c3"><polygon points="733.4 267 733.4 267 733.4 725.1 733.4 725.1 943 943 943 49.2 733.4 267"/></g>
<g id="layer-5" fill="#f4d9d9" data-original="#f4d9d9"><rect y="0" width="992.1" height="49.2"/><rect y="943" width="992.1" height="49.2"/><rect x="471.5" y="471.5" width="992.1" height="49.2" transform="translate(1463.6017 -471.4757) rotate(90)"/><rect x="-471.5" y="471.5" width="992.1" height="49.2" transform="translate(520.7 471.5) rotate(90)"/></g>
</g><g transform="translate(1984.2,2976.3)">
<g id="layer-1" fill="#c9e2f7" data-original="#c9e2f7"><polygon points="258.7 267 49.2 49.2 49.2 943 258.7 725.1 258.7 267"/></g>
<g id="layer-2" fill="#e09192" data-original="#e09192"><polygon points="258.7 267 733.4 267 943 49.2 49.2 49.2 258.7 267 258.7 267"/></g>
<g id="layer-3" fill="#fdeff0" data-original="#fdeff0"><polygon points="258.7 725.1 258.7 725.1 49.2 943 943 943 733.4 725.1 258.7 725.1"/></g>
<g id="layer-4" fill="#f2c3c3" data-original="#f2c3c3"><polygon points="733.4 267 733.4 267 733.4 725.1 733.4 725.1 943 943 943 49.2 733.4 267"/></g>
<g id="layer-5" fill="#f4d9d9" data-original="#f4d9d9"><rect y="0" width="992.1" height="49.2"/><rect y="943" width="992.1" height="49.2"/><rect x="471.5" y="471.5" width="992.1" height="49.2" transform="translate(1463.6017 -471.4757) rotate(90)"/><rect x="-471.5" y="471.5" width="992.1" height="49.2" transform="translate(520.7 471.5) rotate(90)"/></g>
</g><g transform="translate(2976.3,2976.3)">
<g id="layer-1" fill="#c9e2f7" data-original="#c9e2f7"><polygon points="258.7 267 49.2 49.2 49.2 943 258.7 725.1 258.7 267"/></g>
<g id="layer-2" fill="#e09192" data-original="#e09192"><polygon points="258.7 267 733.4 267 943 49.2 49.2 49.2 258.7 267 258.7 267"/></g>
<g id="layer-3" fill="#fdeff0" data-original="#fdeff0"><polygon points="258.7 725.1 258.7 725.1 49.2 943 943 943 733.4 725.1 258.7 725.1"/></g>
<g id="layer-4" fill="#f2c3c3" data-original="#f2c3c3"><polygon points="733.4 267 733.4 267 733.4 725.1 733.4 725.1 943 943 943 49.2 733.4 267"/></g>
<g id="layer-5" fill="#f4d9d9" data-original="#f4d9d9"><rect y="0" width="992.1" height="49.2"/><rect y="943" width="992.1" height="49.2"/><rect x="471.5" y="471.5" width="992.1" height="49.2" transform="translate(1463.6017 -471.4757) rotate(90)"/><rect x="-471.5" y="471.5" width="992.1" height="49.2" transform="translate(520.7 471.5) rotate(90)"/></g>
</g><g transform="translate(3968.4,2976.3)">
<g id="layer-1" fill="#c9e2f7" data-original="#c9e2f7"><polygon points="258.7 267 49.2 49.2 49.2 943 258.7 725.1 258.7 267"/></g>
<g id="layer-2" fill="#e09192" data-original="#e09192"><polygon points="258.7 267 733.4 267 943 49.2 49.2 49.2 258.7 267 258.7 267"/></g>
<g id="layer-3" fill="#fdeff0" data-original="#fdeff0"><polygon points="258.7 725.1 258.7 725.1 49.2 943 943 943 733.4 725.1 258.7 725.1"/></g>
<g id="layer-4" fill="#f2c3c3" data-original="#f2c3c3"><polygon points="733.4 267 733.4 267 733.4 725.1 733.4 725.1 943 943 943 49.2 733.4 267"/></g>
<g id="layer-5" fill="#f4d9d9" data-original="#f4d9d9"><rect y="0" width="992.1" height="49.2"/><rect y="943" width="992.1" height="49.2"/><rect x="471.5" y="471.5" width="992.1" height="49.2" transform="translate(1463.6017 -471.4757) rotate(90)"/><rect x="-471.5" y="471.5" width="992.1" height="49.2" transform="translate(520.7 471.5) rotate(90)"/></g>
</g><g transform="translate(4960.5,2976.3)">
<g id="layer-1" fill="#c9e2f7" data-original="#c9e2f7"><polygon points="258.7 267 49.2 49.2 49.2 943 258.7 725.1 258.7 267"/></g>
<g id="layer-2" fill="#e09192" data-original="#e09192"><polygon points="258.7 267 733.4 267 943 49.2 49.2 49.2 258.7 267 258.7 267"/></g>
<g id="layer-3" fill="#fdeff0" data-original="#fdeff0"><polygon points="258.7 725.1 258.7 725.1 49.2 943 943 943 733.4 725.1 258.7 725.1"/></g>
<g id="layer-4" fill="#f2c3c3" data-original="#f2c3c3"><polygon points="733.4 267 733.4 267 733.4 725.1 733.4 725.1 943 943 943 49.2 733.4 267"/></g>
<g id="layer-5" fill="#f4d9d9" data-original="#f4d9d9"><rect y="0" width="992.1" height="49.2"/><rect y="943" width="992.1" height="49.2"/><rect x="471.5" y="471.5" width="992.1" height="49.2" transform="translate(1463.6017 -471.4757) rotate(90)"/><rect x="-471.5" y="471.5" width="992.1" height="49.2" transform="translate(520.7 471.5) rotate(90)"/></g>
</g><g transform="translate(5952.6,2976.3)">
<g id="layer-1" fill="#c9e2f7" data-original="#c9e2f7"><polygon points="258.7 267 49.2 49.2 49.2 943 258.7 725.1 258.7 267"/></g>
<g id="layer-2" fill="#e09192" data-original="#e09192"><polygon points="258.7 267 733.4 267 943 49.2 49.2 49.2 258.7 267 258.7 267"/></g>
<g id="layer-3" fill="#fdeff0" data-original="#fdeff0"><polygon points="258.7 725.1 258.7 725.1 49.2 943 943 943 733.4 725.1 258.7 725.1"/></g>
<g id="layer-4" fill="#f2c3c3" data-original="#f2c3c3"><polygon points="733.4 267 733.4 267 733.4 725.1 733.4 725.1 943 943 943 49.2 733.4 267"/></g>
<g id="layer-5" fill="#f4d9d9" data-original="#f4d9d9"><rect y="0" width="992.1" height="49.2"/><rect y="943" width="992.1" height="49.2"/><rect x="471.5" y="471.5" width="992.1" height="49.2" transform="translate(1463.6017 -471.4757) rotate(90)"/><rect x="-471.5" y="471.5" width="992.1" height="49.2" transform="translate(520.7 471.5) rotate(90)"/></g>
</g><g transform="translate(1984.2,3968.4)">
<g id="layer-1" fill="#c9e2f7" data-original="#c9e2f7"><polygon points="258.7 267 49.2 49.2 49.2 943 258.7 725.1 258.7 267"/></g>
<g id="layer-2" fill="#e09192" data-original="#e09192"><polygon points="258.7 267 733.4 267 943 49.2 49.2 49.2 258.7 267 258.7 267"/></g>
<g id="layer-3" fill="#fdeff0" data-original="#fdeff0"><polygon points="258.7 725.1 258.7 725.1 49.2 943 943 943 733.4 725.1 258.7 725.1"/></g>
<g id="layer-4" fill="#f2c3c3" data-original="#f2c3c3"><polygon points="733.4 267 733.4 267 733.4 725.1 733.4 725.1 943 943 943 49.2 733.4 267"/></g>
<g id="layer-5" fill="#f4d9d9" data-original="#f4d9d9"><rect y="0" width="992.1" height="49.2"/><rect y="943" width="992.1" height="49.2"/><rect x="471.5" y="471.5" width="992.1" height="49.2" transform="translate(1463.6017 -471.4757) rotate(90)"/><rect x="-471.5" y="471.5" width="992.1" height="49.2" transform="translate(520.7 471.5) rotate(90)"/></g>
</g><g transform="translate(2976.3,3968.4)">
<g id="layer-1" fill="#c9e2f7" data-original="#c9e2f7"><polygon points="258.7 267 49.2 49.2 49.2 943 258.7 725.1 258.7 267"/></g>
<g id="layer-2" fill="#e09192" data-original="#e09192"><polygon points="258.7 267 733.4 267 943 49.2 49.2 49.2 258.7 267 258.7 267"/></g>
<g id="layer-3" fill="#fdeff0" data-original="#fdeff0"><polygon points="258.7 725.1 258.7 725.1 49.2 943 943 943 733.4 725.1 258.7 725.1"/></g>
<g id="layer-4" fill="#f2c3c3" data-original="#f2c3c3"><polygon points="733.4 267 733.4 267 733.4 725.1 733.4 725.1 943 943 943 49.2 733.4 267"/></g>
<g id="layer-5" fill="#f4d9d9" data-original="#f4d9d9"><rect y="0" width="992.1" height="49.2"/><rect y="943" width="992.1" height="49.2"/><rect x="471.5" y="471.5" width="992.1" height="49.2" transform="translate(1463.6017 -471.4757) rotate(90)"/><rect x="-471.5" y="471.5" width="992.1" height="49.2" transform="translate(520.7 471.5) rotate(90)"/></g>
</g><g transform="translate(3968.4,3968.4)">
<g id="layer-1" fill="#c9e2f7" data-original="#c9e2f7"><polygon points="258.7 267 49.2 49.2 49.2 943 258.7 725.1 258.7 267"/></g>
<g id="layer-2" fill="#e09192" data-original="#e09192"><polygon points="258.7 267 733.4 267 943 49.2 49.2 49.2 258.7 267 258.7 267"/></g>
<g id="layer-3" fill="#fdeff0" data-original="#fdeff0"><polygon points="258.7 725.1 258.7 725.1 49.2 943 943 943 733.4 725.1 258.7 725.1"/></g>
<g id="layer-4" fill="#f2c3c3" data-original="#f2c3c3"><polygon points="733.4 267 733.4 267 733.4 725.1 733.4 725.1 943 943 943 49.2 733.4 267"/></g>
<g id="layer-5" fill="#f4d9d9" data-original="#f4d9d9"><rect y="0" width="992.1" height="49.2"/><rect y="943" width="992.1" height="49.2"/><rect x="471.5" y="471.5" width="992.1" height="49.2" transform="translate(1463.6017 -471.4757) rotate(90)"/><rect x="-471.5" y="471.5" width="992.1" height="49.2" transform="translate(520.7 471.5) rotate(90)"/></g>
</g><g transform="translate(4960.5,3968.4)">
<g id="layer-1" fill="#c9e2f7" data-original="#c9e2f7"><polygon points="258.7 267 49.2 49.2 49.2 943 258.7 725.1 258.7 267"/></g>
<g id="layer-2" fill="#e09192" data-original="#e09192"><polygon points="258.7 267 733.4 267 943 49.2 49.2 49.2 258.7 267 258.7 267"/></g>
<g id="layer-3" fill="#fdeff0" data-original="#fdeff0"><polygon points="258.7 725.1 258.7 725.1 49.2 943 943 943 733.4 725.1 258.7 725.1"/></g>
<g id="layer-4" fill="#f2c3c3" data-original="#f2c3c3"><polygon points="733.4 267 733.4 267 733.4 725.1 733.4 725.1 943 943 943 49.2 733.4 267"/></g>
<g id="layer-5" fill="#f4d9d9" data-original="#f4d9d9"><rect y="0" width="992.1" height="49.2"/><rect y="943" width="992.1" height="49.2"/><rect x="471.5" y="471.5" width="992.1" height="49.2" transform="translate(1463.6017 -471.4757) rotate(90)"/><rect x="-471.5" y="471.5" width="992.1" height="49.2" transform="translate(520.7 471.5) rotate(90)"/></g>
</g><g transform="translate(5952.6,3968.4)">
<g id="layer-1" fill="#c9e2f7" data-original="#c9e2f7"><polygon points="258.7 267 49.2 49.2 49.2 943 258.7 725.1 258.7 267"/></g>
<g id="layer-2" fill="#e09192" data-original="#e09192"><polygon points="258.7 267 733.4 267 943 49.2 49.2 49.2 258.7 267 258.7 267"/></g>
<g id="layer-3" fill="#fdeff0" data-original="#fdeff0"><polygon points="258.7 725.1 258.7 725.1 49.2 943 943 943 733.4 725.1 258.7 725.1"/></g>
<g id="layer-4" fill="#f2c3c3" data-original="#f2c3c3"><polygon points="733.4 267 733.4 267 733.4 725.1 733.4 725.1 943 943 943 49.2 733.4 267"/></g>
<g id="layer-5" fill="#f4d9d9" data-original="#f4d9d9"><rect y="0" width="992.1" height="49.2"/><rect y="943" width="992.1" height="49.2"/><rect x="471.5" y="471.5" width="992.1" height="49.2" transform="translate(1463.6017 -471.4757) rotate(90)"/><rect x="-471.5" y="471.5" width="992.1" height="49.2" transform="translate(520.7 471.5) rotate(90)"/></g>
</g><g transform="translate(1984.2,4960.5)">
<g id="layer-1" fill="#c9e2f7" data-original="#c9e2f7"><polygon points="258.7 267 49.2 49.2 49.2 943 258.7 725.1 258.7 267"/></g>
<g id="layer-2" fill="#e09192" data-original="#e09192"><polygon points="258.7 267 733.4 267 943 49.2 49.2 49.2 258.7 267 258.7 267"/></g>
<g id="layer-3" fill="#fdeff0" data-original="#fdeff0"><polygon points="258.7 725.1 258.7 725.1 49.2 943 943 943 733.4 725.1 258.7 725.1"/></g>
<g id="layer-4" fill="#f2c3c3" data-original="#f2c3c3"><polygon points="733.4 267 733.4 267 733.4 725.1 733.4 725.1 943 943 943 49.2 733.4 267"/></g>
<g id="layer-5" fill="#f4d9d9" data-original="#f4d9d9"><rect y="0" width="992.1" height="49.2"/><rect y="943" width="992.1" height="49.2"/><rect x="471.5" y="471.5" width="992.1" height="49.2" transform="translate(1463.6017 -471.4757) rotate(90)"/><rect x="-471.5" y="471.5" width="992.1" height="49.2" transform="translate(520.7 471.5) rotate(90)"/></g>
</g><g transform="translate(2976.3,4960.5)">
<g id="layer-1" fill="#c9e2f7" data-original="#c9e2f7"><polygon points="258.7 267 49.2 49.2 49.2 943 258.7 725.1 258.7 267"/></g>
<g id="layer-2" fill="#e09192" data-original="#e09192"><polygon points="258.7 267 733.4 267 943 49.2 49.2 49.2 258.7 267 258.7 267"/></g>
<g id="layer-3" fill="#fdeff0" data-original="#fdeff0"><polygon points="258.7 725.1 258.7 725.1 49.2 943 943 943 733.4 725.1 258.7 725.1"/></g>
<g id="layer-4" fill="#f2c3c3" data-original="#f2c3c3"><polygon points="733.4 267 733.4 267 733.4 725.1 733.4 725.1 943 943 943 49.2 733.4 267"/></g>
<g id="layer-5" fill="#f4d9d9" data-original="#f4d9d9"><rect y="0" width="992.1" height="49.2"/><rect y="943" width="992.1" height="49.2"/><rect x="471.5" y="471.5" width="992.1" height="49.2" transform="translate(1463.6017 -471.4757) rotate(90)"/><rect x="-471.5" y="471.5" width="992.1" height="49.2" transform="translate(520.7 471.5) rotate(90)"/></g>
</g><g transform="translate(3968.4,4960.5)">
<g id="layer-1" fill="#c9e2f7" data-original="#c9e2f7"><polygon points="258.7 267 49.2 49.2 49.2 943 258.7 725.1 258.7 267"/></g>
<g id="layer-2" fill="#e09192" data-original="#e09192"><polygon points="258.7 267 733.4 267 943 49.2 49.2 49.2 258.7 267 258.7 267"/></g>
<g id="layer-3" fill="#fdeff0" data-original="#fdeff0"><polygon points="258.7 725.1 258.7 725.1 49.2 943 943 943 733.4 725.1 258.7 725.1"/></g>
<g id="layer-4" fill="#f2c3c3" data-original="#f2c3c3"><polygon points="733.4 267 733.4 267 733.4 725.1 733.4 725.1 943 943 943 49.2 733.4 267"/></g>
<g id="layer-5" fill="#f4d9d9" data-original="#f4d9d9"><rect y="0" width="992.1" height="49.2"/><rect y="943" width="992.1" height="49.2"/><rect x="471.5" y="471.5" width="992.1" height="49.2" transform="translate(1463.6017 -471.4757) rotate(90)"/><rect x="-471.5" y="471.5" width="992.1" height="49.2" transform="translate(520.7 471.5) rotate(90)"/></g>
</g><g transform="translate(4960.5,4960.5)">
<g id="layer-1" fill="#c9e2f7" data-original="#c9e2f7"><polygon points="258.7 267 49.2 49.2 49.2 943 258.7 725.1 258.7 267"/></g>
<g id="layer-2" fill="#e09192" data-original="#e09192"><polygon points="258.7 267 733.4 267 943 49.2 49.2 49.2 258.7 267 258.7 267"/></g>
<g id="layer-3" fill="#fdeff0" data-original="#fdeff0"><polygon points="258.7 725.1 258.7 725.1 49.2 943 943 943 733.4 725.1 258.7 725.1"/></g>
<g id="layer-4" fill="#f2c3c3" data-original="#f2c3c3"><polygon points="733.4 267 733.4 267 733.4 725.1 733.4 725.1 943 943 943 49.2 733.4 267"/></g>
<g id="layer-5" fill="#f4d9d9" data-original="#f4d9d9"><rect y="0" width="992.1" height="49.2"/><rect y="943" width="992.1" height="49.2"/><rect x="471.5" y="471.5" width="992.1" height="49.2" transform="translate(1463.6017 -471.4757) rotate(90)"/><rect x="-471.5" y="471.5" width="992.1" height="49.2" transform="translate(520.7 471.5) rotate(90)"/></g>
</g><g transform="translate(5952.6,4960.5)">
<g id="layer-1" fill="#c9e2f7" data-original="#c9e2f7"><polygon points="258.7 267 49.2 49.2 49.2 943 258.7 725.1 258.7 267"/></g>
<g id="layer-2" fill="#e09192" data-original="#e09192"><polygon points="258.7 267 733.4 267 943 49.2 49.2 49.2 258.7 267 258.7 267"/></g>
<g id="layer-3" fill="#fdeff0" data-original="#fdeff0"><polygon points="258.7 725.1 258.7 725.1 49.2 943 943 943 733.4 725.1 258.7 725.1"/></g>
<g id="layer-4" fill="#f2c3c3" data-original="#f2c3c3"><polygon points="733.4 267 733.4 267 733.4 725.1 733.4 725.1 943 943 943 49.2 733.4 267"/></g>
<g id="layer-5" fill="#f4d9d9" data-original="#f4d9d9"><rect y="0" width="992.1" height="49.2"/><rect y="943" width="992.1" height="49.2"/><rect x="471.5" y="471.5" width="992.1" height="49.2" transform="translate(1463.6017 -471.4757) rotate(90)"/><rect x="-471.5" y="471.5" width="992.1" height="49.2" transform="translate(520.7 471.5) rotate(90)"/></g>
</g><g transform="translate(1984.2,5952.6)">
<g id="layer-1" fill="#c9e2f7" data-original="#c9e2f7"><polygon points="258.7 267 49.2 49.2 49.2 943 258.7 725.1 258.7 267"/></g>
<g id="layer-2" fill="#e09192" data-original="#e09192"><polygon points="258.7 267 733.4 267 943 49.2 49.2 49.2 258.7 267 258.7 267"/></g>
<g id="layer-3" fill="#fdeff0" data-original="#fdeff0"><polygon points="258.7 725.1 258.7 725.1 49.2 943 943 943 733.4 725.1 258.7 725.1"/></g>
<g id="layer-4" fill="#f2c3c3" data-original="#f2c3c3"><polygon points="733.4 267 733.4 267 733.4 725.1 733.4 725.1 943 943 943 49.2 733.4 267"/></g>
<g id="layer-5" fill="#f4d9d9" data-original="#f4d9d9"><rect y="0" width="992.1" height="49.2"/><rect y="943" width="992.1" height="49.2"/><rect x="471.5" y="471.5" width="992.1" height="49.2" transform="translate(1463.6017 -471.4757) rotate(90)"/><rect x="-471.5" y="471.5" width="992.1" height="49.2" transform="translate(520.7 471.5) rotate(90)"/></g>
</g><g transform="translate(2976.3,5952.6)">
<g id="layer-1" fill="#c9e2f7" data-original="#c9e2f7"><polygon points="258.7 267 49.2 49.2 49.2 943 258.7 725.1 258.7 267"/></g>
<g id="layer-2" fill="#e09192" data-original="#e09192"><polygon points="258.7 267 733.4 267 943 49.2 49.2 49.2 258.7 267 258.7 267"/></g>
<g id="layer-3" fill="#fdeff0" data-original="#fdeff0"><polygon points="258.7 725.1 258.7 725.1 49.2 943 943 943 733.4 725.1 258.7 725.1"/></g>
<g id="layer-4" fill="#f2c3c3" data-original="#f2c3c3"><polygon points="733.4 267 733.4 267 733.4 725.1 733.4 725.1 943 943 943 49.2 733.4 267"/></g>
<g id="layer-5" fill="#f4d9d9" data-original="#f4d9d9"><rect y="0" width="992.1" height="49.2"/><rect y="943" width="992.1" height="49.2"/><rect x="471.5" y="471.5" width="992.1" height="49.2" transform="translate(1463.6017 -471.4757) rotate(90)"/><rect x="-471.5" y="471.5" width="992.1" height="49.2" transform="translate(520.7 471.5) rotate(90)"/></g>
</g><g transform="translate(3968.4,5952.6)">
<g id="layer-1" fill="#c9e2f7" data-original="#c9e2f7"><polygon points="258.7 267 49.2 49.2 49.2 943 258.7 725.1 258.7 267"/></g>
<g id="layer-2" fill="#e09192" data-original="#e09192"><polygon points="258.7 267 733.4 267 943 49.2 49.2 49.2 258.7 267 258.7 267"/></g>
<g id="layer-3" fill="#fdeff0" data-original="#fdeff0"><polygon points="258.7 725.1 258.7 725.1 49.2 943 943 943 733.4 725.1 258.7 725.1"/></g>
<g id="layer-4" fill="#f2c3c3" data-original="#f2c3c3"><polygon points="733.4 267 733.4 267 733.4 725.1 733.4 725.1 943 943 943 49.2 733.4 267"/></g>
<g id="layer-5" fill="#f4d9d9" data-original="#f4d9d9"><rect y="0" width="992.1" height="49.2"/><rect y="943" width="992.1" height="49.2"/><rect x="471.5" y="471.5" width="992.1" height="49.2" transform="translate(1463.6017 -471.4757) rotate(90)"/><rect x="-471.5" y="471.5" width="992.1" height="49.2" transform="translate(520.7 471.5) rotate(90)"/></g>
</g><g transform="translate(4960.5,5952.6)">
<g id="layer-1" fill="#c9e2f7" data-original="#c9e2f7"><polygon points="258.7 267 49.2 49.2 49.2 943 258.7 725.1 258.7 267"/></g>
<g id="layer-2" fill="#e09192" data-original="#e09192"><polygon points="258.7 267 733.4 267 943 49.2 49.2 49.2 258.7 267 258.7 267"/></g>
<g id="layer-3" fill="#fdeff0" data-original="#fdeff0"><polygon points="258.7 725.1 258.7 725.1 49.2 943 943 943 733.4 725.1 258.7 725.1"/></g>
<g id="layer-4" fill="#f2c3c3" data-original="#f2c3c3"><polygon points="733.4 267 733.4 267 733.4 725.1 733.4 725.1 943 943 943 49.2 733.4 267"/></g>
<g id="layer-5" fill="#f4d9d9" data-original="#f4d9d9"><rect y="0" width="992.1" height="49.2"/><rect y="943" width="992.1" height="49.2"/><rect x="471.5" y="471.5" width="992.1" height="49.2" transform="translate(1463.6017 -471.4757) rotate(90)"/><rect x="-471.5" y="471.5" width="992.1" height="49.2" transform="translate(520.7 471.5) rotate(90)"/></g>
</g><g transform="translate(5952.6,5952.6)">
<g id="layer-1" fill="#c9e2f7" data-original="#c9e2f7"><polygon points="258.7 267 49.2 49.2 49.2 943 258.7 725.1 258.7 267"/></g>
<g id="layer-2" fill="#e09192" data-original="#e09192"><polygon points="258.7 267 733.4 267 943 49.2 49.2 49.2 258.7 267 258.7 267"/></g>
<g id="layer-3" fill="#fdeff0" data-original="#fdeff0"><polygon points="258.7 725.1 258.7 725.1 49.2 943 943 943 733.4 725.1 258.7 725.1"/></g>
<g id="layer-4" fill="#f2c3c3" data-original="#f2c3c3"><polygon points="733.4 267 733.4 267 733.4 725.1 733.4 725.1 943 943 943 49.2 733.4 267"/></g>
<g id="layer-5" fill="#f4d9d9" data-original="#f4d9d9"><rect y="0" width="992.1" height="49.2"/><rect y="943" width="992.1" height="49.2"/><rect x="471.5" y="471.5" width="992.1" height="49.2" transform="translate(1463.6017 -471.4757) rotate(90)"/><rect x="-471.5" y="471.5" width="992.1" height="49.2" transform="translate(520.7 471.5) rotate(90)"/></g>
</g><g transform="translate(1984.2,6944.7)">
<g id="layer-1" fill="#c9e2f7" data-original="#c9e2f7"><polygon points="258.7 267 49.2 49.2 49.2 943 258.7 725.1 258.7 267"/></g>
<g id="layer-2" fill="#e09192" data-original="#e09192"><polygon points="258.7 267 733.4 267 943 49.2 49.2 49.2 258.7 267 258.7 267"/></g>
<g id="layer-3" fill="#fdeff0" data-original="#fdeff0"><polygon points="258.7 725.1 258.7 725.1 49.2 943 943 943 733.4 725.1 258.7 725.1"/></g>
<g id="layer-4" fill="#f2c3c3" data-original="#f2c3c3"><polygon points="733.4 267 733.4 267 733.4 725.1 733.4 725.1 943 943 943 49.2 733.4 267"/></g>
<g id="layer-5" fill="#f4d9d9" data-original="#f4d9d9"><rect y="0" width="992.1" height="49.2"/><rect y="943" width="992.1" height="49.2"/><rect x="471.5" y="471.5" width="992.1" height="49.2" transform="translate(1463.6017 -471.4757) rotate(90)"/><rect x="-471.5" y="471.5" width="992.1" height="49.2" transform="translate(520.7 471.5) rotate(90)"/></g>
</g><g transform="translate(2976.3,6944.7)">
<g id="layer-1" fill="#c9e2f7" data-original="#c9e2f7"><polygon points="258.7 267 49.2 49.2 49.2 943 258.7 725.1 258.7 267"/></g>
<g id="layer-2" fill="#e09192" data-original="#e09192"><polygon points="258.7 267 733.4 267 943 49.2 49.2 49.2 258.7 267 258.7 267"/></g>
<g id="layer-3" fill="#fdeff0" data-original="#fdeff0"><polygon points="258.7 725.1 258.7 725.1 49.2 943 943 943 733.4 725.1 258.7 725.1"/></g>
<g id="layer-4" fill="#f2c3c3" data-original="#f2c3c3"><polygon points="733.4 267 733.4 267 733.4 725.1 733.4 725.1 943 943 943 49.2 733.4 267"/></g>
<g id="layer-5" fill="#f4d9d9" data-original="#f4d9d9"><rect y="0" width="992.1" height="49.2"/><rect y="943" width="992.1" height="49.2"/><rect x="471.5" y="471.5" width="992.1" height="49.2" transform="translate(1463.6017 -471.4757) rotate(90)"/><rect x="-471.5" y="471.5" width="992.1" height="49.2" transform="translate(520.7 471.5) rotate(90)"/></g>
</g><g transform="translate(3968.4,6944.7)">
<g id="layer-1" fill="#c9e2f7" data-original="#c9e2f7"><polygon points="258.7 267 49.2 49.2 49.2 943 258.7 725.1 258.7 267"/></g>
<g id="layer-2" fill="#e09192" data-original="#e09192"><polygon points="258.7 267 733.4 267 943 49.2 49.2 49.2 258.7 267 258.7 267"/></g>
<g id="layer-3" fill="#fdeff0" data-original="#fdeff0"><polygon points="258.7 725.1 258.7 725.1 49.2 943 943 943 733.4 725.1 258.7 725.1"/></g>
<g id="layer-4" fill="#f2c3c3" data-original="#f2c3c3"><polygon points="733.4 267 733.4 267 733.4 725.1 733.4 725.1 943 943 943 49.2 733.4 267"/></g>
<g id="layer-5" fill="#f4d9d9" data-original="#f4d9d9"><rect y="0" width="992.1" height="49.2"/><rect y="943" width="992.1" height="49.2"/><rect x="471.5" y="471.5" width="992.1" height="49.2" transform="translate(1463.6017 -471.4757) rotate(90)"/><rect x="-471.5" y="471.5" width="992.1" height="49.2" transform="translate(520.7 471.5) rotate(90)"/></g>
</g><g transform="translate(4960.5,6944.7)">
<g id="layer-1" fill="#c9e2f7" data-original="#c9e2f7"><polygon points="258.7 267 49.2 49.2 49.2 943 258.7 725.1 258.7 267"/></g>
<g id="layer-2" fill="#e09192" data-original="#e09192"><polygon points="258.7 267 733.4 267 943 49.2 49.2 49.2 258.7 267 258.7 267"/></g>
<g id="layer-3" fill="#fdeff0" data-original="#fdeff0"><polygon points="258.7 725.1 258.7 725.1 49.2 943 943 943 733.4 725.1 258.7 725.1"/></g>
<g id="layer-4" fill="#f2c3c3" data-original="#f2c3c3"><polygon points="733.4 267 733.4 267 733.4 725.1 733.4 725.1 943 943 943 49.2 733.4 267"/></g>
<g id="layer-5" fill="#f4d9d9" data-original="#f4d9d9"><rect y="0" width="992.1" height="49.2"/><rect y="943" width="992.1" height="49.2"/><rect x="471.5" y="471.5" width="992.1" height="49.2" transform="translate(1463.6017 -471.4757) rotate(90)"/><rect x="-471.5" y="471.5" width="992.1" height="49.2" transform="translate(520.7 471.5) rotate(90)"/></g>
</g><g transform="translate(5952.6,6944.7)">
<g id="layer-1" fill="#c9e2f7" data-original="#c9e2f7"><polygon points="258.7 267 49.2 49.2 49.2 943 258.7 725.1 258.7 267"/></g>
<g id="layer-2" fill="#e09192" data-original="#e09192"><polygon points="258.7 267 733.4 267 943 49.2 49.2 49.2 258.7 267 258.7 267"/></g>
<g id="layer-3" fill="#fdeff0" data-original="#fdeff0"><polygon points="258.7 725.1 258.7 725.1 49.2 943 943 943 733.4 725.1 258.7 725.1"/></g>
<g id="layer-4" fill="#f2c3c3" data-original="#f2c3c3"><polygon points="733.4 267 733.4 267 733.4 725.1 733.4 725.1 943 943 943 49.2 733.4 267"/></g>
<g id="layer-5" fill="#f4d9d9" data-original="#f4d9d9"><rect y="0" width="992.1" height="49.2"/><rect y="943" width="992.1" height="49.2"/><rect x="471.5" y="471.5" width="992.1" height="49.2" transform="translate(1463.6017 -471.4757) rotate(90)"/><rect x="-471.5" y="471.5" width="992.1" height="49.2" transform="translate(520.7 471.5) rotate(90)"/></g>
</g><g transform="translate(1984.2,7936.8)">
<g id="layer-1" fill="#c9e2f7" data-original="#c9e2f7"><polygon points="258.7 267 49.2 49.2 49.2 943 258.7 725.1 258.7 267"/></g>
<g id="layer-2" fill="#e09192" data-original="#e09192"><polygon points="258.7 267 733.4 267 943 49.2 49.2 49.2 258.7 267 258.7 267"/></g>
<g id="layer-3" fill="#fdeff0" data-original="#fdeff0"><polygon points="258.7 725.1 258.7 725.1 49.2 943 943 943 733.4 725.1 258.7 725.1"/></g>
<g id="layer-4" fill="#f2c3c3" data-original="#f2c3c3"><polygon points="733.4 267 733.4 267 733.4 725.1 733.4 725.1 943 943 943 49.2 733.4 267"/></g>
<g id="layer-5" fill="#f4d9d9" data-original="#f4d9d9"><rect y="0" width="992.1" height="49.2"/><rect y="943" width="992.1" height="49.2"/><rect x="471.5" y="471.5" width="992.1" height="49.2" transform="translate(1463.6017 -471.4757) rotate(90)"/><rect x="-471.5" y="471.5" width="992.1" height="49.2" transform="translate(520.7 471.5) rotate(90)"/></g>
</g><g transform="translate(2976.3,7936.8)">
<g id="layer-1" fill="#c9e2f7" data-original="#c9e2f7"><polygon points="258.7 267 49.2 49.2 49.2 943 258.7 725.1 258.7 267"/></g>
<g id="layer-2" fill="#e09192" data-original="#e09192"><polygon points="258.7 267 733.4 267 943 49.2 49.2 49.2 258.7 267 258.7 267"/></g>
<g id="layer-3" fill="#fdeff0" data-original="#fdeff0"><polygon points="258.7 725.1 258.7 725.1 49.2 943 943 943 733.4 725.1 258.7 725.1"/></g>
<g id="layer-4" fill="#f2c3c3" data-original="#f2c3c3"><polygon points="733.4 267 733.4 267 733.4 725.1 733.4 725.1 943 943 943 49.2 733.4 267"/></g>
<g id="layer-5" fill="#f4d9d9" data-original="#f4d9d9"><rect y="0" width="992.1" height="49.2"/><rect y="943" width="992.1" height="49.2"/><rect x="471.5" y="471.5" width="992.1" height="49.2" transform="translate(1463.6017 -471.4757) rotate(90)"/><rect x="-471.5" y="471.5" width="992.1" height="49.2" transform="translate(520.7 471.5) rotate(90)"/></g>
</g><g transform="translate(3968.4,7936.8)">
<g id="layer-1" fill="#c9e2f7" data-original="#c9e2f7"><polygon points="258.7 267 49.2 49.2 49.2 943 258.7 725.1 258.7 267"/></g>
<g id="layer-2" fill="#e09192" data-original="#e09192"><polygon points="258.7 267 733.4 267 943 49.2 49.2 49.2 258.7 267 258.7 267"/></g>
<g id="layer-3" fill="#fdeff0" data-original="#fdeff0"><polygon points="258.7 725.1 258.7 725.1 49.2 943 943 943 733.4 725.1 258.7 725.1"/></g>
<g id="layer-4" fill="#f2c3c3" data-original="#f2c3c3"><polygon points="733.4 267 733.4 267 733.4 725.1 733.4 725.1 943 943 943 49.2 733.4 267"/></g>
<g id="layer-5" fill="#f4d9d9" data-original="#f4d9d9"><rect y="0" width="992.1" height="49.2"/><rect y="943" width="992.1" height="49.2"/><rect x="471.5" y="471.5" width="992.1" height="49.2" transform="translate(1463.6017 -471.4757) rotate(90)"/><rect x="-471.5" y="471.5" width="992.1" height="49.2" transform="translate(520.7 471.5) rotate(90)"/></g>
</g><g transform="translate(4960.5,7936.8)">
<g id="layer-1" fill="#c9e2f7" data-original="#c9e2f7"><polygon points="258.7 267 49.2 49.2 49.2 943 258.7 725.1 258.7 267"/></g>
<g id="layer-2" fill="#e09192" data-original="#e09192"><polygon points="258.7 267 733.4 267 943 49.2 49.2 49.2 258.7 267 258.7 267"/></g>
<g id="layer-3" fill="#fdeff0" data-original="#fdeff0"><polygon points="258.7 725.1 258.7 725.1 49.2 943 943 943 733.4 725.1 258.7 725.1"/></g>
<g id="layer-4" fill="#f2c3c3" data-original="#f2c3c3"><polygon points="733.4 267 733.4 267 733.4 725.1 733.4 725.1 943 943 943 49.2 733.4 267"/></g>
<g id="layer-5" fill="#f4d9d9" data-original="#f4d9d9"><rect y="0" width="992.1" height="49.2"/><rect y="943" width="992.1" height="49.2"/><rect x="471.5" y="471.5" width="992.1" height="49.2" transform="translate(1463.6017 -471.4757) rotate(90)"/><rect x="-471.5" y="471.5" width="992.1" height="49.2" transform="translate(520.7 471.5) rotate(90)"/></g>
</g><g transform="translate(5952.6,7936.8)">
<g id="layer-1" fill="#c9e2f7" data-original="#c9e2f7"><polygon points="258.7 267 49.2 49.2 49.2 943 258.7 725.1 258.7 267"/></g>
<g id="layer-2" fill="#e09192" data-original="#e09192"><polygon points="258.7 267 733.4 267 943 49.2 49.2 49.2 258.7 267 258.7 267"/></g>
<g id="layer-3" fill="#fdeff0" data-original="#fdeff0"><polygon points="258.7 725.1 258.7 725.1 49.2 943 943 943 733.4 725.1 258.7 725.1"/></g>
<g id="layer-4" fill="#f2c3c3" data-original="#f2c3c3"><polygon points="733.4 267 733.4 267 733.4 725.1 733.4 725.1 943 943 943 49.2 733.4 267"/></g>
<g id="layer-5" fill="#f4d9d9" data-original="#f4d9d9"><rect y="0" width="992.1" height="49.2"/><rect y="943" width="992.1" height="49.2"/><rect x="471.5" y="471.5" width="992.1" height="49.2" transform="translate(1463.6017 -471.4757) rotate(90)"/><rect x="-471.5" y="471.5" width="992.1" height="49.2" transform="translate(520.7 471.5) rotate(90)"/></g>
</g>
</svg>