<svg xmlns="http://www.w3.org/2000/svg" viewBox="0 0 5621.9 7606.099999999999">
<defs><linearGradient id="g_felix" x1="0" y1="0" x2="0" y2="1"><stop offset="0" stop-color="#c9e2f7"/><stop offset="1" stop-color="#8ba2c0"/></linearGradient></defs>
<rect width="5621.9" height="7606.099999999999" fill="#8ba2c0"/>
<rect x="165.35" y="165.35" width="5291.2" height="7275.4" fill="#3a4a60"/>
<rect x="330.7" y="330.7" width="4960.5" height="6944.7" fill="url(#g_felix)"/>
<g transform="translate(330.7,330.7)">
<g id="layer-1" fill="#c9e2f7" data-original="#c9e2f7"><polygon points="258.7 267 49.2 49.2 49.2 943 258.7 725.1 258.7 267"/></g>
<g id="layer-2" fill="#e09192" data-original="#e09192"><polygon points="258.7 267 733.4 267 943 49.2 49.2 49.2 258.7 267 258.7 267"/></g>
<g id="layer-3" fill="#fdeff0" data-original="#fdeff0"><polygon points="258.7 725.1 258.7 725.1 49.2 943 943 943 733.4 725.1 258.7 725.1"/></g>
<g id="layer-4" fill="#f2c3c3" data-original="#f2c3c3"><polygon points="733.4 267 733.4 267 733.4 725.1 733.4 725.1 943 943 943 49.2 733.4 267"/></g>
<g id="layer-5" fill="#f4d9d9" data-original="#f4d9d9"><rect y="0" width="992.1" height="49.2"/><rect y="943" width="992.1" height="49.2"/><rect x="471.5" y="471.5" width="992.1" height="49.2" transform="translate(1463.6017 -471.4757) rotate(90)"/><rect x="-471.5" y="471.5" width="992.1" height="49.2" transform="translate(520.7 471.5) rotate(90)"/></g>
</g><g transform="translate(1322.8,330.7)">
<g id="layer-1" fill="#c9e2f7" data-original="#c9e2f7"><polygon points="258.7 267 49.2 49.2 49.2 943 258.7 725.1 258.7 267"/></g>
<g id="layer-2" fill="#e09192" data-original="#e09192"><polygon points="258.7 267 733.4 267 943 49.2 49.2 49.2 258.7 267 258.7 267"/></g>
<g id="layer-3" fill="#fdeff0" data-original="#fdeff0"><polygon points="258.7 725.1 258.7 725.1 49.2 943 943 943 733.4 725.1 258.7 725.1"/></g>
<g id="layer-4" fill="#f2c3c3" data-original="#f2c3c3"><polygon points="733.4 267 733.4 267 733.4 725.1 733.4 725.1 943 943 943 49.2 733.4 267"/></g>
<g id="layer-5" fill="#f4d9d9" data-original="#f4d9d9"><rect y="0" width="992.1" height="49.2"/><rect y="943" width="992.1" height="49.2"/><rect x="471.5" y="471.5" width="992.1" height="49.2" transform="translate(1463.6017 -471.4757) rotate(90)"/><rect x="-471.5" y="471.5" width="992.1" height="49.2" transform="translate(520.7 471.5) rotate(90)"/></g>
</g><g transform="translate(2314.9,330.7)">
<g id="layer-1" fill="#c9e2f7" data-original="#c9e2f7"><polygon points="258.7 267 49.2 49.2 49.2 943 258.7 725.1 258.7 267"/></g>
<g id="layer-2" fill="#e09192" data-original="#e09192"><polygon points="258.7 267 733.4 267 943 49.2 49.2 49.2 258.7 267 258.7 267"/></g>
<g id="layer-3" fill="#fdeff0" data-original="#fdeff0"><polygon points="258.7 725.1 258.7 725.1 49.2 943 943 943 733.4 725.1 258.7 725.1"/></g>
<g id="layer-4" fill="#f2c3c3" data-original="#f2c3c3"><polygon points="733.4 267 733.4 267 733.4 725.1 733.4 725.1 943 943 943 49.2 733.4 267"/></g>
<g id="layer-5" fill="#f4d9d9" data-original="#f4d9d9"><rect y="0" width="992.1" height="49.2"/><rect y="943" width="992.1" height="49.2"/><rect x="471.5" y="471.5" width="992.1" height="49.2" transform="translate(1463.6017 -471.4757) rotate(90)"/><rect x="-471.5" y="471.5" width="992.1" height="49.2" transform="translate(520.7 471.5) rotate(90)"/></g>
</g><g transform="translate(3307.0,330.7)">
<g id="layer-1" fill="#c9e2f7" data-original="#c9e2f7"><polygon points="258.7 267 49.2 49.2 49.2 943 258.7 725.1 258.7 267"/></g>
<g id="layer-2" fill="#e09192" data-original="#e09192"><polygon points="258.7 267 733.4 267 943 49.2 49.2 49.2 258.7 267 258.7 267"/></g>
<g id="layer-3" fill="#fdeff0" data-original="#fdeff0"><polygon points="258.7 725.1 258.7 725.1 49.2 943 943 943 733.4 725.1 258.7 725.1"/></g>
<g id="layer-4" fill="#f2c3c3" data-original="#f2c3c3"><polygon points="733.4 267 733.4 267 733.4 725.1 733.4 725.1 943 943 943 49.2 733.4 267"/></g>
<g id="layer-5" fill="#f4d9d9" data-original="#f4d9d9"><rect y="0" width="992.1" height="49.2"/><rect y="943" width="992.1" height="49.2"/><rect x="471.5" y="471.5" width="992.1" height="49.2" transform="translate(1463.6017 -471.4757) rotate(90)"/><rect x="-471.5" y="471.5" width="992.1" height="49.2" transform="translate(520.7 471.5) rotate(90)"/></g>
</g><g transform="translate(4299.1,330.7)">
<g id="layer-1" fill="#c9e2f7" data-original="#c9e2f7"><polygon points="258.7 267 49.2 49.2 49.2 943 258.7 725.1 258.7 267"/></g>
<g id="layer-2" fill="#e09192" data-original="#e09192"><polygon points="258.7 267 733.4 267 943 49.2 49.2 49.2 258.7 267 258.7 267"/></g>
<g id="layer-3" fill="#fdeff0" data-original="#fdeff0"><polygon points="258.7 725.1 258.7 725.1 49.2 943 943 943 733.4 725.1 258.7 725.1"/></g>
<g id="layer-4" fill="#f2c3c3" data-original="#f2c3c3"><polygon points="733.4 267 733.4 267 733.4 725.1 733.4 725.1 943 943 943 49.2 733.4 267"/></g>
<g id="layer-5" fill="#f4d9d9" data-original="#f4d9d9"><rect y="0" width="992.1" height="49.2"/><rect y="943" width="992.1" height="49.2"/><rect x="471.5" y="471.5" width="992.1" height="49.2" transform="translate(1463.6017 -471.4757) rotate(90)"/><rect x="-471.5" y="471.5" width="992.1" height="49.2" transform="translate(520.7 471.5) rotate(90)"/></g>
</g><g transform="translate(330.7,1322.8)">
<g id="layer-1" fill="#c9e2f7" data-original="#c9e2f7"><polygon points="258.7 267 49.2 49.2 49.2 943 258.7 725.1 258.7 267"/></g>
<g id="layer-2" fill="#e09192" data-original="#e09192"><polygon points="258.7 267 733.4 267 943 49.2 49.2 49.2 258.7 267 258.7 267"/></g>
<g id="layer-3" fill="#fdeff0" data-original="#fdeff0"><polygon points="258.7 725.1 258.7 725.1 49.2 943 943 943 733.4 725.1 258.7 725.1"/></g>
<g id="layer-4" fill="#f2c3c3" data-original="#f2c3c3"><polygon points="733.4 267 733.4 267 733.4 725.1 733.4 725.1 943 943 943 49.2 733.4 267"/></g>
<g id="layer-5" fill="#f4d9d9" data-original="#f4d9d9"><rect y="0" width="992.1" height="49.2"/><rect y="943" width="992.1" height="49.2"/><rect x="471.5" y="471.5" width="992.1" height="49.2" transform="translate(1463.6017 -471.4757) rotate(90)"/><rect x="-471.5" y="471.5" width="992.1" height="49.2" transform="translate(520.7 471.5) rotate(90)"/></g>
</g><g transform="translate(1322.8,1322.8)">
<g id="layer-1" fill="#c9e2f7" data-original="#c9e2f7"><polygon points="258.7 267 49.2 49.2 49.2 943 258.7 725.1 258.7 267"/></g>
<g id="layer-2" fill="#e09192" data-original="#e09192"><polygon points="258.7 267 733.4 267 943 49.2 49.2 49.2 258.7 267 258.7 267"/></g>
<g id="layer-3" fill="#fdeff0" data-original="#fdeff0"><polygon points="258.7 725.1 258.7 725.1 49.2 943 943 943 733.4 725.1 258.7 725.1"/></g>
<g id="layer-4" fill="#f2c3c3" data-original="#f2c3c3"><polygon points="733.4 267 733.4 267 733.4 725.1 733.4 725.1 943 943 943 49.2 733.4 267"/></g>
<g id="layer-5" fill="#f4d9d9" data-original="#f4d9d9"><rect y="0" width="992.1" height="49.2"/><rect y="943" width="992.1" height="49.2"/><rect x="471.5" y="471.5" width="992.1" height="49.2" transform="translate(1463.6017 -471.4757) rotate(90)"/><rect x="-471.5" y="471.5" width="992.1" height="49.2" transform="translate(520.7 471.5) rotate(90)"/></g>
</g><g transform="translate(2314.9,1322.8)">
<g id="layer-1" fill="#c9e2f7" data-original="#c9e2f7"><polygon points="258.7 267 49.2 49.2 49.2 943 258.7 725.1 258.7 267"/></g>
<g id="layer-2" fill="#e09192" data-original="#e09192"><polygon points="258.7 267 733.4 267 943 49.2 49.2 49.2 258.7 267 258.7 267"/></g>
<g id="layer-3" fill="#fdeff0" data-original="#fdeff0"><polygon points="258.7 725.1 258.7 725.1 49.2 943 943 943 733.4 725.1 258.7 725.1"/></g>
<g id="layer-4" fill="#f2c3c3" data-original="#f2c3c3"><polygon points="733.4 267 733.4 267 733.4 725.1 733.4 725.1 943 943 943 49.2 733.4 267"/></g>
<g id="layer-5" fill="#f4d9d9" data-original="#f4d9d9"><rect y="0" width="992.1" height="49.2"/><rect y="943" width="992.1" height="49.2"/><rect x="471.5" y="471.5" width="992.1" height="49.2" transform="translate(1463.6017 -471.4757) rotate(90)"/><rect x="-471.5" y="471.5" width="992.1" height="49.2" transform="translate(520.7 471.5) rotate(90)"/></g>
</g><g transform="translate(3307.0,1322.8)">
<g id="layer-1" fill="#c9e2f7" data-original="#c9e2f7"><polygon points="258.7 267 49.2 49.2 49.2 943 258.7 725.1 258.7 267"/></g>
<g id="layer-2" fill="#e09192" data-original="#e09192"><polygon points="258.7 267 733.4 267 943 49.2 49.2 49.2 258.7 267 258.7 267"/></g>
<g id="layer-3" fill="#fdeff0" data-original="#fdeff0"><polygon points="258.7 725.1 258.7 725.1 49.2 943 943 943 733.4 725.1 258.7 725.1"/></g>
<g id="layer-4" fill="#f2c3c3" data-original="#f2c3c3"><polygon points="733.4 267 733.4 267 733.4 725.1 733.4 725.1 943 943 943 49.2 733.4 267"/></g>
<g id="layer-5" fill="#f4d9d9" data-original="#f4d9d9"><rect y="0" width="992.1" height="49.2"/><rect y="943" width="992.1" height="49.2"/><rect x="471.5" y="471.5" width="992.1" height="49.2" transform="translate(1463.6017 -471.4757) rotate(90)"/><rect x="-471.5" y="471.5" width="992.1" height="49.2" transform="translate(520.7 471.5) rotate(90)"/></g>
</g><g transform="translate(4299.1,1322.8)">
<g id="layer-1" fill="#c9e2f7" data-original="#c9e2f7"><polygon points="258.7 267 49.2 49.2 49.2 943 258.7 725.1 258.7 267"/></g>
<g id="layer-2" fill="#e09192" data-original="#e09192"><polygon points="258.7 267 733.4 267 943 49.2 49.2 49.2 258.7 267 258.7 267"/></g>
<g id="layer-3" fill="#fdeff0" data-original="#fdeff0"><polygon points="258.7 725.1 258.7 725.1 49.2 943 943 943 733.4 725.1 258.7 725.1"/></g>
<g id="layer-4" fill="#f2c3c3" data-original="#f2c3c3"><polygon points="733.4 267 733.4 267 733.4 725.1 733.4 725.1 943 943 943 49.2 733.4 267"/></g>
<g id="layer-5" fill="#f4d9d9" data-original="#f4d9d9"><rect y="0" width="992.1" height="49.2"/><rect y="943" width="992.1" height="49.2"/><rect x="471.5" y="471.5" width="992.1" height="49.2" transform="translate(1463.6017 -471.4757) rotate(90)"/><rect x="-471.5" y="471.5" width="992.1" height="49.2" transform="translate(520.7 471.5) rotate(90)"/></g>
</g><g transform="translate(330.7,2314.9)">
<g id="layer-1" fill="#c9e2f7" data-original="#c9e2f7"><polygon points="258.7 267 49.2 49.2 49.2 943 258.7 725.1 258.7 267"/></g>
<g id="layer-2" fill="#e09192" data-original="#e09192"><polygon points="258.7 267 733.4 267 943 49.2 49.2 49.2 258.7 267 258.7 267"/></g>
<g id="layer-3" fill="#fdeff0" data-original="#fdeff0"><polygon points="258.7 725.1 258.7 725.1 49.2 943 943 943 733.4 725.1 258.7 725.1"/></g>
<g id="layer-4" fill="#f2c3c3" data-original="#f2c3c3"><polygon points="733.4 267 733.4 267 733.4 725.1 733.4 725.1 943 943 943 49.2 733.4 267"/></g>
<g id="layer-5" fill="#f4d9d9" data-original="#f4d9d9"><rect y="0" width="992.1" height="49.2"/><rect y="943" width="992.1" height="49.2"/><rect x="471.5" y="471.5" width="992.1" height="49.2" transform="translate(1463.6017 -471.4757) rotate(90)"/><rect x="-471.5" y="471.5" width="992.1" height="49.2" transform="translate(520.7 471.5) rotate(90)"/></g>
</g><g transform="translate(1322.8,2314.9)">
<g id="layer-1" fill="#c9e2f7" data-original="#c9e2f7"><polygon points="258.7 267 49.2 49.2 49.2 943 258.7 725.1 258.7 267"/></g>
<g id="layer-2" fill="#e09192" data-original="#e09192"><polygon points="258.7 267 733.4 267 943 49.2 49.2 49.2 258.7 267 258.7 267"/></g>
<g id="layer-3" fill="#fdeff0" data-original="#fdeff0"><polygon points="258.7 725.1 258.7 725.1 49.2 943 943 943 733.4 725.1 258.7 725.1"/></g>
<g id="layer-4" fill="#f2c3c3" data-original="#f2c3c3"><polygon points="733.4 267 733.4 267 733.4 725.1 733.4 725.1 943 943 943 49.2 733.4 267"/></g>
<g id="layer-5" fill="#f4d9d9" data-original="#f4d9d9"><rect y="0" width="992.1" height="49.2"/><rect y="943" width="992.1" height="49.2"/><rect x="471.5" y="471.5" width="992.1" height="49.2" transform="translate(1463.6017 -471.4757) rotate(90)"/><rect x="-471.5" y="471.5" width="992.1" height="49.2" transform="translate(520.7 471.5) rotate(90)"/></g>
</g><g transform="translate(2314.9,2314.9)">
<g id="layer-1" fill="#c9e2f7" data-original="#c9e2f7"><polygon points="258.7 267 49.2 49.2 49.2 943 258.7 725.1 258.7 267"/></g>
<g id="layer-2" fill="#e09192" data-original="#e09192"><polygon points="258.7 267 733.4 267 943 49.2 49.2 49.2 258.7 267 258.7 267"/></g>
<g id="layer-3" fill="#fdeff0" data-original="#fdeff0"><polygon points="258.7 725.1 258.7 725.1 49.2 943 943 943 733.4 725.1 258.7 725.1"/></g>
<g id="layer-4" fill="#f2c3c3" data-original="#f2c3c3"><polygon points="733.4 267 733.4 267 733.4 725.1 733.4 725.1 943 943 943 49.2 733.4 267"/></g>
<g id="layer-5" fill="#f4d9d9" data-original="#f4d9d9"><rect y="0" width="992.1" height="49.2"/><rect y="943" width="992.1" height="49.2"/><rect x="471.5" y="471.5" width="992.1" height="49.2" transform="translate(1463.6017 -471.4757) rotate(90)"/><rect x="-471.5" y="471.5" width="992.1" height="49.2" transform="translate(520.7 471.5) rotate(90)"/></g>
</g><g transform="translate(3307.0,2314.9)">
<g id="layer-1" fill="#c9e2f7" data-original="#c9e2f7"><polygon points="258.7 267 49.2 49.2 49.2 943 258.7 725.1 258.7 267"/></g>
<g id="layer-2" fill="#e09192" data-original="#e09192"><polygon points="258.7 267 733.4 267 943 49.2 49.2 49.2 258.7 267 258.7 267"/></g>
<g id="layer-3" fill="#fdeff0" data-original="#fdeff0"><polygon points="258.7 725.1 258.7 725.1 49.2 943 943 943 733.4 725.1 258.7 725.1"/></g>
<g id="layer-4" fill="#f2c3c3" data-original="#f2c3c3"><polygon points="733.4 267 733.4 267 733.4 725.1 733.4 725.1 943 943 943 49.2 733.4 267"/></g>
<g id="layer-5" fill="#f4d9d9" data-original="#f4d9d9"><rect y="0" width="992.1" height="49.2"/><rect y="943" width="992.1" height="49.2"/><rect x="471.5" y="471.5" width="992.1" height="49.2" transform="translate(1463.6017 -471.4757) rotate(90)"/><rect x="-471.5" y="471.5" width="992.1" height="49.2" transform="translate(520.7 471.5) rotate(90)"/></g>
</g><g transform="translate(4299.1,2314.9)">
<g id="layer-1" fill="#c9e2f7" data-original="#c9e2f7"><polygon points="258.7 267 49.2 49.2 49.2 943 258.7 725.1 258.7 267"/></g>
<g id="layer-2" fill="#e09192" data-original="#e09192"><polygon points="258.7 267 733.4 267 943 49.2 49.2 49.2 258.7 267 258.7 267"/></g>
<g id="layer-3" fill="#fdeff0" data-original="#fdeff0"><polygon points="258.7 725.1 258.7 725.1 49.2 943 943 943 733.4 725.1 258.7 725.1"/></g>
<g id="layer-4" fill="#f2c3c3" data-original="#f2c3c3"><polygon points="733.4 267 733.4 267 733.4 725.1 733.4 725.1 943 943 943 49.2 733.4 267"/></g>
<g id="layer-5" fill="#f4d9d9" data-original="#f4d9d9"><rect y="0" width="992.1" height="49.2"/><rect y="943" width="992.1" height="49.2"/><rect x="471.5" y="471.5" width="992.1" height="49.2" transform="translate(1463.6017 -471.4757) rotate(90)"/><rect x="-471.5" y="471.5" width="992.1" height="49.2" transform="translate(520.7 471.5) rotate(90)"/></g>
</g><g transform="translate(330.7,3307.0)">
<g id="layer-1" fill="#c9e2f7" data-original="#c9e2f7"><polygon points="258.7 267 49.2 49.2 49.2 943 258.7 725.1 258.7 267"/></g>
<g id="layer-2" fill="#e09192" data-original="#e09192"><polygon points="258.7 267 733.4 267 943 49.2 49.2 49.2 258.7 267 258.7 267"/></g>
<g id="layer-3" fill="#fdeff0" data-original="#fdeff0"><polygon points="258.7 725.1 258.7 725.1 49.2 943 943 943 733.4 725.1 258.7 725.1"/></g>
<g id="layer-4" fill="#f2c3c3" data-original="#f2c3c3"><polygon points="733.4 267 733.4 267 733.4 725.1 733.4 725.1 943 943 943 49.2 733.4 267"/></g>
<g id="layer-5" fill="#f4d9d9" data-original="#f4d9d9"><rect y="0" width="992.1" height="49.2"/><rect y="943" width="992.1" height="49.2"/><rect x="471.5" y="471.5" width="992.1" height="49.2" transform="translate(1463.6017 -471.4757) rotate(90)"/><rect x="-471.5" y="471.5" width="992.1" height="49.2" transform="translate(520.7 471.5) rotate(90)"/></g>
</g><g transform="translate(1322.8,3307.0)">
<g id="layer-1" fill="#c9e2f7" data-original="#c9e2f7"><polygon points="258.7 267 49.2 49.2 49.2 943 258.7 725.1 258.7 267"/></g>
<g id="layer-2" fill="#e09192" data-original="#e09192"><polygon points="258.7 267 733.4 267 943 49.2 49.2 49.2 258.7 267 258.7 267"/></g>
<g id="layer-3" fill="#fdeff0" data-original="#fdeff0"><polygon points="258.7 725.1 258.7 725.1 49.2 943 943 943 733.4 725.1 258.7 725.1"/></g>
<g id="layer-4" fill="#f2c3c3" data-original="#f2c3c3"><polygon points="733.4 267 733.4 267 733.4 725.1 733.4 725.1 943 943 943 49.2 733.4 267"/></g>
<g id="layer-5" fill="#f4d9d9" data-original="#f4d9d9"><rect y="0" width="992.1" height="49.2"/><rect y="943" width="992.1" height="49.2"/><rect x="471.5" y="471.5" width="992.1" height="49.2" transform="translate(1463.6017 -471.4757) rotate(90)"/><rect x="-471.5" y="471.5" width="992.1" height="49.2" transform="translate(520.7 471.5) rotate(90)"/></g>
</g><g transform="translate(2314.9,3307.0)">
<g id="layer-1" fill="#c9e2f7" data-original="#c9e2f7"><polygon points="258.7 267 49.2 49.2 49.2 943 258.7 725.1 258.7 267"/></g>
<g id="layer-2" fill="#e09192" data-original="#e09192"><polygon points="258.7 267 733.4 267 943 49.2 49.2 49.2 258.7 267 258.7 267"/></g>
<g id="layer-3" fill="#fdeff0" data-original="#fdeff0"><polygon points="258.7 725.1 258.7 725.1 49.2 943 943 943 733.4 725.1 258.7 725.1"/></g>
<g id="layer-4" fill="#f2c3c3" data-original="#f2c3c3"><polygon points="733.4 267 733.4 267 733.4 725.1 733.4 725.1 943 943 943 49.2 733.4 267"/></g>
<g id="layer-5" fill="#f4d9d9" data-original="#f4d9d9"><rect y="0" width="992.1" height="49.2"/><rect y="943" width="992.1" height="49.2"/><rect x="471.5" y="471.5" width="992.1" height="49.2" transform="translate(1463.6017 -471.4757) rotate(90)"/><rect x="-471.5" y="471.5" width="992.1" height="49.2" transform="translate(520.7 471.5) rotate(90)"/></g>
</g><g transform="translate(3307.0,3307.0)">
<g id="layer-1" fill="#c9e2f7" data-original="#c9e2f7"><polygon points="258.7 267 49.2 49.2 49.2 943 258.7 725.1 258.7 267"/></g>
<g id="layer-2" fill="#e09192" data-original="#e09192"><polygon points="258.7 267 733.4 267 943 49.2 49.2 49.2 258.7 267 258.7 267"/></g>
<g id="layer-3" fill="#fdeff0" data-original="#fdeff0"><polygon points="258.7 725.1 258.7 725.1 49.2 943 943 943 733.4 725.1 258.7 725.1"/></g>
<g id="layer-4" fill="#f2c3c3" data-original="#f2c3c3"><polygon points="733.4 267 733.4 267 733.4 725.1 733.4 725.1 943 943 943 49.2 733.4 267"/></g>
<g id="layer-5" fill="#f4d9d9" data-original="#f4d9d9"><rect y="0" width="992.1" height="49.2"/><rect y="943" width="992.1" height="49.2"/><rect x="471.5" y="471.5" width="992.1" height="49.2" transform="translate(1463.6017 -471.4757) rotate(90)"/><rect x="-471.5" y="471.5" width="992.1" height="49.2" transform="translate(520.7 471.5) rotate(90)"/></g>
</g><g transform="translate(4299.1,3307.0)">
<g id="layer-1" fill="#c9e2f7" data-original="#c9e2f7"><polygon points="258.7 267 49.2 49.2 49.2 943 258.7 725.1 258.7 267"/></g>
<g id="layer-2" fill="#e09192" data-original="#e09192"><polygon points="258.7 267 733.4 267 943 49.2 49.2 49.2 258.7 267 258.7 267"/></g>
<g id="layer-3" fill="#fdeff0" data-original="#fdeff0"><polygon points="258.7 725.1 258.7 725.1 49.2 943 943 943 733.4 725.1 258.7 725.1"/></g>
<g id="layer-4" fill="#f2c3c3" data-original="#f2c3c3"><polygon points="733.4 267 733.4 267 733.4 725.1 733.4 725.1 943 943 943 49.2 733.4 267"/></g>
<g id="layer-5" fill="#f4d9d9" data-original="#f4d9d9"><rect y="0" width="992.1" height="49.2"/><rect y="943" width="992.1" height="49.2"/><rect x="471.5" y="471.5" width="992.1" height="49.2" transform="translate(1463.6017 -471.4757) rotate(90)"/><rect x="-471.5" y="471.5" width="992.1" height="49.2" transform="translate(520.7 471.5) rotate(90)"/></g>
</g><g transform="translate(330.7,4299.1)">
<g id="layer-1" fill="#c9e2f7" data-original="#c9e2f7"><polygon points="258.7 267 49.2 49.2 49.2 943 258.7 725.1 258.7 267"/></g>
<g id="layer-2" fill="#e09192" data-original="#e09192"><polygon points="258.7 267 733.4 267 943 49.2 49.2 49.2 258.7 267 258.7 267"/></g>
<g id="layer-3" fill="#fdeff0" data-original="#fdeff0"><polygon points="258.7 725.1 258.7 725.1 49.2 943 943 943 733.4 725.1 258.7 725.1"/></g>
<g id="layer-4" fill="#f2c3c3" data-original="#f2c3c3"><polygon points="733.4 267 733.4 267 733.4 725.1 733.4 725.1 943 943 943 49.2 733.4 267"/></g>
<g id="layer-5" fill="#f4d9d9" data-original="#f4d9d9"><rect y="0" width="992.1" height="49.2"/><rect y="943" width="992.1" height="49.2"/><rect x="471.5" y="471.5" width="992.1" height="49.2" transform="translate(1463.6017 -471.4757) rotate(90)"/><rect x="-471.5" y="471.5" width="992.1" height="49.2" transform="translate(520.7 471.5) rotate(90)"/></g>
</g><g transform="translate(1322.8,4299.1)">
<g id="layer-1" fill="#c9e2f7" data-original="#c9e2f7"><polygon points="258.7 267 49.2 49.2 49.2 943 258.7 725.1 258.7 267"/></g>
<g id="layer-2" fill="#e09192" data-original="#e09192"><polygon points="258.7 267 733.4 267 943 49.2 49.2 49.2 258.7 267 258.7 267"/></g>
<g id="layer-3" fill="#fdeff0" data-original="#fdeff0"><polygon points="258.7 725.1 258.7 725.1 49.2 943 943 943 733.4 725.1 258.7 725.1"/></g>
<g id="layer-4" fill="#f2c3c3" data-original="#f2c3c3"><polygon points="733.4 267 733.4 267 733.4 725.1 733.4 725.1 943 943 943 49.2 733.4 267"/></g>
<g id="layer-5" fill="#f4d9d9" data-original="#f4d9d9"><rect y="0" width="992.1" height="49.2"/><rect y="943" width="992.1" height="49.2"/><rect x="471.5" y="471.5" width="992.1" height="49.2" transform="translate(1463.6017 -471.4757) rotate(90)"/><rect x="-471.5" y="471.5" width="992.1" height="49.2" transform="translate(520.7 471.5) rotate(90)"/></g>
</g><g transform="translate(2314.9,4299.1)">
<g id="layer-1" fill="#c9e2f7" data-original="#c9e2f7"><polygon points="258.7 267 49.2 49.2 49.2 943 258.7 725.1 258.7 267"/></g>
<g id="layer-2" fill="#e09192" data-original="#e09192"><polygon points="258.7 267 733.4 267 943 49.2 49.2 49.2 258.7 267 258.7 267"/></g>
<g id="layer-3" fill="#fdeff0" data-original="#fdeff0"><polygon points="258.7 725.1 258.7 725.1 49.2 943 943 943 733.4 725.1 258.7 725.1"/></g>
<g id="layer-4" fill="#f2c3c3" data-original="#f2c3c3"><polygon points="733.4 267 733.4 267 733.4 725.1 733.4 725.1 943 943 943 49.2 733.4 267"/></g>
<g id="layer-5" fill="#f4d9d9" data-original="#f4d9d9"><rect y="0" width="992.1" height="49.2"/><rect y="943" width="992.1" height="49.2"/><rect x="471.5" y="471.5" width="992.1" height="49.2" transform="translate(1463.6017 -471.4757) rotate(90)"/><rect x="-471.5" y="471.5" width="992.1" height="49.2" transform="translate(520.7 471.5) rotate(90)"/></g>
</g><g transform="translate(3307.0,4299.1)">
<g id="layer-1" fill="#c9e2f7" data-original="#c9e2f7"><polygon points="258.7 267 49.2 49.2 49.2 943 258.7 725.1 258.7 267"/></g>
<g id="layer-2" fill="#e09192" data-original="#e09192"><polygon points="258.7 267 733.4 267 943 49.2 49.2 49.2 258.7 267 258.7 267"/></g>
<g id="layer-3" fill="#fdeff0" data-original="#fdeff0"><polygon points="258.7 725.1 258.7 725.1 49.2 943 943 943 733.4 725.1 258.7 725.1"/></g>
<g id="layer-4" fill="#f2c3c3" data-original="#f2c3c3"><polygon points="733.4 267 733.4 267 733.4 725.1 733.4 725.1 943 943 943 49.2 733.4 267"/></g>
<g id="layer-5" fill="#f4d9d9" data-original="#f4d9d9"><rect y="0" width="992.1" height="49.2"/><rect y="943" width="992.1" height="49.2"/><rect x="471.5" y="471.5" width="992.1" height="49.2" transform="translate(1463.6017 -471.4757) rotate(90)"/><rect x="-471.5" y="471.5" width="992.1" height="49.2" transform="translate(520.7 471.5) rotate(90)"/></g>
</g><g transform="translate(4299.1,4299.1)">
<g id="layer-1" fill="#c9e2f7" data-original="#c9e2f7"><polygon points="258.7 267 49.2 49.2 49.2 943 258.7 725.1 258.7 267"/></g>
<g id="layer-2" fill="#e09192" data-original="#e09192"><polygon points="258.7 267 733.4 267 943 49.2 49.2 49.2 258.7 267 258.7 267"/></g>
<g id="layer-3" fill="#fdeff0" data-original="#fdeff0"><polygon points="258.7 725.1 258.7 725.1 49.2 943 943 943 733.4 725.1 258.7 725.1"/></g>
<g id="layer-4" fill="#f2c3c3" data-original="#f2c3c3"><polygon points="733.4 267 733.4 267 733.4 725.1 733.4 725.1 943 943 943 49.2 733.4 267"/></g>
<g id="layer-5" fill="#f4d9d9" data-original="#f4d9d9"><rect y="0" width="992.1" height="49.2"/><rect y="943" width="992.1" height="49.2"/><rect x="471.5" y="471.5" width="992.1" height="49.2" transform="translate(1463.6017 -471.4757) rotate(90)"/><rect x="-471.5" y="471.5" width="992.1" height="49.2" transform="translate(520.7 471.5) rotate(90)"/></g>
</g><g transform="translate(330.7,5291.2)">
<g id="layer-1" fill="#c9e2f7" data-original="#c9e2f7"><polygon points="258.7 267 49.2 49.2 49.2 943 258.7 725.1 258.7 267"/></g>
<g id="layer-2" fill="#e09192" data-original="#e09192"><polygon points="258.7 267 733.4 267 943 49.2 49.2 49.2 258.7 267 258.7 267"/></g>
<g id="layer-3" fill="#fdeff0" data-original="#fdeff0"><polygon points="258.7 725.1 258.7 725.1 49.2 943 943 943 733.4 725.1 258.7 725.1"/></g>
<g id="layer-4" fill="#f2c3c3" data-original="#f2c3c3"><polygon points="733.4 267 733.4 267 733.4 725.1 733.4 725.1 943 943 943 49.2 733.4 267"/></g>
<g id="layer-5" fill="#f4d9d9" data-original="#f4d9d9"><rect y="0" width="992.1" height="49.2"/><rect y="943" width="992.1" height="49.2"/><rect x="471.5" y="471.5" width="992.1" height="49.2" transform="translate(1463.6017 -471.4757) rotate(90)"/><rect x="-471.5" y="471.5" width="992.1" height="49.2" transform="translate(520.7 471.5) rotate(90)"/></g>
</g><g transform="translate(1322.8,5291.2)">
<g id="layer-1" fill="#c9e2f7" data-original="#c9e2f7"><polygon points="258.7 267 49.2 49.2 49.2 943 258.7 725.1 258.7 267"/></g>
<g id="layer-2" fill="#e09192" data-original="#e09192"><polygon points="258.7 267 733.4 267 943 49.2 49.2 49.2 258.7 267 258.7 267"/></g>
<g id="layer-3" fill="#fdeff0" data-original="#fdeff0"><polygon points="258.7 725.1 258.7 725.1 49.2 943 943 943 733.4 725.1 258.7 725.1"/></g>
<g id="layer-4" fill="#f2c3c3" data-original="#f2c3c3"><polygon points="733.4 267 733.4 267 733.4 725.1 733.4 725.1 943 943 943 49.2 733.4 267"/></g>
<g id="layer-5" fill="#f4d9d9" data-original="#f4d9d9"><rect y="0" width="992.1" height="49.2"/><rect y="943" width="992.1" height="49.2"/><rect x="471.5" y="471.5" width="992.1" height="49.2" transform="translate(1463.6017 -471.4757) rotate(90)"/><rect x="-471.5" y="471.5" width="992.1" height="49.2" transform="translate(520.7 471.5) rotate(90)"/></g>
</g><g transform="translate(2314.9,5291.2)">
<g id="layer-1" fill="#c9e2f7" data-original="#c9e2f7"><polygon points="258.7 267 49.2 49.2 49.2 943 258.7 725.1 258.7 267"/></g>
<g id="layer-2" fill="#e09192" data-original="#e09192"><polygon points="258.7 267 733.4 267 943 49.2 49.2 49.2 258.7 267 258.7 267"/></g>
<g id="layer-3" fill="#fdeff0" data-original="#fdeff0"><polygon points="258.7 725.1 258.7 725.1 49.2 943 943 943 733.4 725.1 258.7 725.1"/></g>
<g id="layer-4" fill="#f2c3c3" data-original="#f2c3c3"><polygon points="733.4 267 733.4 267 733.4 725.1 733.4 725.1 943 943 943 49.2 733.4 267"/></g>
<g id="layer-5" fill="#f4d9d9" data-original="#f4d9d9"><rect y="0" width="992.1" height="49.2"/><rect y="943" width="992.1" height="49.2"/><rect x="471.5" y="471.5" width="992.1" height="49.2" transform="translate(1463.6017 -471.4757) rotate(90)"/><rect x="-471.5" y="471.5" width="992.1" height="49.2" transform="translate(520.7 471.5) rotate(90)"/></g>
</g><g transform="translate(3307.0,5291.2)">
<g id="layer-1" fill="#c9e2f7" data-original="#c9e2f7"><polygon points="258.7 267 49.2 49.2 49.2 943 258.7 725.1 258.7 267"/></g>
<g id="layer-2" fill="#e09192" data-original="#e09192"><polygon points="258.7 267 733.4 267 943 49.2 49.2 49.2 258.7 267 258.7 267"/></g>
<g id="layer-3" fill="#fdeff0" data-original="#fdeff0"><polygon points="258.7 725.1 258.7 725.1 49.2 943 943 943 733.4 725.1 258.7 725.1"/></g>
<g id="layer-4" fill="#f2c3c3" data-original="#f2c3c3"><polygon points="733.4 267 733.4 267 733.4 725.1 733.4 725.1 943 943 943 49.2 733.4 267"/></g>
<g id="layer-5" fill="#f4d9d9" data-original="#f4d9d9"><rect y="0" width="992.1" height="49.2"/><rect y="943" width="992.1" height="49.2"/><rect x="471.5" y="471.5" width="992.1" height="49.2" transform="translate(1463.6017 -471.4757) rotate(90)"/><rect x="-471.5" y="471.5" width="992.1" height="49.2" transform="translate(520.7 471.5) rotate(90)"/></g>
</g><g transform="translate(4299.1,5291.2)">
<g id="layer-1" fill="#c9e2f7" data-original="#c9e2f7"><polygon points="258.7 267 49.2 49.2 49.2 943 258.7 725.1 258.7 267"/></g>
<g id="layer-2" fill="#e09192" data-original="#e09192"><polygon points="258.7 267 733.4 267 943 49.2 49.2 49.2 258.7 267 258.7 267"/></g>
<g id="layer-3" fill="#fdeff0" data-original="#fdeff0"><polygon points="258.7 725.1 258.7 725.1 49.2 943 943 943 733.4 725.1 258.7 725.1"/></g>
<g id="layer-4" fill="#f2c3c3" data-original="#f2c3c3"><polygon points="733.4 267 733.4 267 733.4 725.1 733.4 725.1 943 943 943 49.2 733.4 267"/></g>
<g id="layer-5" fill="#f4d9d9" data-original="#f4d9d9"><rect y="0" width="992.1" height="49.2"/><rect y="943" width="992.1" height="49.2"/><rect x="471.5" y="471.5" width="992.1" height="49.2" transform="translate(1463.6017 -471.4757) rotate(90)"/><rect x="-471.5" y="471.5" width="992.1" height="49.2" transform="translate(520.7 471.5) rotate(90)"/></g>
</g><g transform="translate(330.7,6283.3)">
<g id="layer-1" fill="#c9e2f7" data-original="#c9e2f7"><polygon points="258.7 267 49.2 49.2 49.2 943 258.7 725.1 258.7 267"/></g>
<g id="layer-2" fill="#e09192" data-original="#e09192"><polygon points="258.7 267 733.4 267 943 49.2 49.2 49.2 258.7 267 258.7 267"/></g>
<g id="layer-3" fill="#fdeff0" data-original="#fdeff0"><polygon points="258.7 725.1 258.7 725.1 49.2 943 943 943 733.4 725.1 258.7 725.1"/></g>
<g id="layer-4" fill="#f2c3c3" data-original="#f2c3c3"><polygon points="733.4 267 733.4 267 733.4 725.1 733.4 725.1 943 943 943 49.2 733.4 267"/></g>
<g id="layer-5" fill="#f4d9d9" data-original="#f4d9d9"><rect y="0" width="992.1" height="49.2"/><rect y="943" width="992.1" height="49.2"/><rect x="471.5" y="471.5" width="992.1" height="49.2" transform="translate(1463.6017 -471.4757) rotate(90)"/><rect x="-471.5" y="471.5" width="992.1" height="49.2" transform="translate(520.7 471.5) rotate(90)"/></g>
</g><g transform="translate(1322.8,6283.3)">
<g id="layer-1" fill="#c9e2f7" data-original="#c9e2f7"><polygon points="258.7 267 49.2 49.2 49.2 943 258.7 725.1 258.7 267"/></g>
<g id="layer-2" fill="#e09192" data-original="#e09192"><polygon points="258.7 267 733.4 267 943 49.2 49.2 49.2 258.7 267 258.7 267"/></g>
<g id="layer-3" fill="#fdeff0" data-original="#fdeff0"><polygon points="258.7 725.1 258.7 725.1 49.2 943 943 943 733.4 725.1 258.7 725.1"/></g>
<g id="layer-4" fill="#f2c3c3" data-original="#f2c3c3"><polygon points="733.4 267 733.4 267 733.4 725.1 733.4 725.1 943 943 943 49.2 733.4 267"/></g>
<g id="layer-5" fill="#f4d9d9" data-original="#f4d9d9"><rect y="0" width="992.1" height="49.2"/><rect y="943" width="992.1" height="49.2"/><rect x="471.5" y="471.5" width="992.1" height="49.2" transform="translate(1463.6017 -471.4757) rotate(90)"/><rect x="-471.5" y="471.5" width="992.1" height="49.2" transform="translate(520.7 471.5) rotate(90)"/></g>
</g><g transform="translate(2314.9,6283.3)">
<g id="layer-1" fill="#c9e2f7" data-original="#c9e2f7"><polygon points="258.7 267 49.2 49.2 49.2 943 258.7 725.1 258.7 267"/></g>
<g id="layer-2" fill="#e09192" data-original="#e09192"><polygon points="258.7 267 733.4 267 943 49.2 49.2 49.2 258.7 267 258.7 267"/></g>
<g id="layer-3" fill="#fdeff0" data-original="#fdeff0"><polygon points="258.7 725.1 258.7 725.1 49.2 943 943 943 733.4 725.1 258.7 725.1"/></g>
<g id="layer-4" fill="#f2c3c3" data-original="#f2c3c3"><polygon points="733.4 267 733.4 267 733.4 725.1 733.4 725.1 943 943 943 49.2 733.4 267"/></g>
<g id="layer-5" fill="#f4d9d9" data-original="#f4d9d9"><rect y="0" width="992.1" height="49.2"/><rect y="943" width="992.1" height="49.2"/><rect x="471.5" y="471.5" width="992.1" height="49.2" transform="translate(1463.6017 -471.4757) rotate(90)"/><rect x="-471.5" y="471.5" width="992.1" height="49.2" transform="translate(520.7 471.5) rotate(90)"/></g>
</g><g transform="translate(3307.0,6283.3)">
<g id="layer-1" fill="#c9e2f7" data-original="#c9e2f7"><polygon points="258.7 267 49.2 49.2 49.2 943 258.7 725.1 258.7 267"/></g>
<g id="layer-2" fill="#e09192" data-original="#e09192"><polygon points="258.7 267 733.4 267 943 49.2 49.2 49.2 258.7 267 258.7 267"/></g>
<g id="layer-3" fill="#fdeff0" data-original="#fdeff0"><polygon points="258.7 725.1 258.7 725.1 49.2 943 943 943 733.4 725.1 258.7 725.1"/></g>
<g id="layer-4" fill="#f2c3c3" data-original="#f2c3c3"><polygon points="733.4 267 733.4 267 733.4 725.1 733.4 725.1 943 943 943 49.2 733.4 267"/></g>
<g id="layer-5" fill="#f4d9d9" data-original="#f4d9d9"><rect y="0" width="992.1" height="49.2"/><rect y="943" width="992.1" height="49.2"/><rect x="471.5" y="471.5" width="992.1" height="49.2" transform="translate(1463.6017 -471.4757) rotate(90)"/><rect x="-471.5" y="471.5" width="992.1" height="49.2" transform="translate(520.7 471.5) rotate(90)"/></g>
</g><g transform="translate(4299.1,6283.3)">
<g id="layer-1" fill="#c9e2f7" data-original="#c9e2f7"><polygon points="258.7 267 49.2 49.2 49.2 943 258.7 725.1 258.7 267"/></g>
<g id="layer-2" fill="#e09192" data-original="#e09192"><polygon points="258.7 267 733.4 267 943 49.2 49.2 49.2 258.7 267 258.7 267"/></g>
<g id="layer-3" fill="#fdeff0" data-original="#fdeff0"><polygon points="258.7 725.1 258.7 725.1 49.2 943 943 943 733.4 725.1 258.7 725.1"/></g>
<g id="layer-4" fill="#f2c3c3" data-original="#f2c3c3"><polygon points="733.4 267 733.4 267 733.4 725.1 733.4 725.1 943 943 943 49.2 733.4 267"/></g>
<g id="layer-5" fill="#f4d9d9" data-original="#f4d9d9"><rect y="0" width="992.1" height="49.2"/><rect y="943" width="992.1" height="49.2"/><rect x="471.5" y="471.5" width="992.1" height="49.2" transform="translate(1463.6017 -471.4757) rotate(90)"/><rect x="-471.5" y="471.5" width="992.1" height="49.2" transform="translate(520.7 471.5) rotate(90)"/></g>
</g>
</svg>