<svg id="Calque_1" data-name="Calque 1" xmlns="http://www.w3.org/2000/svg" viewBox="0 0 5669.29 5669.29">
  <path d="M56.53,256.15C6.44,300.25,1.25,378.34.57,447.33c-2.65,268.97,4,538.04,19.93,806.5,1.28,21.6,2.68,43.49,9.24,63.99,27.14,84.69,129.58,116.69,168.27,196.18,28.34,58.23,16.32,128.35,3.63,192.47-11.05,55.85-22.11,111.7-33.16,167.55-20.8,105.09-56.01,206.96-104.2,301.42-30.66,60.11-67.78,128.21-45.58,192.36,9.32,26.94,28.15,48.81,41.63,73.7,27.86,51.47,31.65,113.16,34.79,172.39,9.91,187.31,19.82,374.61,29.73,561.92,7.18,135.68-13.7,248.2-28.06,383.24-13.05,122.7-7.82,246.65-2.59,370,14.75,347.22,29.49,694.43,44.24,1041.65,1.74,40.88,33.6,72.4,64.35,97.16,116.21,93.6,250,160.22,367.33,252.24,71.69,56.22,136.82,121.62,210.55,174.81,73.72,53.19,158.95,94.48,248.15,93.77,74.55-.59,146.46-28.32,221.22-33.64,72.96-5.19,145.91-10.89,218.89-15.57,63.4-4.07,127.78,11.6,191.38,18.79,165.52,18.7,331.03,37.4,496.55,56.11,254.64,28.77,507.65-81.92,763.42-68.33,19.65,1.04,40.73,3.44,55.63,17.06,8.37,7.65,14.15,18.38,23.45,24.7,19.56,13.29,44.88,2.4,67.55-3,78.11-18.6,153.39,33.73,229.34,60.55,171.49,60.56,356.12-9.62,535.07-36.72,82.45-12.48,165.86-15.67,249.1-18.85,237.68-9.06,475.49-18.13,713.28-13.75,71.41,1.32,142.9,3.84,214.23-.06,174.17,0,342.77-50.78,517.95-37.22,35.76,2.77,75.01,4.53,103.73-18.21,33.02-26.14,40.13-75.17,39.67-118.83-.65-60.32-10.61-120.31-9.41-180.62.79-39.92,6.48-79.61,7.04-119.54,1.44-102.28-30.32-200.05-52.54-298.34-20.98-92.83-10.62-176.42-19.49-267.83-21.13-217.78-34.83-437.13-13.59-655.57,5.32-54.73,12.79-109.78,7.86-164.55-5.2-57.83-24.02-113.23-34.45-170.26,0-91.44-11.68-180.5-6.31-273.3,5.09-88.12,4.05-171.96-.55-260.25-1.89-36.3-3.9-73.25-15.9-107.32-18.44-52.38-58.4-92.52-98.1-129.36-137.92-127.95-290.88-232.05-437.17-346.9-29.12-22.87-61.28-51.66-60.7-90.05.67-44.38,43.68-72.41,80.6-93.41,106.44-60.54,206.55-133.55,297.92-217.26,0-12.42,52.47-58.08,60.54-77.93,20.06-49.34,25.99-111.7,38.08-163.96,5.64-24.36,6.46-58.41-16.23-65.56-10.59-3.33-21.76,1.55-31.84,6.33-80.66,38.26-161.31,76.53-241.97,114.79-32.11,15.23-154.21,103.59-168.67,30.11-4.23-21.53,4.2-43.33,12.45-63.51,52.03-127.19,104.17-254.62,167.81-375.74,59.67-113.55,129.68-222.09,172.21-343.99,36.63-105,63.7-243.13-.73-340.17-3.82-5.76-8.25-11.73-14.6-13.8-9.15-2.97-18.51,3.1-26.36,8.9-120.94,89.19-241.87,178.39-362.81,267.58-26.93,19.86-56.48,43.64-66.14,78.73-3.03,11.02-3.48,22.63-3.91,34.1-1.68,44.8-7.81,89.07-7.81,134.38,0,69.8-2.42,138.3-5.02,207.71-1.31,34.91,8.65,74.1-17.15,102.8-22.07,24.56-65.62,20.52-83.32-7.73,0-25.52-8.7-54.1-12.65-79.35-4.31-27.56-8.54-55.14-12.71-82.73-8.33-55.18-16.4-110.4-24.33-165.65-15.33-106.85-31.72-213-37.92-320.88-.45-7.76-.85-15.53-1.2-23.29-1-21.76-1.62-43.77,2.36-65.14,1.3-7,3.27-14.24,8.01-19.31,11.7-12.54,40.48-9.3,55.69-9.16,25.23.24,50.44,1.81,75.51,4.73,30,3.49,70.51,1.81,77.56-29.27,1.38-6.09,1.04-12.44.7-18.69-7.83-141.04-15.66-282.07-23.48-423.11-4.86-87.59,26.93-284.39-80.18-311.09-75.3-18.76-166.93-20.05-243.76-14.06-97.88,7.64-195.17,24.28-291.69,42.69-101.22,19.31-204.51,17.78-306.79,11.5-90.15-5.53-168.01,19.27-258.04,26.17-111.31,8.53-223.03,11.45-334.59,7.85-135.81-4.39-265.65,2.02-402.73,14.17-36.85-.51-73.7-1.02-110.55-1.53-247.62-3.44-494.05,16.14-741.21,1.94-122.9-7.06-243.02-1.96-366.06,5.89-122.86,7.84-246.9-15.98-370.16-11.02-140,5.63-280.14,14.74-420.26,7.74-34.31-1.71-68.71-4.39-102.96-1.66-158.06,12.61-277.97,142.08-433.61,161.58-52.92,6.63-106.2,9.07-159.46,6.63-21.58-.99-136.02-29.5-147.97-18.98Z" fill="#d7cec6"/>
  <g>
    <path d="M1464.21,563.66c-4.44,10.66-12.02,19.48-19.9,27.61-30.6,31.55-67.96,55.7-117.85,55.3-31.24-46.44-19.57-118.87,24.44-151.7,24.05-17.95,57.23-23.86,83.5-9.82,26.27,14.03,41.7,50.12,29.82,78.63ZM1409.76,4631.06c1.57-16.28,7.82-33.12,20.75-42.06,19.86-13.73,48.45-2.76,62.12,17.77,12.84,19.29,14.82,47.22,1.7,66.29-29.73,43.19-89.01,3.91-84.57-42.01ZM1612.62,4903.88c-.81,4.16-1.99,8.72-5.39,10.97-2.1,1.39-4.69,1.63-7.17,1.65-29.54.24-53.9-23.79-82.1-33.1-14.83-4.89-30.87-5.62-46.04-2.08-19.97,4.66-30.56-6.27-35.69-27.35-2.41-9.93-.21-21.86,7.76-27.67,4.31-3.13,9.66-4.1,14.82-4.96,44.71-7.43,89.81-12.31,135.02-14.61,15.12-.77,22.17,19.58,23.03,35.59,1.1,20.6-.33,41.36-4.25,61.57ZM1852.44,4607.22c-11.86,20.85-18.04,44.83-29.28,66.06-11.24,21.24-30,40.69-52.97,41.6-19.96.8-58.51-4.46-77.49-18.96-2.14-1.64-4.04-3.39-5.63-5.27-16.29-19.26-15.56-50.28-15.06-73.5.51-23.31,3.32-50.88,22.58-62.17,6.23-3.65,13.41-4.98,20.45-6.11,27.58-4.45,55.44-6.94,83.33-7.43,14.75-.26,30.11.18,43.29,7.22,13.18,7.04,23.46,22.52,20.47,37.82-1.49,7.6-5.91,14.1-9.69,20.74ZM3246.98,1715.85c.78-.96,1.6-1.88,2.47-2.76,10.9-11.06,32.95-13.62,47.52-15.71,25.06-3.59,54.31,5.71,64.48,32.11,6.65,17.25,5.84,36.58,4.57,55.16-1.39,20.22,6.19,56.33-17.39,65.7-8.48,3.37-22.98,1.91-31.98,2.84-15.84,1.63-31.81,1.62-47.64-.17-6.01-.68-12.43-1.83-16.73-6.32-3.78-3.95-5.18-9.71-6.42-15.17-7.84-34.44-24.12-84.7,1.11-115.68ZM2768.33,1627.55c-3.32,1.58-7.17.85-10.72.04-76.74-17.58-147.52-63.04-197.72-126.98-18.04-22.99-29.36-50.94-39.91-78.67-29.87-78.5-55.61-158.76-77.07-240.28-5.26-19.98-12.95-41.35-15.36-61.94-1.78-15.2.4-32.14.61-47.58.55-38.81,8.35-77.53,23.09-113.08,10.02-24.17,21.59-48.04,27.74-73.75,2.68-11.23,3.74-22.6,6.92-33.66,2.09-7.29,7.36-14.77,4.01-22.9-12.45-30.25-80.51,38.59-93.31,49.74-27.66,24.11-54.55,49.35-78.79,77.34-37.84,43.71-67.27,85.28-126.53,91.65-37.91,4.07-76.26,3.6-114.07-1.41-10.9-1.44-22.93-3.98-29.41-13.38-4.47-6.48-5.3-14.92-5.98-22.91-1.9-22.29-3.8-44.59-5.7-66.88-1.32-15.51-2.59-31.58,2.23-46.29,8.61-26.33,33.95-41.53,57.3-54.37,27.94-15.37,55.88-30.74,83.82-46.11,5.72-3.15,11.45-6.3,17.42-8.89,20.24-8.78,42.44-10.79,63.64-16.46,31.48-8.42,60.3-24.7,90.58-36.67,28.35-11.21,57.45-11.7,85.74-21.52,17.78-6.17,20.38-40.49,19.68-58.14-.69-17.36-10.21-17.65-26.15-17.26-23.65.58-47.09-5.38-69.34-13.91-26.75-10.25-52.07-24.19-77.31-38.09-35.33-19.46-67.83-43.85-100.34-68.06-13.41-9.98-26.42-15.87-35.29-30.64-9.38-15.61-16.38-33.17-21.19-50.93-2.97-10.94-5.09-22.42-3.53-33.68,2.26-16.37,25.5-53.45,40.34-59.42,33.24-13.36,66.63-26.39,99.75-40.09,12.13-5.02,23.48-14.71,36.69-16.45,12.06-1.58,25.7,2.7,37.93,3.96,31.81,3.29,64.11,7.85,95.52,13.34,24.68,4.31,44.25,28.55,58.43,49.4,15.79,23.22,27.38,49.29,38.88,75.18,14.71,33.13,29.46,66.4,39.63,101.4,3.58,12.32,6.6,24.93,7.24,37.81,1.3,25.91-7.04,51.21-16.41,75.18-9.37,23.97-20,47.8-23.7,73.45-3.7,25.65.65,54.12,17.79,72.64,9.84,10.63,22.99,17.1,36.22,22.12,17.15,6.49,56.39,14.39,70.5-3.09,6.9-8.55,8.29-20.86,6.44-31.94-1.85-11.08-6.54-21.35-10.66-31.73-24.18-60.86-27.72-117.16,3.33-175.79,32.3-61.01,78.27-113.84,133.05-152.91,16.56-11.81,40.68-9.91,55.41,4.37,15.11,14.65,13.51,37.78,15.75,57.98,2.85,25.72,3.56,51.92-1.22,77.44-3.65,19.49-10.38,38.15-17.09,56.71-8.01,22.18-16.42,43.95-26.66,65.08-10.28,21.2-24.55,40.13-33.94,61.78-11.54,26.61-16.45,48.32,6.25,69.64,11.36,10.67,27.01,14.3,40.6,20.51,14.58,6.66,25.86,18.12,38.13,28.69,47.87,41.25,95.45,82.88,142.73,124.89,6.43,5.71,16.39,14.9,22.32,25.06,9.85,16.95-22.07,20.27-32.2,23.43-18.35,5.73-36.92,10.71-55.64,14.89-29.57,6.62-52.61,5.63-82.02-3.01-40.56-11.92-77.81-33.27-113.58-56.34-18.08-11.67-35.85-23.86-53.82-35.72-11.92-7.87-33.58-29.33-48.08-22.22-12.89,6.33-12.04,25.76-9.13,40.48,13.83,69.96,27.82,139.89,41.98,209.78,4.72,23.31,9.46,46.63,15.02,69.73,9.79,40.72,22.07,80.72,32.7,121.2,20.42,77.77,34.71,157.35,42.68,237.63.76,7.7.43,17.44-6.23,20.61ZM3683.62,4544.65c8.46,22.62,7.46,46.29,9.39,70.1.88,10.81,6.85,19.31-.31,28.86-10.35,13.8-30.21,5.37-42.83,1.44-24.02-7.48-49.72-8.19-73.2-17.38-34.79-13.61-62.27-46.48-70.83-84.7-5.92-26.44-11.85-52.88-17.77-79.32-3.09-13.79-8.34-29.99-21.34-33.31-16.91-4.31-34.73-8.7-52.11-11.92-22.77-4.22-46.11-4.58-68.7-9.77-9.6-2.2-19.2-4.4-28.8-6.61-23.84-5.47-47.67-10.94-71.51-16.41-23.2-5.32-39.78-16.43-60.85-26.1-18.25-8.37-32.82-12.6-41.03-34.33-7.09-18.78-6.64-39.73-5-59.88,1.64-20.16,4.37-40.51,1.47-60.5-2.6-17.92-9.62-34.78-17.47-50.9-13.13-26.98-28.63-56.2-48.26-78.56-6.98-7.95-16.51-11.69-23.28-19.57-9.53-11.09-13.57-29.01-15.44-43.42-2.49-19.32-1.08-38.94.07-58.4,2.69-45.51,3.96-91.11,3.8-136.7-.14-40.88,1.62-83.57-7.24-123.57-15.9-71.75-59.41-129.8-100.87-187.05-19.44-26.83-31.96-60.5-51.95-86.06-22.68-29-48.04-57.69-57.72-93.93-12.18-45.59,11.56-102.48,61.55-96.85,2.42.27,4.99.75,6.76,2.53.33.33.62.7.87,1.08,1.61,2.49,1.66,5.95,1.74,9.07.69,24.03,12.16,47.47,30.31,61.91,17.04,13.56,46.05,21.08,67.41,17.42,23.63-4.06,38.11-35.73,57.96-48.21,9.22-5.8,20.83-10.46,30.37-5.27,11.04,6.01,13.16,21.46,13.92,34.58,4.51,77.75,8.08,154.21,22.31,230.94,10.01,54.02,24,106.54,36.44,159.91,15.34,65.85,42.09,130.69,68.05,192.73,26.25,62.72,67.74,122.32,105.77,178.05,24.71,31.82,58.98,46.3,70.97,51.36,12.73,2.73,25.34,5.64,56.38,12.8,31.2,8.58,58.85,25.14,86.5,41.71,24.07,25.53,33.65,57.61,36.72,67.92,1.52,11.17-1.11,21.61-3.88,32.59-6.84,27.11.63,58.46,7.76,85.92,10.83,41.72,31.56,79.66,52.07,117.07,4.77,8.7,9.57,17.45,15.73,25.1,12.7,15.79,28.72,26.01,36.06,45.62Z" fill="#978b7e"/>
    <path d="M436.54,878.78c9.67,104.78,23.27,209.13,39.85,312.92,46.65,291.91,130.33,579.95,199.5,867.19,13.15,54.63,21.37,108.97,37.99,161.96,24.15,76.98,38.09,193.61-20.65,257.18-20.74,22.45-51.4,33.42-74.69,53.93-58.5,51.52-117.77,102.75-168.22,163.37-38.64,46.43-71.83,98.95-93.14,156.79-22.09,59.96-24.02,123.75-33.47,186.71-5.79,38.59-21.8,74.4-31.92,112.01-10.57,39.29-18.67,79.32-24.23,119.75-8.77,63.78-4.95,125.11-14.51,188.55-9.16,60.77,22.61,83.42,76.46,91.73,30.8,4.75,61.74,8.43,92.77,11.02,25.19,2.11,62.26,12.08,84.81-3.17,6.43-4.35,11.72-10.31,16.86-16.27,61.43-71.2,111.87-152.02,159.98-233.63,24.57-41.67,48.53-83.74,73.18-125.36,12.1-20.44,31.09-72.24,55.58-78.6,15.61-4.05,30.11,10.76,36.91,26.18,9.03,20.47,20.23,41.1,27.06,61.76,7.93,23.99,8.88,51.21,13.76,76.05,10.24,52.06,14.35,116.72-20.6,160.29-11.31,14.11-26.38,24.12-40.81,34.56-97.49,70.57-176.03,180.14-225.97,293.76-39.07,88.87-69.69,186.59-64.48,285.86,3.26,62.03,12.44,118.84,41.64,174.18,10.9,20.66,23.79,40.22,32.73,61.91,20.4,49.53,30.26,94.36,61.6,138.56,14.97,21.11,34.14,41.41,59.1,48.21,35.27,9.61,55.26-32.53,71.29-60.5,51.19-89.32,98.41-185.98,161.12-266.78,41.14-53,65.13-116.95,111.57-167.29,25.93-28.11,55.63-53.46,73.71-87.78,11.15-21.16,17.8-45.58,33.76-62.94,26.92-29.3,59.74-8.45,87.18,7.37,96.31,55.55,177.39,139.17,278,185.39,37.27,17.12,80.55,11.21,119.12-2.3,7.88-2.76,15.78-5.89,22.49-11.06,17.56-13.55,23.58-38.04,27.52-60.67,8.37-48.03,12.78-96.75,14.75-145.52,1.62-39.95,12-75.4,9.85-115.72-2.78-52.01-10.84-105.5,3.75-155.25,2.69-9.17,6.73-18.83,14.79-23.22,8.26-4.51,18.23-2.17,27.21.36,27.52,7.76,55.51,21.01,83.41,26.34,20.69,3.96,39.78,4.1,60.58,10.75,52.77,16.89,102.92,41.43,154.19,62.63,13.94,5.76,28.01,11.56,42.78,14.03,17.56,2.94,35.47,1.07,53.16-.8,73.46-7.78,146.92-15.55,220.38-23.33,12.12-1.28,24.86-2.81,34.73-10.36,15.44-11.8,19.06-34.32,19.75-54.47,2.07-60.57-11.05-120.26-29.98-177.05-15-45.01-32.34-122.07-72.05-148.95-56.36-38.14-125.64-45.9-191.81-56.16-87.07-13.51-173.31-33.03-258-58.39-51.68-15.48-103.36-30.96-155.04-46.44-15.89-4.76-31.78-9.52-47.85-13.52-108.55-27-214.96-20.11-309.64,46.11-48.38,33.84-93.93,73.56-147.69,96.56-7.62,3.26-15.8,6.22-23.91,4.82-6.7-1.15-12.6-5.16-18.3-9.07-23.85-16.39-48.29-33.38-64.71-57.96-28.61-42.83-12.71-98.92-1.75-145.51,12.85-54.61,26.57-139.92,76.43-170.46,38.15-23.37,76.86-18.71,112.23,7.55,36.66,27.21,75.8,54.72,107.33,88.94,18.53,20.11,32.15,15.89,55.86,13.11,40.96-4.81,77.84-44.57,108.73-70.37,36.42-30.41,71.88-62.15,105.48-96.03,9.34-9.42,18.53-18.99,27.69-28.61,30.68-32.21,61.16-65.08,85.39-102.95,24.23-37.88,42.12-81.37,44.91-127.03,5.78-94.51,6.3-189.29,6.82-284,.19-35.08.21-71.17-12.01-103.77-3.51-9.37-8.15-18.52-15.23-25.26-7.14-6.8-16.28-10.69-25.31-14.15-51.28-19.63-105.9-29.43-160.42-28.77-5.53.07-11.07.24-16.52,1.21-31.36,5.57-53.12,35.37-70.21,63.76-27.2,45.19-48.62,93.62-74.49,139.21-18.43,32.49-30.78,58.23-41.92,93.74-9.84,31.38-24.97,60.45-42.21,87.91-33.47,53.32-74.89,100.65-105.35,156.16-5.73,10.44-12.06,21.48-22.39,26.61-14.97,7.43-34.68,4.69-50.83,9.62-18.83,5.76-36.81,12.14-56.26,15.6-39.38,7.01-79.56,7.49-119.39,7.38-62.14-.17-127.96-20.29-130.35-97.89-1.57-56.53,10-117.06,24.6-171.15,6.86-25.43,15.16-50.45,20.61-76.25,14.35-67.89,5.82-141.99.63-210.75-9.84-130.47-26.69-260.34-50.44-388.78-21.16-114.43-25.78-230.4-39.02-346.33-7.61-66.62-15.22-133.25-22.83-199.87-2.81-24.63-5.63-49.29-10.37-73.59-29.11-149.36-16.79-301.05-28.35-451.93-11.76-153.53-23.87-307.99-34.74-462.01-.74-10.55-1.57-21.18-2.96-31.67-126.93,15.97-230.23,104.35-349.49,143.49-4.26,44.72-7.67,89.53-9.84,134.42-7.92,164.08-2.37,328.69,12.71,492.14Z" fill="#978b7e"/>
    <path d="M1494.33,4673.07c13.13-19.07,11.14-47-1.7-66.29-13.66-20.54-42.26-31.51-62.12-17.77-12.93,8.94-19.18,25.78-20.75,42.06-4.44,45.91,54.84,85.2,84.57,42.01Z" fill="#978b7e"/>
    <path d="M1593.84,4806.72c-45.21,2.3-90.3,7.18-135.02,14.61-5.16.86-10.51,1.83-14.82,4.96-7.98,5.8-10.18,17.74-7.76,27.67,5.13,21.08,15.72,32.01,35.69,27.35,15.17-3.54,31.21-2.81,46.04,2.08,28.2,9.31,52.56,33.35,82.1,33.1,2.48-.02,5.07-.25,7.17-1.65,3.4-2.25,4.59-6.81,5.39-10.97,3.92-20.21,5.36-40.97,4.25-61.57-.86-16.01-7.91-36.35-23.03-35.59Z" fill="#978b7e"/>
    <path d="M1841.66,4548.65c-13.18-7.04-28.53-7.48-43.29-7.22-27.89.49-55.75,2.98-83.33,7.43-7.04,1.14-14.22,2.46-20.45,6.11-19.25,11.29-22.07,38.87-22.58,62.17-.51,23.21-1.24,54.24,15.06,73.5,1.59,1.88,3.48,3.63,5.63,5.27,18.98,14.5,57.53,19.76,77.49,18.96,22.97-.92,41.73-20.37,52.97-41.6,11.24-21.24,17.42-45.21,29.28-66.06,3.78-6.64,8.2-13.14,9.69-20.74,2.99-15.3-7.29-30.79-20.47-37.82Z" fill="#978b7e"/>
    <path d="M1434.39,485.04c-26.27-14.03-59.45-8.12-83.5,9.82-44.01,32.84-55.67,105.27-24.44,151.7,49.9.4,87.26-23.75,117.85-55.3,7.88-8.13,15.45-16.95,19.9-27.61,11.89-28.5-3.55-64.6-29.82-78.63Z" fill="#978b7e"/>
    <path d="M3252.29,1846.7c4.3,4.49,10.72,5.64,16.73,6.32,15.83,1.79,31.8,1.8,47.64.17,9-.93,23.5.53,31.98-2.84,23.58-9.38,16-45.48,17.39-65.7,1.28-18.58,2.08-37.91-4.57-55.16-10.17-26.4-39.43-35.7-64.48-32.11-14.58,2.09-36.62,4.65-47.52,15.71-.87.88-1.69,1.8-2.47,2.76-25.23,30.97-8.95,81.23-1.11,115.68,1.24,5.46,2.64,11.23,6.42,15.17Z" fill="#978b7e"/>
    <path d="M2731.89,1369.3c-10.63-40.48-22.91-80.48-32.7-121.2-5.55-23.11-10.29-46.42-15.02-69.73-14.16-69.89-28.15-139.82-41.98-209.78-2.91-14.73-3.76-34.16,9.13-40.48,14.5-7.11,36.16,14.35,48.08,22.22,17.97,11.86,35.74,24.06,53.82,35.72,35.76,23.07,73.01,44.43,113.58,56.34,29.41,8.64,52.45,9.63,82.02,3.01,18.72-4.19,37.29-9.16,55.64-14.89,10.13-3.17,42.05-6.48,32.2-23.43-5.94-10.16-15.9-19.35-22.32-25.06-47.27-42.01-94.85-83.64-142.73-124.89-12.27-10.57-23.55-22.03-38.13-28.69-13.58-6.21-29.23-9.84-40.6-20.51-22.71-21.32-17.8-43.03-6.25-69.64,9.39-21.65,23.66-40.58,33.94-61.78,10.24-21.13,18.65-42.9,26.66-65.08,6.7-18.56,13.44-37.22,17.09-56.71,4.78-25.52,4.07-51.72,1.22-77.44-2.24-20.2-.65-43.33-15.75-57.98-14.73-14.28-38.85-16.18-55.41-4.37-54.78,39.07-100.75,91.9-133.05,152.91-31.04,58.63-27.5,114.93-3.33,175.79,4.12,10.37,8.8,20.65,10.66,31.73,1.85,11.08.46,23.39-6.44,31.94-14.11,17.48-53.35,9.58-70.5,3.09-13.24-5.01-26.38-11.48-36.22-22.12-17.15-18.52-21.5-47-17.79-72.64,3.7-25.65,14.33-49.47,23.7-73.45,9.37-23.97,17.71-49.27,16.41-75.18-.64-12.88-3.66-25.49-7.24-37.81-10.17-34.99-24.93-68.26-39.63-101.4-11.5-25.9-23.08-51.96-38.88-75.18-14.18-20.85-33.75-45.09-58.43-49.4-31.41-5.49-63.72-10.05-95.52-13.34-12.23-1.26-25.87-5.54-37.93-3.96-13.2,1.73-24.56,11.43-36.69,16.45-33.12,13.71-66.51,26.73-99.75,40.09-14.84,5.97-38.08,43.05-40.34,59.42-1.56,11.26.56,22.74,3.53,33.68,4.82,17.75,11.81,35.31,21.19,50.93,8.87,14.77,21.88,20.66,35.29,30.64,32.51,24.21,65.01,48.6,100.34,68.06,25.24,13.9,50.56,27.84,77.31,38.09,22.25,8.53,45.68,14.49,69.34,13.91,15.94-.39,25.46-.1,26.15,17.26.7,17.65-1.9,51.97-19.68,58.14-28.29,9.81-57.39,10.3-85.74,21.52-30.28,11.98-59.1,28.25-90.58,36.67-21.2,5.68-43.4,7.68-63.64,16.46-5.97,2.59-11.7,5.74-17.42,8.89-27.94,15.37-55.88,30.74-83.82,46.11-23.35,12.84-48.69,28.04-57.3,54.37-4.82,14.71-3.55,30.78-2.23,46.29,1.9,22.29,3.8,44.59,5.7,66.88.68,8,1.51,16.43,5.98,22.91,6.48,9.4,18.5,11.94,29.41,13.38,37.81,5.01,76.16,5.48,114.07,1.41,59.26-6.37,88.68-47.94,126.53-91.65,24.23-28,51.12-53.24,78.79-77.34,12.8-11.15,80.86-79.99,93.31-49.74,3.35,8.13-1.92,15.61-4.01,22.9-3.17,11.07-4.23,22.44-6.92,33.66-6.15,25.71-17.72,49.59-27.74,73.75-14.73,35.55-22.54,74.27-23.09,113.08-.22,15.44-2.39,32.37-.61,47.58,2.41,20.6,10.1,41.96,15.36,61.94,21.46,81.53,47.2,161.79,77.07,240.28,10.55,27.73,21.87,55.68,39.91,78.67,50.19,63.94,120.98,109.4,197.72,126.98,3.56.81,7.4,1.54,10.72-.04,6.67-3.17,7-12.92,6.23-20.61-7.97-80.28-22.26-159.86-42.68-237.63Z" fill="#978b7e"/>
    <path d="M5433.83,2774.77c-137.92-127.95-290.88-232.05-437.17-346.9-29.12-22.86-61.28-51.66-60.7-90.05.67-44.38,43.68-72.41,80.6-93.41,106.44-60.54,206.55-133.54,297.92-217.26,0-12.43,52.47-58.08,60.54-77.93,20.05-49.34,25.99-111.7,38.08-163.96,5.64-24.36,6.46-58.41-16.23-65.56-10.59-3.33-21.76,1.55-31.84,6.33-80.66,38.27-161.31,76.53-241.97,114.79-32.11,15.23-154.21,103.59-168.67,30.12-4.23-21.53,4.2-43.33,12.45-63.51,52.03-127.19,104.17-254.62,167.81-375.74,59.67-113.55,129.68-222.09,172.21-343.99,36.63-105,63.7-243.13-.73-340.17-3.82-5.76-8.24-11.73-14.6-13.8-9.15-2.97-18.51,3.1-26.36,8.9-120.94,89.19-241.87,178.39-362.81,267.58-26.93,19.86-56.48,43.64-66.14,78.73-3.03,11.02-3.48,22.62-3.91,34.09-1.68,44.8-7.81,89.07-7.81,134.38,0,69.8-2.42,138.3-5.02,207.71-1.31,34.91,8.65,74.1-17.15,102.8-22.07,24.56-65.62,20.52-83.32-7.73,0-25.52-8.7-54.1-12.65-79.35-4.31-27.56-8.54-55.14-12.71-82.73-8.33-55.18-16.4-110.41-24.33-165.65-15.33-106.85-31.72-213-37.92-320.87-.45-7.76-.85-15.53-1.2-23.29-1-21.76-1.62-43.77,2.36-65.14,1.3-7,3.27-14.24,8.01-19.31,11.7-12.55,40.48-9.3,55.69-9.16,25.23.25,50.44,1.81,75.51,4.73,30,3.49,70.51,1.81,77.56-29.27,1.38-6.09,1.04-12.44.7-18.69-5.78-104.17-11.56-208.33-17.34-312.5-18.4,1.28-36.78,3.84-55.05,6.58-103.68,15.52-207.37,31.04-311.05,46.57-16.82,2.52-34.3,4.99-50.52-.35-4.98-1.64-9.72-3.98-14.47-6.28-28.59-13.83-57.82-26.16-87.57-36.91-66.25-23.95-137.76-40.1-206.1-24.03-53.04,12.47-100.37,45.58-135.14,89.39-32,40.31-65.88,104.84-62.36,159.46.5,7.71,4.58,15.69,11.51,18.13,2.76.97,5.72,1,8.63,1.02,26.89.2,53.77.39,80.66.59,59.55.43,119.39.85,178.27-8.6,9.1-1.46,18.59-3.35,25.76-9.46,14.62-12.45,13.54-36.02,20.97-54.28,6.03-14.84,27.81-14.52,41.07-14.58,44-.22,90.03,2.41,131.25,20.3,15.6,6.77,30.51,15.46,43.74,26.52,6.6,5.51,12.78,11.62,18.16,18.45,40.35,51.21,38.03,128.89,28.18,190.53-4.06,25.37-8.36,45.12-24.08,64.99-13.98,17.68-30.52,33.09-48.85,45.55-28.21,19.18-55.55,19.86-87.96,11.02-46.72-12.74-101.65-49.21-112.45-102.62-3.6-17.83-2.52-36.83-9.06-53.69-1.51-3.88-3.56-7.77-6.95-9.92-2.67-1.69-5.85-2.13-8.94-2.52-26.8-3.44-52.78-7.38-79.7-8.83-62.05-3.34-127.23-8.45-188.39,5.11-6.55,1.45-13.44,3.28-18.13,8.33-3.59,3.86-5.42,9.14-6.99,14.29-18.72,61.38-17.15,134.72-17.15,198.78-.76,15.26-1.51,30.52-2.15,45.79-.95,22.84-.45,45.12,1.4,67.79,1.57,19.29-.78,39.58,8.92,57.23,14.4,26.2,54.52,46.87,80.59,56.53,33.33,12.35,68.91,15.95,102.33,28.02,9.29,3.36,18.39,7.37,27.02,12.33,8.86,5.08,19.02,6.88,28.96,8.61,7.35,1.28,14.7,2.55,22.05,3.83,19.62,3.41,40.05,7.16,56.08,19.63,64.31,50.04-32.88,138.29-73.39,162.15-46.29,24.52-89.78,53.29-133.1,83.32-19.9,13.79-50.59,27.23-60.57,51.51-7.89,19.19-6.14,33.34-4.02,52.83,2.64,24.17,2.2,49.15,3.63,73.46,2.46,41.62,5.57,83.19,9.35,124.7,3.41,37.38,3.7,75.16,8.42,112.63,3.28,27.5,1.42,55.38,3.7,83.31.63,7.68,2.73,17.13,9.82,18.84,14.3,3.42,45.01-35.88,53.76-45.88,25.74-29.4,51.18-59.12,76.77-88.68,23.07-26.65,46.45-53.77,61.62-86.16,4.9-10.47,13.02-32.47,25.96-34.5,16.29-2.56,22.26,22.21,23.12,35.04,2.7,40.13-21.62,84.99-40,118.81-24.38,44.84-57.91,83.23-92.24,120.05-15.22,16.32-30.65,32.42-46.29,48.29-17.19,17.44-35.47,36.09-40.87,60.64-3.26,14.82-1.42,30.31.44,45.4,9.57,77.81,19.14,155.62,28.72,233.43,4.53,36.87,5.39,57.59,8.63,94.61,1.14,13.05,4.07,28.7,15.67,33.23,31.74-7.99,62.95-18.35,93.32-30.96,38.46-15.97,58.04-60.26,74.2-100.52,22.84-56.92,39.99-116.25,63.37-173.12,28.41-69.08,64.7-133.75,94.8-201.67,32.01-72.23,62.83-145.99,98.56-216.26,4.22-9.01,8.82-18.45,16.83-23.84,8.02-5.39,20.5-4.65,25.11,4.14,1.58,3.01,2.05,6.51,2.37,9.94,3.08,32.82-4.75,65.56-12.52,97.5-52.37,215.2-104.74,430.4-157.11,645.6-20.38,83.73-41.99,167.41-72.35,247.79-31.43,83.21-76.04,158-115.77,236.61-6.48,12.82-12.81,26.11-14.63,40.52-.59,4.65-.7,9.36-.75,14.05-.67,63.72,9.26,127.55,29.18,187.67,4.11,12.41,8.9,25.07,17.77,34.27,10.67,11.05,26.1,15.69,41.01,15.89,17.35.23,33.75-4.46,51-4.05,22.19.53,45.03-2.97,67.18-4.57,21.1-1.53,21.93-35.03,22.47-51.14,1.03-31.26,1.27-62.44,2.83-93.77.26-5.22.58-10.67,3.08-15.17,2.86-5.16,8.09-8.23,13.08-11.05,19.5-11.04,37.77-19.1,58.41-26.95,15.14-5.76,24.75,17.08,26.36,34.03,0,25.06,4.88,51.2,7.26,76.14,2.09,21.93-9.76,64.79,18.92,70.45,11.1,2.19,22.43-2.36,33.28-3.59,12.31-1.4,24.67-.4,37.01-.94,13.71-.6,17.94-19.76,18.2-34.3,0-35.08,5.11-72.14,2.02-107.01-5.92-66.73,16.97-53.02,70.77-57.2,16.59-1.29,20.43,23.89,19.23,41.46-2.7,39.48,1.34,79.46,11.85,117.45,1.49,5.39,3.34,11.09,7.6,14.44,6.58,5.17,15.81,2.63,23.57-.15,55.5-19.84,144.93-31.81,155.83-104.91,4.76-31.92,9.52-64.42,5.1-96.39-4.42-31.97-19.53-63.91-46.02-79.94-12.13-7.34-25.88-10.97-38.99-16.1-34.35-13.46-61.67-38.81-92.57-57.9-32.83-20.28-60.86-40.04-82.92-74.24-3.07-4.76-6.07-9.99-6.07-15.75-.02-11.11,10.53-18.55,20.01-23.28,22.17-11.06,45.57-19.05,68.9-27.02,32.46-11.08,65.16-22.22,99.01-26.62,73.73-9.6,147.41,13.19,218.58,35.72,81.23,25.71,162.47,51.43,243.7,77.15,71.33,22.58,147.49,17.52,221.77,12.25,11.79-.84,23.82-1.73,34.72-6.55,3.55-1.56,6.81-3.51,9.88-5.7-2.25-16.2-5.45-32.19-10.86-47.54-18.44-52.38-58.4-92.52-98.1-129.36Z" fill="#978b7e"/>
    <path d="M4781.64,5365.98c-6.29-15.18-14.41-29.42-21.84-44.02-35.19-69.22-52.05-139.81-57.01-218-2.54-39.97-4.91-80.69,4.09-119.61,13.29-57.45,50.44-105.91,93.57-143.49,20.26-17.65,43.35-34.3,57.77-58.07,16.35-26.94,15.49-59.87,15.05-90.82-1.11-77.05-2.8-156.86-34.1-226.42-8.68-19.29-21.23-38.9-40.59-44.91-14.86-4.61-30.79-.25-45.44,5.03-34.45,12.41-67.59,30.63-98.34,50.78-25.75,16.88-31.08,42.18-39.12,72.34-10.84,40.7-30.61,78.7-57.3,110.15-9.83,11.59-20.93,22.53-34.56,28.39-13.63,5.86-30.27,5.81-42.1-3.44-12.81-10.03-17.24-27.88-20.77-44.33-19-88.52-38.33-176.75-57.89-265.12-6.21-28.05-11.59-56.35-14.61-85-2.82-26.79.28-54-2.59-80.47-.81-7.48,5.85-13.48,12.38-16.47,31.38-14.41,68.55,7.72,87.17,38.12,30.54,49.86,32.26,113.03,63.34,163.34,4.67,7.56,10.59,15.43,19,16.95,4.29.77,8.67-.25,12.87-1.43,40.6-11.43,76.7-38.48,100.83-74.85,27.58-41.59,26.06-69.72,14.66-118.32-9.85-42.02-10.53-91.89-36.5-127.52-23.38-32.09-54.16-67.92-90.57-83-54.1-22.4-114.43-.06-169.26,20.24-54.83,20.3-117.93,37.97-168.65,8-25.2-14.89-43.58-39.72-61.25-63.89-1.29-1.77-2.58-3.53-3.87-5.3-3.25-4.43-6.49-8.86-9.74-13.3-27.93-38.13-55.85-76.27-83.75-114.43-23.42-32.02-50.97-62.05-70.39-96.28-7.31-12.88-18-24.64-26.7-36.54-17.83-24.41-35.66-48.82-53.5-73.22-14.76-20.2-29.51-40.39-44.26-60.59-30.16-41.29-60.33-82.57-90.51-123.85-14.89-20.36-30.44-41.33-51.93-53.38-21.49-12.04-50.73-12.64-67.86,5.64-21.09,22.51-14.71,59.69-6.85,90.29,33.63,131.02,67.27,262.04,100.9,393.06,17.03,66.32,34.05,132.64,51.08,198.96,6.87,26.76,14.46,52.85,17.46,80.35,3.33,30.5-3.86,60.19-.95,90.32,3.32,34.43,26.82,62.5,50.39,86.47,25.75,26.19,53.04,50.69,81.66,73.3,16.34,12.91,24.92,35.98,21.29,57.23-2.02,11.81-7.4,22.62-11.47,33.82-17.01,46.77-8.3,79.64,18.06,120.06,18.58,28.49,35.8,56.75,56.07,84.48,12.08,16.52,24.16,33.04,35.33,50.26,13.64,21.03,25.87,43.04,38.09,65.03,24.51,44.11,49.37,87.65,74.79,131.22,12.91,22.14,26.25,47.38,20.73,72.74-2.04,9.36-6.53,17.87-10.98,26.24-14.71,27.71-29.52,55.57-48.41,80.28-34.65,45.31-45.87,108.89-31.16,164.82,7.65,29.09,16.32,54.34,34.82,77.87,20.02,25.48,44.58,46.49,68.93,67.09,25.05,21.2,37.41,54.85,45.71,87.66,3.94,15.6,6.6,34.55,11.22,51.97,167.25-5.6,334.54-9.32,501.83-6.45,13.23-70.61,22.73-144.77-4.28-210.01Z" fill="#978b7e"/>
    <path d="M3631.83,4473.92c-20.52-37.41-41.25-75.35-52.07-117.07-7.13-27.46-14.6-58.81-7.76-85.92,2.77-10.99,5.41-21.42,3.88-32.59-3.08-10.31-12.66-42.39-36.72-67.92-27.65-16.56-55.29-33.13-86.5-41.71-31.04-7.16-43.65-10.07-56.38-12.8-11.99-5.06-46.26-19.54-70.97-51.36-38.03-55.73-79.52-115.32-105.77-178.05-25.96-62.03-52.71-126.88-68.05-192.73-12.44-53.37-26.42-105.9-36.44-159.91-14.23-76.74-17.79-153.19-22.31-230.94-.76-13.12-2.88-28.58-13.92-34.58-9.54-5.19-21.15-.52-30.37,5.27-19.85,12.48-34.34,44.15-57.96,48.21-21.36,3.67-50.37-3.86-67.41-17.42-18.15-14.44-29.63-37.88-30.31-61.91-.09-3.12-.13-6.59-1.74-9.07-.25-.39-.54-.75-.87-1.08-1.76-1.78-4.34-2.26-6.76-2.53-50-5.64-73.73,51.26-61.55,96.85,9.68,36.24,35.04,64.93,57.72,93.93,19.99,25.56,32.52,59.22,51.95,86.06,41.46,57.25,84.97,115.3,100.87,187.05,8.87,40,7.1,82.69,7.24,123.57.16,45.59-1.11,91.2-3.8,136.7-1.15,19.46-2.56,39.08-.07,58.4,1.86,14.41,5.91,32.33,15.44,43.42,6.77,7.88,16.3,11.61,23.28,19.57,19.63,22.36,35.13,51.58,48.26,78.56,7.84,16.12,14.87,32.98,17.47,50.9,2.9,19.99.18,40.35-1.47,60.5-1.64,20.15-2.09,41.1,5,59.88,8.21,21.73,22.78,25.97,41.03,34.33,21.07,9.66,37.66,20.77,60.85,26.1,23.84,5.47,47.68,10.94,71.51,16.41,9.6,2.2,19.2,4.41,28.8,6.61,22.59,5.19,45.93,5.54,68.7,9.77,17.38,3.23,35.2,7.61,52.11,11.92,13,3.32,18.26,19.53,21.34,33.31,5.92,26.44,11.85,52.88,17.77,79.32,8.56,38.22,36.04,71.08,70.83,84.7,23.48,9.19,49.18,9.9,73.2,17.38,12.62,3.93,32.48,12.36,42.83-1.44,7.16-9.55,1.18-18.05.31-28.86-1.93-23.81-.94-47.48-9.39-70.1-7.33-19.61-23.36-29.84-36.06-45.62-6.16-7.66-10.97-16.41-15.73-25.1Z" fill="#978b7e"/>
    <path d="M3881.01,5551.65c-11.74-9.38-26.42-14.37-37.17-25.01-33.94-33.57-7.36-87.56,18.74-115.08,31.57-33.28,74.21-62.82,81.53-111.54,7.8-51.87-9.99-95.26-31.37-140.54-25.33-45.51-54.61-88.75-80.53-133.87-20.51-35.71-50.88-63.57-59.3-106.74-8.06-41.36,4.24-77.15-13.22-117.41-2.24-5.17-4.84-10.23-8.41-14.48-8.95-10.64-22.7-14.84-35.71-18.45-44.08-12.21-88.48-23.12-133.14-32.72-17.51-3.76-35.18-7.37-51.73-14.51-37.93-16.38-66.6-49.74-99.93-74.96-36.98-27.99-80.5-46.2-125.56-52.53-12.7-1.78-25.54-2.1-38.35-2.42-65.1-1.6-130.21-3.21-195.31-4.82-20.12-.5-43.72.78-55.12,18.35-6.79,10.46-7.17,24.18-5.41,36.73,7.55,53.68,47.67,94.66,85.5,131.27,28.37,27.45,60.21,51.01,88.29,78.46,19.16,18.72,32.67,38.45,55.05,53.92,50.59,34.97,108.35,58,165.05,79.13,65.94,24.58,133.35,45.56,196.88,76.83,31.05,15.29,57.86,37.09,87.59,53.83,56.41,31.75,75.62,69.16,55.46,137.27-13.68,46.23-27.36,92.46-41.04,138.68-12.3,41.59-23.75,83.62-38.51,124.2-12.94,35.59-13.1,71.93-15.76,110.38-.43,6.22-.95,12.46-1.68,18.65,61.32-12.33,122.71-26.44,183.45-35.64,27.08-4.1,54.28-6.96,81.53-9.38-8.77-20.22-19.56-37.8-31.83-47.6Z" fill="#978b7e"/>
  </g>
</svg>