<svg xmlns="http://www.w3.org/2000/svg" viewBox="0 0 4818.9 6803.15">
  <g id="vert_fonce" data-name="vert fonce">
    <g>
      <rect x="1744.54" y="6067.4" width="195.75" height="190.97" fill="#616147"/>
      <rect x="3964.51" y="3290.84" width="162.1" height="554.61" fill="#616147"/>
      <rect x="1386.31" y="1818.95" width="373.69" height="172.67" fill="#616147"/>
      <rect x="1385.31" y="1991.61" width="185.23" height="165.43" fill="#616147"/>
      <rect x="1948.22" y="3077.26" width="2016.29" height="213.57" fill="#616147"/>
      <polygon points="3964.51 3077.26 4819.43 3077.26 4819.43 3290.84 4224.76 3290.84 4224.76 3147.76 3964.51 3147.76 3964.51 3077.26" fill="#616147"/>
      <rect x="3481.61" y="2826.79" width="1337.81" height="250.48" fill="#616147"/>
      <rect x="115.81" y="3047.72" width="712.19" height="214.47" fill="#616147"/>
      <rect x="3593.15" y="2498.78" width="544.12" height="159" fill="#616147"/>
      <rect x="60.01" y="3576.03" width="214.53" height="181.13" fill="#616147"/>
      <polygon points="2971.48 5501.59 2971.48 5342.04 3302.02 5342.04 3302.02 5701.47 3130.29 5701.47 3130.29 6057.72 2958.56 6057.72 2958.56 6209.74 2123.3 6209.74 2123.3 5501.59 2971.48 5501.59" fill="#616147"/>
      <polygon points="3954.95 4214.58 4479.04 4214.58 4479.04 4629.12 4819.1 4629.12 4819.1 5049.66 4310.79 5049.66 4310.79 4915.72 4125.3 4915.72 4125.3 4614.58 3954.95 4614.58 3954.95 4214.58" fill="#616147"/>
      <polygon points="300.71 5890.93 300.71 6039.2 1002.74 6039.2 1002.74 6344.33 1375.14 6344.33 1375.14 6632.55 1817.13 6632.55 1817.13 6258.37 1744.54 6258.37 1744.54 5890.93 300.71 5890.93" fill="#616147"/>
      <polygon points="2477.51 540.16 2477.51 380.61 2808.05 380.61 2808.05 705 2636.32 705 2636.32 1096.29 2464.59 1096.29 2464.59 1248.31 1629.32 1248.31 1629.32 540.16 2477.51 540.16" fill="#616147"/>
      <polygon points="3302.02 6376.78 3302.02 6229.13 3964.24 6229.13 3964.24 6057.72 4310.79 6057.72 4310.79 6229.13 3964.51 6229.13 3964.51 6376.78 3302.02 6376.78" fill="#616147"/>
      <polygon points="3645.49 4753.97 3645.49 5077.49 3944.49 5077.49 3944.49 4915.72 3763.69 4915.72 3763.69 4753.95 3645.49 4753.97" fill="#616147"/>
      <polygon points="4821.68 0 1948.76 0 1948.76 380.61 3161.41 380.61 3161.41 570.63 4224.76 570.63 4224.76 221.73 4818.9 221.73 4821.68 0" fill="#616147"/>
      <rect x="4224.54" y="1182.88" width="232.05" height="144.03" fill="#616147"/>
      <rect x="4642.8" y="1182.88" width="176.62" height="185.63" fill="#616147"/>
      <polygon points="3145.53 1381.44 3640.06 1381.44 3640.06 1828.1 3940.77 1828.1 3940.77 1677.67 4818.37 1677.67 4818.37 2122.71 4045.57 2122.71 4045.57 1991.61 3145.53 1991.61 3145.53 1381.44" fill="#616147"/>
      <rect x="0" y="2006.16" width="303.94" height="346.67" fill="#616147"/>
      <rect x="1628.93" y="4622.7" width="311.36" height="165.61" fill="#616147"/>
      <rect x="1201.13" y="1316.12" width="370.35" height="130.63" fill="#616147"/>
      <polygon points="477.91 1014.6 477.91 1181.45 292.73 1181.45 292.73 1342.59 477.91 1342.59 477.91 1500.89 663.08 1500.89 663.08 1342.59 663.08 1181.45 663.08 1014.6 477.91 1014.6" fill="#616147"/>
      <rect x="663.08" y="1500.89" width="175.58" height="158.29" fill="#616147"/>
      <rect x="838.66" y="1500.89" width="175.58" height="158.29" fill="#616147"/>
      <rect x="652.42" y="1991.61" width="175.58" height="158.29" fill="#616147"/>
      <rect x="1002.74" y="5579.61" width="177.86" height="178.07" fill="#616147"/>
      <rect x="1180.61" y="5757.68" width="177.86" height="332.64" fill="#616147"/>
      <rect x="1201.13" y="1182.88" width="175.58" height="636.07" fill="#616147"/>
    </g>
  </g>
  <g id="vet_clair" data-name="vet clair">
    <g>
      <rect x="1375.14" y="4159.33" width="198.03" height="154.19" fill="#a59a6d"/>
      <rect x="1580.95" y="4326.69" width="179.47" height="157.42" fill="#a59a6d"/>
      <rect x="1003.96" y="3443.96" width="189.4" height="189.62" fill="#a59a6d"/>
      <rect y="3047.72" width="305.64" height="167.02" fill="#a59a6d"/>
      <rect x="0" y="2352.83" width="828" height="480.42" fill="#a59a6d"/>
      <polygon points="1381.95 1817.12 4045.57 1818.95 4045.57 2122.71 4819.43 2122.71 4819.43 2493.47 4580.16 2493.47 4580.16 2826.79 4224.76 2826.79 4224.76 2657.78 1576.25 2657.78 1576.25 2540.42 1386.31 2540.42 1381.95 1817.12" fill="#a59a6d"/>
      <polygon points="0 3214.74 115.81 3214.74 115.81 3262.18 828 3262.18 828 3470.09 1013.95 3470.09 1013.95 3633.58 1193.36 3633.58 1193.36 3937.33 471.9 3937.33 471.9 3906.83 0 3906.83 0 3214.74" fill="#a59a6d"/>
      <rect x="4224.76" y="2827.59" width="281.54" height="240.62" fill="#a59a6d"/>
      <polyline points="1180.61 5579.61 1358.47 5579.61 1358.47 5474.55 1744.54 5474.55 1744.54 5069.8 1016.55 5069.8 1016.55 5230.81 1180.89 5230.81 1180.89 5579.61" fill="#a59a6d"/>
      <polygon points="2123.3 4476.61 2915.56 4476.61 2915.56 4325.49 2120.88 4325.49 2123.3 4476.61" fill="#a59a6d"/>
      <polygon points="2123.3 5501.59 2971.48 5501.59 2971.48 5342.04 3302.02 5342.04 3302.02 5091.23 2123.3 5091.23 2123.3 5501.59" fill="#a59a6d"/>
      <polygon points="1817.13 6258.37 1817.13 6803.15 2327.6 6803.15 2327.6 6632.55 4250.71 6632.55 4250.71 6497.86 4819.1 6497.86 4819.1 6229.13 3964.51 6229.13 3964.51 6376.78 3130.29 6376.78 2958.56 6376.78 2958.56 6209.74 1940.15 6209.74 1940.15 6258.37 1817.13 6258.37" fill="#a59a6d"/>
      <polygon points="4127.64 5077.49 3645.49 5077.49 3645.49 5385.62 3473.75 5385.62 3473.75 5792.22 4131.07 5792.22 4127.64 5077.49" fill="#a59a6d"/>
      <polygon points="1170.63 789.17 2110.87 789.17 2110.87 629.63 2477.29 629.63 2477.29 378.82 1170.63 378.82 1170.63 789.17" fill="#a59a6d"/>
      <polygon points="3640.06 1326.91 3640.06 1828.1 3940.77 1828.1 3940.77 1677.67 4818.37 1677.67 4818.37 1542.47 4642.8 1542.47 4642.8 1182.88 4456.58 1182.88 4456.58 1326.91 3640.06 1326.91" fill="#a59a6d"/>
      <rect x="2808.05" y="380.61" width="937.34" height="406.76" fill="#a59a6d"/>
      <rect x="1922.42" y="1249.48" width="712.21" height="263.91" fill="#a59a6d"/>
      <polyline points="292.73 1342.59 292.73 2006.16 484.07 2006.16 484.07 1818.95 1014.25 1818.95 1014.25 1659.18 663.08 1659.18 663.08 1500.89 477.91 1500.89 477.91 1342.59 292.73 1342.59" fill="#a59a6d"/>
    </g>
  </g>
  <g id="Celadon">
    <rect x="828" y="1991.61" width="186.25" height="158.29" fill="#f9efda"/>
    <g>
      <rect x="4642.8" y="1368.51" width="176.62" height="178.07" fill="#727353"/>
      <g>
        <rect x="1014.25" y="1659.18" width="111.3" height="159.77" fill="#727353"/>
        <rect x="484.07" y="1818.95" width="530.18" height="172.67" fill="#727353"/>
        <rect x="828" y="1991.61" width="186.25" height="541.49" fill="#727353"/>
        <rect x="1181.35" y="4313.52" width="199.57" height="142.15" fill="#727353"/>
        <rect x="1744.54" y="5517.04" width="195.75" height="550.36" fill="#727353"/>
        <rect x="3473.75" y="4753.97" width="171.73" height="631.65" fill="#727353"/>
        <rect x="3302.02" y="5091.23" width="171.73" height="777.7" fill="#727353"/>
        <rect x="2958.56" y="6057.72" width="171.73" height="319.06" fill="#727353"/>
        <rect x="3294.02" y="4504.26" width="179.74" height="249.71" fill="#727353"/>
        <rect x="4126.62" y="3290.84" width="98.15" height="300.71" fill="#727353"/>
        <polygon points="471.9 3937.33 1193.36 3937.33 1193.36 4000.56 1375.14 4000.56 1375.14 4313.52 1181.35 4313.52 1181.35 4476.61 0 4476.61 0 4315.87 152.82 4315.87 152.82 4159.33 471.9 4159.33 471.9 3937.33" fill="#727353"/>
        <polygon points="4603.28 3973.84 4819.43 3973.84 4819.43 4629.12 4479.04 4629.12 4479.04 4214.58 4603.28 4214.58 4603.28 3973.84" fill="#727353"/>
        <rect x="4310.79" y="5049.66" width="508.31" height="1179.46" fill="#727353"/>
        <rect x="2634.64" y="787.38" width="510.89" height="1204.24" fill="#727353"/>
        <polygon points="4819.1 1182.88 4224.54 1182.88 4224.54 221.73 4818.9 221.73 4819.1 1182.88" fill="#727353"/>
        <rect y="1182.88" width="292.73" height="159.72" fill="#727353"/>
        <rect x="663.08" y="1342.59" width="175.58" height="158.29" fill="#727353"/>
        <rect x="1025.55" y="1182.88" width="175.58" height="158.29" fill="#727353"/>
        <rect x="1201.13" y="1024.58" width="175.58" height="158.29" fill="#727353"/>
      </g>
    </g>
    <polyline points="663.08 1182.14 1025.55 1182.14 1025.55 1341.86 1201.13 1341.86 1201.13 1819.63 1125.54 1819.63 1125.54 1659.87 1014.25 1659.87 1014.25 1501.57 838.66 1501.57 838.66 1343.28 663.08 1343.28 663.08 1182.14" fill="#9a9c71"/>
    <g>
      <polygon points="3302.02 6229.13 3984.57 6229.13 3984.57 6057.72 4127.64 6057.72 4127.64 5792.22 3473.75 5792.22 3473.75 5868.93 3302.02 5868.93 3302.02 6229.13" fill="#878869"/>
      <polygon points="0 2833.25 0 3047.72 828 3047.72 828 3470.09 1013.95 3470.09 1013.95 2533.1 828 2533.1 828 2833.25 0 2833.25" fill="#878869"/>
      <polygon points="1588.25 2657.78 4224.76 2657.78 4224.76 2826.79 3481.61 2826.79 3481.61 3077.26 1948.76 3077.26 1948.76 3016.27 1759.81 3016.27 1759.81 2833.25 1575.83 2833.25 1575.83 2657.78 1588.25 2657.78" fill="#878869"/>
      <rect x="4580.16" y="2493.47" width="239.27" height="333.32" fill="#878869"/>
      <polygon points="3954.95 3924.97 3954.95 4214.58 4603.28 4214.58 4603.28 3973.84 4819.43 3973.84 4819.43 3290.84 4224.76 3290.84 4224.76 3591.55 4126.62 3591.55 4126.62 3845.45 4126.62 3924.97 3954.95 3924.97" fill="#878869"/>
      <polygon points="0 5545.21 816.53 5545.21 816.53 4758.47 1002.74 4758.47 1002.74 4612.72 1180.89 4612.72 1180.89 4476.61 0 4476.61 0 5545.21" fill="#878869"/>
      <polygon points="1016.55 5069.8 1744.54 5069.8 1744.54 4622.7 1760.42 4622.7 1760.42 4484.11 1580.95 4484.11 1580.95 4621 1380.92 4621 1380.92 4763.15 1202.77 4763.15 1202.77 4920.2 1016.55 4920.2 1016.55 5069.8" fill="#878869"/>
      <polygon points="3122.14 767.72 3122.14 1382.34 4292.86 1382.34 4292.86 666.05 3914.4 666.05 3914.4 767.72 3122.14 767.72" fill="#878869"/>
      <polygon points="2123.3 4476.61 2123.3 5091.23 3294.02 5091.23 3294.02 4325.49 2915.56 4325.49 2915.56 4476.61 2123.3 4476.61" fill="#878869"/>
      <polygon points="1940.15 5036.28 2123.3 5036.28 2123.3 5501.59 2123.3 6209.74 1940.15 6209.74 1940.15 5036.28" fill="#878869"/>
      <polygon points="0 6039.2 0 6803.15 1817.13 6803.15 1817.13 6632.55 1375.14 6632.55 1375.14 6344.33 1002.74 6344.33 1002.74 6039.2 0 6039.2" fill="#878869"/>
      <polygon points="0 538.94 0 1182.88 1201.13 1182.88 1201.13 380.61 814.06 380.61 814.06 538.94 0 538.94" fill="#878869"/>
      <polygon points="1170.63 789.17 1170.63 1024.58 1376.72 1024.58 1376.72 1316.12 1571.48 1316.12 1571.48 1446.75 1376.72 1446.75 1376.72 1818.95 1760 1818.95 1760 1991.61 2634.64 1991.61 2634.64 1096.29 2464.59 1096.29 2464.59 1248.31 1629.32 1248.31 1629.32 789.17 1170.63 789.17" fill="#878869"/>
      <rect x="2477.03" y="472.64" width="331.02" height="314.74" fill="#878869"/>
      <rect x="652.42" y="2149.9" width="175.58" height="202.93" fill="#878869"/>
      <polygon points="0 3906.83 471.9 3906.83 471.9 4159.33 152.82 4159.33 152.82 4315.87 0 4315.87 0 3906.83" fill="#878869"/>
    </g>
  </g>
  <g id="beige">
    <g>
      <polygon points="1948.76 3290.85 1948.76 3016.27 1759.81 3016.27 1759.81 2833.25 1575.83 2833.25 1575.83 2540.42 1386.31 2540.42 1386.31 1818.95 1014.25 1818.95 1014.25 3448.66 1191.3 3448.66 1191.3 3849.39 1375.28 3849.39 1375.28 4159.33 1733.25 4159.33 1733.25 4165.97 3778.84 4165.97 3778.84 3290.85 1948.76 3290.85" fill="#c6bc9a"/>
      <polygon points="4125.3 4915.72 4125.3 4753.95 3954.28 4753.95 3954.28 4501.83 3778.84 4501.83 3778.84 4075.33 3298.45 4075.33 3298.45 4501.83 3473.83 4501.83 3473.83 4753.95 3763.69 4753.95 3763.69 4915.72 3944.49 4915.72 3944.49 5077.49 4127.64 5077.49 4127.64 6063.65 4310.79 6063.65 4310.79 5077.49 4310.79 5066.28 4310.79 4915.72 4125.3 4915.72" fill="#c6bc9a"/>
      <polygon points="1946.47 3875.05 1763.33 3875.05 1763.33 4117.1 1573.17 4117.1 1573.17 4326.69 1757.33 4326.69 1757.33 4622.75 1940.15 4622.75 1940.15 5036.28 2123.3 5036.28 2123.3 4326.69 2930.73 4326.69 2930.73 4117.1 1946.47 4117.1 1946.47 3875.05" fill="#c6bc9a"/>
      <rect x="1180.89" y="5579.9" width="177.57" height="177.78" fill="#c6bc9a"/>
      <rect x="1358.47" y="5474.55" width="386.07" height="416.38" fill="#c6bc9a"/>
      <polygon points="0 5545.21 0 6039.2 300.71 6039.2 300.71 5890.93 1180.89 5890.93 1180.89 5757.68 1002.74 5757.68 1002.74 5403.24 816.53 5403.24 816.53 5545.21 0 5545.21" fill="#c6bc9a"/>
      <rect x="3130.29" y="6229.13" width="171.73" height="147.65" fill="#c6bc9a"/>
      <polygon points="4289.11 570.63 3742.74 570.63 3742.74 843.25 3573.9 843.25 3573.9 1203 4292.86 1203 4289.11 570.63" fill="#c6bc9a"/>
      <polygon points="0 1342.91 387.25 1342.91 387.25 1991.59 652.42 1991.59 652.42 2352.83 303.94 2352.83 303.94 2006.16 0 2006.16 0 1342.91" fill="#c6bc9a"/>
      <rect x="0" y="0" width="1948.76" height="380.61" fill="#c6bc9a"/>
      <polygon points="2327.52 6632.51 2327.52 6803.11 4819.43 6803.11 4819.43 6497.82 4250.95 6497.82 4250.95 6632.51 2327.52 6632.51" fill="#c6bc9a"/>
    </g>
  </g>
  <g id="ivoire">
    <g>
      <polygon points="1380.92 4313.52 1380.92 4455.67 1180.89 4455.67 1180.89 4612.72 1002.74 4612.72 1002.74 4758.47 816.53 4758.47 816.53 5403.24 1002.74 5403.24 1002.74 5579.61 1180.89 5579.61 1180.89 5230.81 1016.55 5230.81 1016.55 4920.2 1202.77 4920.2 1202.77 4763.15 1380.92 4763.15 1380.92 4621 1580.95 4621 1580.95 4313.52 1380.92 4313.52" fill="#efe6c5"/>
      <rect x="3130.29" y="5701.47" width="171.73" height="527.66" fill="#efe6c5"/>
      <rect x="1744.54" y="4788.31" width="195.75" height="728.73" fill="#efe6c5"/>
      <rect x="1386.31" y="2157.05" width="185.23" height="165.43" fill="#efe6c5"/>
      <polygon points="3778.84 4214.58 3954.95 4214.58 3954.95 3924.97 4131.07 3924.97 4131.07 3845.45 3778.84 3845.45 3778.84 4214.58" fill="#efe6c5"/>
      <rect x="3294.02" y="4753.97" width="179.74" height="337.26" fill="#efe6c5"/>
      <rect x="1575.83" y="2833.25" width="184.17" height="428.93" fill="#efe6c5"/>
      <rect x="1201.13" y="1818.95" width="184.17" height="428.93" fill="#efe6c5"/>
      <rect x="1760" y="3262.18" width="188.76" height="135.94" fill="#efe6c5"/>
      <rect x="2184.95" y="3290.84" width="1593.89" height="327.31" fill="#efe6c5"/>
      <rect x="1588.25" y="3398.13" width="171.75" height="143.93" fill="#efe6c5"/>
      <rect x="2120.88" y="4195.93" width="413.44" height="130.76" fill="#efe6c5"/>
      <rect x="1193.36" y="3849.39" width="334.07" height="151.17" fill="#efe6c5"/>
      <rect x="1014.25" y="1818.95" width="350.08" height="140.69" fill="#efe6c5"/>
      <rect x="3295.05" y="4165.97" width="178.7" height="340.26" fill="#efe6c5"/>
      <rect x="3778.84" y="3290.84" width="185.68" height="554.61" fill="#efe6c5"/>
      <rect x="3778.84" y="4214.58" width="176.12" height="291.65" fill="#efe6c5"/>
      <rect x="3954.95" y="4614.58" width="176.12" height="145.83" fill="#efe6c5"/>
      <rect x="3964.51" y="3147.76" width="260.25" height="143.08" fill="#efe6c5"/>
      <rect x="2915.56" y="4165.97" width="378.46" height="159.52" fill="#efe6c5"/>
      <rect x="0" y="380.61" width="814.06" height="158.33" fill="#efe6c5"/>
      <rect x="1951.56" y="4064.23" width="343.46" height="150.35" fill="#efe6c5"/>
      <rect x="2216.03" y="3905.45" width="287.25" height="158.78" fill="#efe6c5"/>
    </g>
  </g>
</svg>