<svg id="vet_clair" data-name="vet clair" xmlns="http://www.w3.org/2000/svg" viewBox="0 0 4818.9 6803.15">
  <g>
    <g>
      <g>
        <rect x="215.32" y="1183.8" width="761.46" height="123.69" fill="#fdf9e7"/>
        <rect x="1535.31" y="1183.8" width="273.49" height="123.69" fill="#fdf9e7"/>
      </g>
      <g>
        <rect x="1647.9" y="2137.46" width="164.51" height="166.37" fill="#fdf9e7"/>
        <g>
          <rect x="2141.43" y="3451.93" width="1496.98" height="164.51" fill="#fdf9e7"/>
          <rect x="2141.43" y="3616.44" width="164.51" height="164.51" fill="#fdf9e7"/>
          <rect x="2305.94" y="3780.95" width="1598.98" height="164.51" fill="#fdf9e7"/>
          <g>
            <rect x="1483.39" y="2629.38" width="164.51" height="164.51" fill="#fdf9e7"/>
            <rect x="1318.88" y="2793.89" width="164.51" height="164.51" fill="#fdf9e7"/>
            <rect x="1647.9" y="2793.89" width="164.51" height="164.51" fill="#fdf9e7"/>
            <rect x="1483.39" y="2958.4" width="164.51" height="164.51" fill="#fdf9e7"/>
            <rect x="1976.92" y="3122.91" width="164.51" height="164.51" fill="#fdf9e7"/>
            <rect x="1647.9" y="3287.42" width="164.51" height="164.51" fill="#fdf9e7"/>
            <rect x="1976.92" y="2793.89" width="164.51" height="164.51" fill="#fdf9e7"/>
            <rect x="1318.88" y="2303.82" width="164.51" height="325.56" fill="#fdf9e7"/>
            <rect x="1483.39" y="2137.46" width="164.51" height="166.37" fill="#fdf9e7"/>
          </g>
          <rect x="3248.06" y="4274.3" width="200.55" height="139.32" fill="#fdf9e7"/>
          <rect x="3609.02" y="4574.95" width="611.5" height="161.32" fill="#fdf9e7"/>
          <rect x="4048.07" y="4890.27" width="154.01" height="154.01" fill="#fdf9e7"/>
        </g>
      </g>
    </g>
    <rect x="-5.27" y="3945.46" width="479.9" height="479.9" fill="#fdf9e7"/>
    <rect x="652.28" y="4425.37" width="285.35" height="1111.34" fill="#fdf9e7"/>
    <polygon points="1647.9 3451.93 1976.92 3451.93 1976.92 3616.44 1858.78 3616.44 1858.78 3945.46 1647.9 3945.46 1647.9 3451.93" fill="#fdf9e7"/>
    <polygon points="2305.94 3945.46 2305.94 4109.97 2456.77 4109.97 2456.77 4274.3 2642.95 4274.3 2642.95 4425.62 1926.45 4425.62 1926.45 3945.46 2305.94 3945.46" fill="#fdf9e7"/>
    <rect x="3638.4" y="3287.42" width="1175.22" height="328.99" fill="#fdf9e7"/>
    <rect x="3914.77" y="5048.85" width="133.3" height="896.71" fill="#fdf9e7"/>
    <rect x="4048.07" y="5537.22" width="557.27" height="687.3" fill="#fdf9e7"/>
    <polygon points="2292.91 1597.28 2566.56 1597.28 2566.56 2160.92 2566.56 2629.38 1976.92 2629.38 1976.92 2137.46 2141.43 2137.46 2141.43 1971.09 2292.91 1971.09 2292.91 1597.28" fill="#fdf9e7"/>
    <rect x="4041.84" y="1982.87" width="771.78" height="811.02" fill="#fdf9e7"/>
    <polygon points="3078.93 1662.61 3638.4 1662.61 3638.4 1982.87 3287.87 1982.87 3287.87 2793.89 2928.1 2793.89 2928.1 2160.92 3074.72 2160.92 3078.93 1662.61" fill="#fdf9e7"/>
    <rect x="2900.76" width="334.2" height="709.92" fill="#fdf9e7"/>
    <rect x="3638.4" y="713.53" width="403.44" height="949.08" fill="#fdf9e7"/>
  </g>
  <rect x="-5.27" width="2571.84" height="713.53" fill="#1b3540"/>
  <g>
    <g>
      <g>
        <rect x="2642.95" y="4274.3" width="198.32" height="139.32" fill="#344a52"/>
        <rect x="2910.37" y="4274.3" width="216.23" height="133.89" fill="#344a52"/>
        <rect x="2710.77" y="4413.62" width="176.57" height="161.32" fill="#344a52"/>
        <rect x="2749.15" y="4574.95" width="179.13" height="153.12" fill="#344a52"/>
        <rect x="3018.48" y="4408.19" width="159.62" height="159.62" fill="#344a52"/>
        <rect x="3039.6" y="4567.81" width="175.29" height="322.47" fill="#344a52"/>
        <rect x="2655.75" y="4890.27" width="143.3" height="295.85" fill="#344a52"/>
        <rect x="2799.05" y="4728.06" width="129.23" height="301.96" fill="#344a52"/>
        <rect x="2509.89" y="5038.2" width="145.86" height="302.74" fill="#344a52"/>
        <rect x="2236.08" y="5186.12" width="273.81" height="161.22" fill="#344a52"/>
        <rect x="2092.77" y="5340.94" width="417.11" height="131.79" fill="#344a52"/>
        <rect x="1953.31" y="5472.73" width="271.25" height="127.95" fill="#344a52"/>
        <rect x="1953.31" y="5600.68" width="139.46" height="126.67" fill="#344a52"/>
        <rect x="2357.63" y="5472.73" width="152.26" height="127.95" fill="#344a52"/>
        <rect x="2928.28" y="4728.06" width="148.21" height="999.28" fill="#344a52"/>
        <rect x="2482.74" y="5727.35" width="732.14" height="126.5" fill="#344a52"/>
      </g>
      <rect x="937.63" y="4425.37" width="1286.05" height="623.11" fill="#344a52"/>
      <rect x="629.14" y="3287.95" width="308.5" height="656.93" fill="#344a52"/>
      <rect x="3638.4" y="1982.87" width="403.44" height="1304.55" fill="#344a52"/>
      <rect x="2224.56" y="6700.46" width="1168.43" height="102.69" fill="#344a52"/>
      <polygon points="-5.27 5853.85 -2.46 6803.15 937.63 6803.15 937.63 6700.46 755.41 6700.46 755.41 6374.36 937.63 6374.36 937.63 6224.51 1209.08 6224.51 1209.08 6803.15 1647.9 6803.15 1647.9 6206.01 2223.68 6206.01 2223.68 5853.85 -5.27 5853.85" fill="#344a52"/>
      <rect x="2566.56" y="2160.92" width="361.53" height="468.46" fill="#344a52"/>
      <rect x="3234.96" width="403.44" height="713.53" fill="#344a52"/>
    </g>
    <polygon points="4069.68 3968.56 4813.63 3968.56 4813.63 4274.39 4256.52 4274.39 4256.52 4109.7 4069.68 4109.7 4069.68 3968.56" fill="#344a52"/>
  </g>
  <g>
    <g>
      <rect x="1812.41" y="2137.46" width="164.51" height="166.37" fill="#ede6d7"/>
      <g>
        <rect x="1483.39" y="3122.91" width="164.51" height="164.51" fill="#ede6d7"/>
        <g>
          <rect x="1318.88" y="2629.38" width="164.51" height="164.51" fill="#ede6d7"/>
          <g>
            <rect x="1483.39" y="2793.89" width="164.51" height="164.51" fill="#ede6d7"/>
            <rect x="1647.9" y="2958.4" width="164.51" height="164.51" fill="#ede6d7"/>
            <rect x="1647.9" y="3122.91" width="164.51" height="164.51" fill="#ede6d7"/>
            <rect x="1976.92" y="2958.4" width="164.51" height="164.51" fill="#ede6d7"/>
            <rect x="1812.41" y="3287.42" width="164.51" height="164.51" fill="#ede6d7"/>
            <rect x="1976.92" y="3451.93" width="164.51" height="164.51" fill="#ede6d7"/>
            <rect x="2305.94" y="3616.44" width="1496.98" height="164.51" fill="#ede6d7"/>
            <rect x="2141.43" y="3780.95" width="164.51" height="164.51" fill="#ede6d7"/>
            <rect x="1483.39" y="2303.82" width="164.51" height="325.56" fill="#ede6d7"/>
            <rect x="3448.61" y="4413.62" width="771.9" height="161.32" fill="#ede6d7"/>
            <rect x="3768.27" y="4736.27" width="609.77" height="154.01" fill="#ede6d7"/>
            <rect x="1808.8" y="1307.49" width="168.12" height="157.26" fill="#ede6d7"/>
          </g>
        </g>
      </g>
    </g>
    <rect x="464.85" y="3945.46" width="1183.04" height="479.9" fill="#ede6d7"/>
    <rect x="-5.27" y="3287.95" width="634.41" height="656.93" fill="#ede6d7"/>
    <polygon points="1209.08 5048.48 1209.08 5853.85 2223.68 5853.85 2223.68 5600.68 2092.77 5600.68 2092.77 5727.35 1953.31 5727.35 1953.31 5472.73 2092.77 5472.73 2092.77 5340.94 2236.08 5340.94 2236.08 5186.12 2509.89 5186.12 2509.89 5048.85 1209.08 5048.48" fill="#ede6d7"/>
    <polygon points="2223.68 4425.37 2223.68 4731.7 2493.35 4731.7 2493.35 5048.85 2509.89 5048.85 2655.75 5048.85 2655.75 4890.27 2799.05 4890.27 2799.05 4728.06 2749.15 4728.06 2749.15 4574.95 2710.77 4574.95 2710.77 4413.62 2642.95 4413.62 2642.95 4425.62 2223.68 4425.37" fill="#ede6d7"/>
    <rect x="-5.27" y="5048.85" width="657.56" height="309.11" fill="#ede6d7"/>
    <polygon points="3183.07 2793.89 4813.63 2793.89 4813.63 3287.42 3510.72 3287.42 3510.72 3122.91 3339.16 3122.91 3339.16 2958.4 3183.07 2958.4 3183.07 2793.89" fill="#ede6d7"/>
    <polygon points="3802.91 3616.41 4813.63 3616.41 4813.63 3968.56 4069.68 3968.56 4069.68 3945.46 3904.92 3945.46 3904.92 3780.77 3802.91 3780.77 3802.91 3616.41" fill="#ede6d7"/>
    <rect x="4202.08" y="4890.27" width="611.55" height="154.01" fill="#ede6d7"/>
    <rect x="4048.07" y="5044.28" width="442.4" height="492.42" fill="#ede6d7"/>
    <rect x="4605.34" y="5537.22" width="208.29" height="687.3" fill="#ede6d7"/>
    <polygon points="4813.63 6803.15 3392.99 6803.15 3392.99 6362.55 3914.77 6362.55 3914.77 5945.56 4048.07 5945.56 4048.07 6224.51 4813.63 6224.51 4813.63 6803.15" fill="#ede6d7"/>
    <rect x="2223.68" y="5853.85" width="1385.34" height="352.15" fill="#ede6d7"/>
    <rect x="3287.87" y="1982.87" width="350.54" height="811.02" fill="#ede6d7"/>
    <polygon points="1318.88 2649.84 909.1 2649.84 909.1 1307.49 1808.8 1307.49 1808.8 1464.75 1976.92 1464.75 1976.92 1804.72 1812.41 1804.72 1812.41 1971.09 1647.9 1971.09 1647.9 2137.46 1483.39 2137.46 1483.39 2303.82 1318.88 2303.82 1318.88 2649.84" fill="#ede6d7"/>
    <rect x="4041.84" width="771.78" height="1662.61" fill="#ede6d7"/>
    <polygon points="2141.43 1024.82 2141.43 1183.8 2292.91 1183.8 2292.91 1597.28 2566.56 1597.28 2566.56 1340.32 3074.72 1340.32 3074.72 1662.61 3287.87 1662.61 3287.87 713.53 2662.25 713.53 2662.25 1024.82 2141.43 1024.82" fill="#ede6d7"/>
  </g>
  <g>
    <rect x="3126.6" y="4274.3" width="121.46" height="139.32" fill="#aeb6b3"/>
    <g>
      <g>
        <g>
          <rect x="1812.41" y="2958.4" width="164.51" height="164.51" fill="#aeb6b3"/>
          <rect x="1812.41" y="2629.38" width="1115.69" height="164.51" fill="#aeb6b3"/>
          <rect x="2141.43" y="2958.4" width="1197.22" height="164.51" fill="#aeb6b3"/>
          <rect x="2305.94" y="3945.46" width="1763.75" height="164.51" fill="#aeb6b3"/>
          <rect x="3448.61" y="4274.3" width="771.9" height="139.32" fill="#aeb6b3"/>
        </g>
        <rect x="2141.43" y="3287.42" width="378.03" height="164.51" fill="#aeb6b3"/>
      </g>
      <rect x="937.63" y="3633.14" width="271.54" height="311.74" fill="#aeb6b3"/>
      <rect x="1858.78" y="3615.86" width="282.65" height="329.6" fill="#aeb6b3"/>
      <path d="M-5.27,2649.84h1324.15v308.56h164.51v329.02h-282.65v345.72h-263.11v-654.77h-308.5v308.5H-5.27v-637.03Z" fill="#aeb6b3"/>
      <polygon points="937.63 5853.85 -5.27 5853.85 -5.27 5357.96 652.28 5357.96 652.28 5536.7 937.63 5536.7 937.63 5853.85" fill="#aeb6b3"/>
      <polygon points="2223.68 5853.85 2482.74 5853.85 2482.74 5727.35 2928.28 5727.35 2928.28 5030.02 2799.05 5030.02 2799.05 5186.12 2655.75 5186.12 2655.75 5340.94 2509.89 5340.94 2509.89 5600.68 2357.63 5600.68 2357.63 5472.73 2224.56 5472.73 2223.68 5853.85" fill="#aeb6b3"/>
      <polygon points="2841.27 4274.3 2910.37 4274.3 2910.37 4408.19 3018.48 4408.19 3018.48 4567.81 3039.6 4567.81 3039.6 4731.7 2928.28 4731.7 2928.28 4574.95 2887.34 4574.95 2887.34 4413.62 2841.27 4413.62 2841.27 4274.3" fill="#aeb6b3"/>
      <rect x="3076.49" y="4890.27" width="971.58" height="158.57" fill="#aeb6b3"/>
      <polygon points="4220.52 4736.27 4378.03 4736.27 4378.03 4890.27 4813.63 4890.27 4813.63 4587.67 4220.52 4587.67 4220.52 4736.27" fill="#aeb6b3"/>
      <rect x="3609.02" y="5536.7" width="305.75" height="408.86" fill="#aeb6b3"/>
      <rect x="755.41" y="6374.36" width="182.22" height="326.1" fill="#aeb6b3"/>
      <rect x="1647.9" y="6206.01" width="576.66" height="597.14" fill="#aeb6b3"/>
      <polygon points="215.32 1307.49 215.32 1183.8 1535.31 1183.8 1535.31 1024.82 2141.43 1024.82 2662.25 1024.82 2662.25 713.53 -5.27 713.53 -5.27 1307.49 215.32 1307.49" fill="#aeb6b3"/>
      <rect x="416.84" width="984.29" height="713.53" fill="#aeb6b3"/>
    </g>
  </g>
  <g>
    <g>
      <rect x="1808.8" y="1183.8" width="168.12" height="123.69" fill="#72818b"/>
      <g>
        <rect x="1535.31" y="1024.82" width="136.74" height="158.98" fill="#72818b"/>
        <rect x="1727.37" y="1557.03" width="663.6" height="164.51" transform="translate(3698.4628 -419.8834) rotate(90)" fill="#72818b"/>
        <rect x="1647.9" y="2629.38" width="164.51" height="164.51" fill="#72818b"/>
        <rect x="1812.41" y="3122.91" width="164.51" height="164.51" fill="#72818b"/>
        <rect x="1976.92" y="3287.42" width="164.51" height="164.51" fill="#72818b"/>
        <rect x="1812.41" y="2793.89" width="164.51" height="164.51" fill="#72818b"/>
        <rect x="2141.43" y="2793.89" width="1041.64" height="164.51" fill="#72818b"/>
        <rect x="2456.77" y="4109.79" width="1763.75" height="164.51" fill="#72818b"/>
        <rect x="1647.9" y="1971.09" width="164.51" height="166.37" fill="#72818b"/>
        <rect x="1812.41" y="1804.72" width="164.51" height="166.37" fill="#72818b"/>
        <rect x="3590.05" y="3780.77" width="314.87" height="164.69" fill="#72818b"/>
        <rect x="3961.35" y="4574.95" width="259.17" height="161.32" fill="#72818b"/>
      </g>
      <g>
        <rect x="1885.37" y="1563.55" width="663.6" height="151.48" transform="translate(3856.4579 -577.8785) rotate(90)" fill="#72818b"/>
        <rect x="1976.92" y="1971.09" width="164.51" height="166.37" fill="#72818b"/>
        <rect x="1812.41" y="2303.82" width="164.51" height="325.56" fill="#72818b"/>
        <rect x="2519.46" y="3287.42" width="1118.94" height="164.51" fill="#72818b"/>
        <rect x="2671.37" y="3452.36" width="967.04" height="164.05" fill="#72818b"/>
      </g>
    </g>
    <rect x="-2.46" y="4425.37" width="654.74" height="623.11" fill="#72818b"/>
    <rect x="1647.9" y="3945.46" width="278.56" height="479.9" fill="#72818b"/>
    <rect x="1200.74" y="3287.42" width="447.16" height="658.04" fill="#72818b"/>
    <rect x="937.63" y="5048.48" width="271.45" height="488.23" fill="#72818b"/>
    <rect x="937.63" y="5536.7" width="271.45" height="317.15" fill="#72818b"/>
    <rect x="2221.9" y="4731.7" width="271.45" height="317.15" fill="#72818b"/>
    <polygon points="-5.27 2160.92 1483.39 2160.92 1483.39 2303.82 1318.88 2303.82 1318.88 2649.84 -5.27 2649.84 -5.27 2160.92" fill="#72818b"/>
    <polygon points="3248.06 4413.62 3448.61 4413.62 3448.61 4574.95 3609.02 4574.95 3609.02 4736.27 3768.27 4736.27 3768.27 4890.27 3214.89 4890.27 3214.89 4567.81 3178.1 4567.81 3178.1 4413.62 3248.06 4413.62" fill="#72818b"/>
    <polygon points="4220.52 4274.3 4813.63 4274.3 4813.63 4587.67 4220.52 4587.67 4220.52 4574.95 4220.52 4274.3" fill="#72818b"/>
    <rect x="3609.02" y="5048.85" width="305.75" height="487.85" fill="#72818b"/>
    <rect x="4490.47" y="5044.28" width="323.15" height="492.94" fill="#72818b"/>
    <polygon points="2223.68 6206.01 2223.68 6700.46 3392.99 6700.46 3392.99 6362.55 3914.77 6362.55 3914.77 5945.56 3609.02 5945.56 3609.02 6206.01 2223.68 6206.01" fill="#72818b"/>
    <rect x="937.63" y="6223.2" width="271.45" height="579.95" fill="#72818b"/>
    <rect x="2566.56" y="1340.32" width="508.16" height="820.6" fill="#72818b"/>
    <rect x="3638.4" y="1662.61" width="1175.22" height="320.27" fill="#72818b"/>
    <rect x="3638.4" width="403.44" height="713.53" fill="#72818b"/>
    <rect x="1156.38" y="360.37" width="1410.18" height="353.16" fill="#72818b"/>
  </g>
  <g>
    <g>
      <g>
        <rect x="976.78" y="1183.8" width="558.53" height="123.69" fill="#cfbc9f"/>
        <rect x="1672.06" y="1024.82" width="469.37" height="158.98" fill="#cfbc9f"/>
        <rect x="1976.92" y="1183.8" width="315.99" height="123.69" fill="#cfbc9f"/>
        <rect x="1812.41" y="1971.09" width="164.51" height="166.37" fill="#cfbc9f"/>
        <rect x="2141.43" y="3122.91" width="1368.2" height="164.51" fill="#cfbc9f"/>
        <rect x="1647.9" y="2303.82" width="164.51" height="325.56" fill="#cfbc9f"/>
        <rect x="3590.05" y="3616.41" width="212.86" height="164.57" fill="#cfbc9f"/>
        <rect x="3941.65" y="4109.7" width="314.87" height="164.69" fill="#cfbc9f"/>
        <rect x="3216.15" y="3287.42" width="422.26" height="164.51" fill="#cfbc9f"/>
      </g>
      <rect x="629.14" y="2978.37" width="308.5" height="308.5" fill="#cfbc9f"/>
      <polygon points="3076.49 5048.85 3609.02 5048.85 3609.02 5863.24 3214.89 5863.24 3214.89 5727.35 3076.49 5727.35 3076.49 5048.85" fill="#cfbc9f"/>
      <rect x="3287.87" y="713.53" width="350.54" height="949.08" fill="#cfbc9f"/>
      <rect x="2566.56" width="334.2" height="709.92" fill="#cfbc9f"/>
      <rect x="-5.27" y="1307.49" width="914.38" height="853.43" fill="#cfbc9f"/>
    </g>
    <polygon points="-8.07 5853.85 -5.25 6803.15 934.84 6803.15 934.84 6700.46 752.61 6700.46 752.61 6374.36 934.84 6374.36 934.84 6224.51 1206.29 6224.51 1206.29 6803.15 1645.1 6803.15 1645.1 6206.01 2220.89 6206.01 2220.89 5853.85 -8.07 5853.85" fill="#cfbc9f"/>
  </g>
</svg>