<svg id="Calque_1" data-name="Calque 1" xmlns="http://www.w3.org/2000/svg" viewBox="0 0 4818.9 6803.15">
  <path d="M4793.8,5682.61c-55.82,8.82-111.91,16.61-167.65,24.21-54.67,7.46-102.11-1.79-156.76-4.86-72.21-4.05-142.46,21.26-211.97,41.88-111.47,33.06-226.11,54.7-341.7,64.5-108.49,9.2-217.42,52.29-290.76,135.35-33.41,37.84-58.52,82.63-89.8,122.37-68.42,86.92-168.13,132.73-240.21,212.24-80.89,89.24-159.35,180.84-235.25,274.65-5.79,7.16-11.95,14.62-20.4,17.92-9.05,3.54-19.13,1.7-28.67,0-223.7-39.9-451.19,23.87-669.8,87.07-46.71,13.5-93.99,27.25-135.92,52.42-51.68,31.02-101,80.71-160.37,73.56-117.9-13.53-235.59-10.06-353.36-7.13-119.68,2.98-238.03,30.31-358.06,24.17-72.23-3.69-136.17-12.64-209.23-8.21-72.03,4.37-144.07,9.02-216.23,10.3-147.67,2.62-251.07-45.62-374.51-119.93-106.2-63.94-148.24-190.33-155.16-310.84-5.13-89.42-4.54-179.9-46.94-260.2-35.5-67.22-47.44-144.61-82.24-212.04-35.02-67.86-12.87-135.63-10.25-211.59,4.51-131.05-42.07-269.85-71.39-396.7-11.4-49.32-28.66-99.37-37.96-148.75-8.95-47.54-1.86-96.18-13.2-144.77-19.21-82.37-63.37-152.11-82.13-233.55-20.71-89.88-36.2-181.86-27.23-274.53,2.06-21.32,5.38-42.49,7.73-63.77,22.11-200.3-41.66-406,.26-602.9,16.1-75.65,47.29-146.83,71.49-220.15,111.38-337.43,72-707.11,133.5-1057.9,5.67-32.32,46.61-39.93,78.41-40.13,103.24-.66,206.67.71,309.26-9.23,12.98-1.26,27.64-3.92,34.73-15.22,4.63-7.38,4.79-16.72,4.76-25.51-.43-126.99-11.1-253.93-31.86-379.1-3.83-23.1-8.02-46.42-6.48-69.8,2.42-36.88,17.7-71.17,15.6-108.49-1.85-32.79-3.6-63.19-1.87-97.36,4.14-82.16,1.68-164.5-3.22-246.56-9.66-161.92-29.46-323.3-30.05-485.72-.46-125.01-.81-251.08,23.61-373.52,20.49-102.69,60.3-201.6,123.08-284.55,50.76-67.07,151.13-87.98,229.94-102.39,145.03-26.52,296.38-19.65,437.21-68.92,64.29-22.49,122.73-49.87,187.8-70.37,83.62-26.34,169.18-46.07,255.7-59.02,111.23-16.65,230.46-6.96,343.45-11.31,56.85-2.19,114.45-4.88,168.76-22.4,36.92-11.91,71.5-30.43,107.81-44.22,184.69-70.16,363.4-4.34,549.08,14.75,56.45,5.8,118.26-20.59,176.67-18.65,36.51,1.21,72.69,7.32,108.74,13.42,68.88,11.65,138.6,23.56,202.51,52.54,59.75,27.1,112.49,68.27,170.58,98.99,100.55,53.17,229.3,78.89,341.86,61.99,54.71-8.21,118.67-33.93,160.18,19.32,20.87,26.78,28.7,61.79,33.61,95.78,13.78,95.3,9.44,192.32,16.06,288.44,15.57,226.14,91.74,451.03,57.19,674.91-3.59,23.26-8.36,46.3-13.04,69.35-27.49,135.26-52.05,271.16-73.66,407.55-6.13,38.7-3.01,73.14,9.73,109.93,24.42,70.52,21.23,142.32,23.78,217.43,1.76,51.89,3.47,104.42-7.13,155.17-11.25,53.88-27.25,107.64-46.35,159.06-12.69,34.27-25.35,69.2-42.43,101.45-6.32,11.93-13.32,23.85-15.65,37.23-.42,2.42-.66,5.05.45,7.22,1.6,3.16,5.37,4.28,8.73,5.09,83.5,20.11,169.14,31.96,245.55,75.23,20.45,11.58,215.7,150.95,205.93,166.14-30.93,48.12-83.75,77.56-138.15,90.99-26.67,6.59-55.36,11.62-82.83,10.1-28.74-1.6-58.93-14.03-87.6-7.18,5.96,41.36,14.03,84.13,14.85,126.01.94,48.26,3.65,96.56,5.85,144.77,4.26,93.48,9.47,186.92,15.66,280.29,6.15,92.74,13.24,185.41,21.28,277.99,3.64,41.96,5.42,83.02,5.65,124.28.17,30.83,1.29,60.75,27.73,80.67,23.18,17.46,52.75,22.47,81.1,26.98,66.33,10.55,132.59,21.97,199.05,31.66,32.8,4.78,100.99-9.8,126.15,16.58,23.45,24.59,6.16,141.31,6.42,176.38.47,65.33.94,130.66,1.41,195.99,0,2.87-210.52-22.02-229.12-24.91-8.9,114.6-11.96,226.62-16.26,340.96-2,53.07-3.29,106.46,2.46,159.35,2.93,26.97,6.78,54.06,8.11,79.79,1.33,25.65-5.55,44.78,21.81,61.6,20.37,12.53,45.36,13.08,69.07,13.29,46.18.4,139.71-19.69,161.28,25.18,24.28,50.5,18.76,143.69,22.38,199.58,4.58,70.78,5.41,141.85,1.62,212.69-1.02,19.17-8.72,193.4-22.71,195.61Z" fill="#57473f"/>
  <g>
    <path d="M1471.12,5680.47c10.33,6.25,17.83,16.36,25.05,26.21,19.95,27.22,81.91,103.09,57.08,140.99-28.43,43.39-106.91-14.82-123.43-43.47-19.15-33.21-20.09-76.82-2.4-110.88,2.55-4.91,5.55-9.74,9.85-13.11,9.53-7.48,23.52-6,33.85.25ZM1617.67,5458.38c14.04,1.36,29.3,4.13,38.58,15.1,11.61,13.73,9.26,34.79,3.42,52-6.58,19.42-16.74,37.55-30.44,59.04-27.19-2.37-54.03-7.8-80.81-13.23-22.38-4.53-44.75-9.07-67.13-13.6-6.09-1.23-13.69-4.29-13.53-10.69.86-33.43,25.13-62.78,54.55-76.77,29.42-13.98,63.1-14.96,95.35-11.84ZM1116.21,3073.62c12.89,29.45,34.09,84,6.52,112.32-24.7,25.38-69.66,3.72-81.64-24.89-13.35-31.88-1.39-69.96,19.76-96.97,7.96-10.17,19.49-20.07,31.88-17.34,11.88,2.62,18.48,15.44,23.49,26.88ZM3488.9,873.2c53.54,81.86-85.15,131.61-139.35,113.22-21.51-7.3-42.27-22.71-48.2-45.28-6.36-24.18,6.43-50.41,25.62-65.74,19.19-15.33,43.58-21.74,67.48-26.05,33.84-6.1,75.23-5.55,94.45,23.84Z" fill="#6c5952"/>
    <path d="M4326.08,4036.4c-9.91,24.53-21.2,48.47-33.78,71.66-16.88,31.12-37.54,62.24-68.47,78.11-34.5,17.69-75.3,13.3-113.55,8.49-78.69-9.89-137.43-21.74-216.58-26.12-164.42-9.11-328.84-18.21-493.27-27.32-30.17-1.67-60.35-3.34-90.38-6.75-167.05-18.96-297.81-100.85-457-156.48-58.98-20.61-118.74-29.99-178.85-44.7-57.08-13.97-105.81-24.01-161.95,3.44-10.42,5.1-20.74,11.44-27.39,21.17-7.76,11.35-9.57,25.79-11.15,39.59-20.34,177.55-59.8,351.62-78.35,529.66-3.62,34.77-20.27,141.04-78.2,98.89-20.21-14.71-14.09-31.39-12.03-51.35,2.65-25.7,1.37-52.3,2.48-78.32,2.64-62.05-4.28-123.93-3.87-185.97.41-61.09,16.78-117.27,19.35-177.63,2.82-66.32.45-131.36,12.95-196.74,4.26-22.28,2.31-39.43.53-61.86-2.11-26.45-7.17-54.89-16.02-79.6-21.43,10.78-38.62,59.82-49.71,80.73-16.08,30.34-30.47,61.6-43.8,93.32-42.24,100.55-11.21,208.01-9.3,312.39.87,47.26-5.9,96.35-30.76,136.03-24.87,39.68-70.98,67.65-116.07,59.51-22.63-4.08-44.8-18.52-52.51-40.87-5.9-17.13-2.69-35.94-2.1-54.11,2.06-63.23-29.09-101.79-66.55-146.07-25.99-30.73-54.45-58.15-37.98-103.88,8.35-23.17,33.43-34.49,38.28-63.12,6.12-36.14-7.96-73.64-13.81-108.69-.53-3.18-.95-6.5-.04-9.58.94-3.18,3.19-5.74,5.37-8.18,7.14-8.01,14.28-16.02,21.42-24.03,2.17-2.44,4.55-5,7.68-5.73,3.73-.86,7.47,1.1,10.86,2.93,50.98,27.49,90.39,41.45,122.59-15.77,33.77-60.02,67.55-120.04,101.32-180.06,22.26-39.56,41.98-79.64,64.77-119.21,30.55-53.04,40.5-119.52,21.79-178.13-12.34-38.67-65.72-124.34-115.11-111.29-22.02,5.82-46.9,44.66-60.45,61.8-22.34,28.27-41.46,59.27-56.75,92.17-13.51,29.09-25.76,61.71-52.58,78.26-21.91,13.52-51.93,15.07-66.76,36.53-17.06,24.68-3.22,58.29-.62,88.49,4.65,54-28.89,102.8-61.63,145.18-41.26,53.41-84.58,106.24-138.45,145.92-103.24,76.03-175.22,50.82-286.59,22.02-319.64-82.66-645.56-126.78-975.26-136.06-16.21-.46-32.75-.34-48.08,5.55-11.22,4.31-38.82,16.9-17.58,27.97,54.8,28.53,111.14,50.43,171.19,64.21,216.46,49.66,478.98,55.1,666.14,187.26,39.08,27.59,75.3,59.78,116.98,82.95,23.53,13.08,48.41,22.2,74.74,26.89,19.41,3.46,38.84-5.2,56.71-1.09,37.48,8.61-28.13,136.85,21.02,131.68,21.81-2.32,41.34-36.83,54.43-52.45,23.19-27.66,54.98-50.4,81.22-75.07,17.21-16.19,35.85-29.46,53.16-45.66,2.99-2.8,6.08-5.66,9.86-7.11,10.74-4.1,21.68,4.28,32.29,8.73,6.03,2.53,12.53,3.85,18.3,6.97,42.68,23.08,2.19,155.67-3.14,192.69-11.64,80.94-23.29,161.88-34.93,242.82-3.35,23.25-10.25,45.83-15.99,68.54-1.26,4.98-2.62,10.17-5.98,13.97-3.54,4.01-8.75,5.87-13.73,7.59-13.44,4.62-26.88,9.25-40.31,13.87-8.12,2.79-16.54,5.63-25.06,4.75-22.53-2.33-43.9-32.32-59.09-47.78-73.15-74.43-185.39-105.12-284.63-77.82-129.6,35.66-259.2,71.31-388.8,106.97-87.78,24.15-195.03,41.57-273.24,91.16-3.3,2.09-6.83,4.68-7.64,8.59-1.36,6.56,5.49,11.63,11.55,14.07,20.62,8.3,43.24,9.15,65.35,9.9,35.08,1.19,70.17,2.38,105.25,3.57,185.3,6.29,371.13,30.26,556.32,43.12,188.79,13.11,377.68,24.6,566.48,37.63,18.53,1.28,30.54-18.95,39.63-35.67,31.12-57.24,86.92-108.06,150.31-103.2,69.5,5.33,118.15,73.68,143.81,140.59,25.66,66.91,39.85,141.18,85.56,195.5,45.02,53.51,113.12,78.6,178.07,101.56,100.26,35.44,200.53,70.89,300.8,106.33,341.04,120.56,684.79,241.78,1042.07,291.2,109.4,15.13,219.61,23.45,328.91,39.28,66.19,9.58,132.03,21.88,197.99,33.12,26.97-5.08,54.16-7.82,81.63-6.28,54.65,3.07,102.09,12.31,156.76,4.86,55.75-7.6,111.84-15.39,167.65-24.21,13.99-2.21,21.68-176.45,22.71-195.61,3.79-70.84,2.96-141.91-1.62-212.69-1.9-29.42-1.37-69.13-3.89-107.55-67.84-1.04-135.34,12.46-202.54,23.28-165.73,26.69-334.03,36.29-501.6,28.59-266.2-12.22-521.47-57.82-787.82-49.58-67.13,2.07-138.83,7.35-196.78-27.7-57.49-34.77-88.64-102.26-106.37-168.59-17.74-66.32-25.67-135.93-52.91-198.71-19.02-43.83-42.14-84.73-49.46-132.94-.94-6.2-1.6-12.79.77-18.57,1.93-4.69,5.65-8.31,9.27-11.78,15.7-15.07,31.56-30.26,50.01-41.54,18.44-11.28,39.93-18.5,61.24-16.14,10.55,1.17,20.72,4.62,30.8,8.05,23.57,8.03,47.74,14.34,71.11,22.28,167.02,56.75,339.05,97.76,513.26,122.37,33.78,4.77,67.82,8.96,100.54,18.88,104.48,31.66,211.59,54.06,319.77,66.89,27.43,3.25,57.54,5.24,80.26-10.97,11.84-8.45,20.27-20.98,28.24-33.36,29.52-45.87,57.34-102.3,38.35-153.77-302.26-40.89-604.63-58.95-904.54-115.36-117.94-22.18-238.89-43.64-348.82-94.6-5.51-2.56-11.29-5.45-14.53-10.71-2.66-4.32-3.21-9.64-3.64-14.74-2.3-27.42-3.01-54.98-2.11-82.49.25-7.64.72-15.63,4.51-22.19,8.07-13.97,26.81-15.52,42.55-14.76,116.54,5.65,233.92,33.12,349.82,47.66,121.32,15.22,242.97,27.69,364.83,37.4,131.48,10.48,263.06,19.68,394.56,29.97,127.9,10.01,261.06,12.53,385.86,43.5,49.48,12.28,100.18,17.85,150.94,20.14,40.94,1.85,81.96,6.44,122.94,8.74,8.26.46,17.94.3,22.94-6.51,3.78-5.15,3.4-12.25,2.85-18.69-5.09-59.16-11.12-117.91-11.54-177.32-.31-43.13,29.87-155-10.81-184.95-13.32-9.81-30.7-10.82-47.04-11.66-92.65-4.75-180.5-19.39-271.6-42.18-17.93-4.49-36.31-9.21-54.62-6.88-29.02,3.69-52.87,32.02-63.61,58.59Z" fill="#6c5952"/>
    <path d="M3912.11,2258.22c-6.69,36.09-7.61,73.63-12.14,110.07-6.43,51.73-17.77,99.34-34.19,148.47-1.54,4.62-3.15,9.35-6.17,13.11-5.56,6.9-14.7,9.19-23.19,11.08-10.63,2.37-22.19,4.65-32.01-.17-7.63-3.74-12.89-11.21-16.87-18.91-16.72-32.35-18.8-70.2-19.56-106.13-2.27-108.31-4.53-216.62-6.8-324.93-.54-25.96-1.1-52.08-6.12-77.52-11.12-56.41-43.16-105.56-67.55-157.32-17.76-37.68-31.87-79.64-29.81-122.12.66-13.68,8.59-33.12-2.35-44.4-14.12-14.56-34.26.16-44.27,11.52-102.7,116.59-132.68,295.97-73.76,441.37,31.88,78.67,67.58,155.68,106.9,230.67,21.96,41.87,44.98,83.15,68.81,123.92,14.15,24.21,25.61,49.79,38.28,74.79,11.2,21.21-28.26,24.02-42.05,28.05-1.21.35-2.48.71-3.72.49-1.61-.29-2.9-1.51-4.09-2.67-11.65-11.37-25.02-21.36-34.74-34.43-10.15-13.64-18.39-28.66-28.16-42.57-44.13-62.77-90.47-123.89-138.9-183.18-25.27-30.93-52.26-62.28-88-78.9-103.19-47.97-232.03-53.07-343.7-59.54-16.4-.95-60.43-11.06-74.49-2.97-15.13,8.71-10.85,24.2-8.28,42.42,6.02,42.68,24.38,82.52,42.19,121.07,26.77,57.95,53.55,115.93,82.99,172.49,31.6,60.71,73.11,125.14,138.18,140.49,39.33,9.27,80.08-1.47,119.85-8.48,10.25-1.81,20.54-3.39,30.85-4.73,149.04-19.49,316.27,6.02,423.73,122.86.95,1.03,1.92,2.09,2.41,3.42.94,2.54-.07,5.38-1.19,7.84-14.79,32.6-41.91,60.64-64.69,87.5-6.67,7.87-16.25,16.45-25.64,12.55-5.06-2.1-8.59-6.76-12.23-10.95-22.6-26.03-56.02-38.85-88.72-47.88-47.5-13.11-96.56-20.24-145.72-21.18-107.82-2.05-213.89,25.46-318.43,52.78-74.84,19.56-144.88,37.29-214.67,72.47-5.74,2.89-11.93,6.37-14.16,12.55-2.39,6.63.64,13.91,3.63,20.29,15.64,33.44,27.75,64.38,52.72,90.7,27.12,28.59,52.51,57.79,82.37,83.58,15.79,13.63,32.22,26.62,50.25,36.84,24.05,13.63,50.52,22.1,77.2,28.7,148.89,36.84,299.72,15.1,440.18-47.82,30.47-13.65,43.82-60.15,77.01-61.24,15.82-.52,30.23,10.84,38.27,24.92,8.05,14.08,10.92,30.58,13.54,46.7,5.18,31.85,9.87,63.79,14.1,95.79,6.81,63.27,16.38,126.68,26.93,189.39,9.45,56.14,16.96,117.81,36.06,170.94.55,1.52,1.15,3.12,2.38,4.13,1.74,1.43,4.2,1.28,6.4.99,44.34-5.7,80.4-46.25,114.54-73.57,39.93-31.96,80.27-64.33,111.74-105.13,21.92-28.42,39.12-60.43,54.07-93.32,21.79-47.93,39.15-98.73,43.53-151.49,1.75-21.24,3.95-44.51,2.12-65.8-1.76-20.48-7.6-40.31-13.41-59.97-.62-2.11-1.29-4.3-2.71-5.95-1.63-1.89-4.04-2.82-6.36-3.67-29.66-10.95-60.96-18.53-90.22-30.38-27.17-11.01-53.37-26.54-79.26-40.44-13.67-7.34-27.41-14.73-39.69-24.33-34.38-26.9-55.62-70.88-55.73-115.43-.11-44.55,20.91-88.64,55.16-115.72,27.25-21.55,70.45-30.17,93.5-3.91,13.79,15.71,15.81,38.63,17.13,59.79,1.79,28.5,1.12,58.56,5.44,86.75,2.35,15.34,4.01,41.19,18.09,50.11,5.31,3.36,11.73,4.17,17.93,4.7,57.1,4.88,114.13-6.92,171.23-2.53,53.8,4.14,109.35,3.17,162.35-9.92,54.4-13.44,107.22-42.87,138.15-90.99,9.76-15.2-185.48-154.56-205.93-166.14-36.74-20.81-76.46-35.26-116.92-46.18-41.97-11.32-84.12-16.81-124.74-33.5-3.21-1.32-6.68-2.94-8.18-6.15-1.62-3.46-.4-7.56.95-11.14,12.7-33.69,29.8-66.61,44.34-99.7,4.33-9.85,4.33-19.93,7.9-29.56,19.09-51.42,35.1-105.18,46.35-159.06,10.6-50.76,8.89-103.28,7.13-155.17-2.55-75.11.64-146.91-23.78-217.43-2.93-8.45-5.21-16.76-7.13-25.05-55.84,17.36-108.02,48.88-150.2,90.68-72.61,71.96-117.35,170.6-136.28,272.67Z" fill="#6c5952"/>
    <path d="M3326.97,875.41c-19.19,15.33-31.98,41.56-25.62,65.74,5.93,22.56,26.69,37.98,48.2,45.28,54.2,18.39,192.9-31.37,139.35-113.22-19.23-29.39-60.61-29.94-94.45-23.84-23.9,4.31-48.29,10.72-67.48,26.05Z" fill="#6c5952"/>
    <path d="M1060.85,3064.08c-21.15,27.01-33.1,65.09-19.76,96.97,11.98,28.6,56.94,50.26,81.64,24.89,27.57-28.32,6.37-82.87-6.52-112.32-5.01-11.44-11.6-24.26-23.49-26.88-12.38-2.73-23.91,7.17-31.88,17.34Z" fill="#6c5952"/>
    <path d="M1427.42,5693.33c-17.69,34.06-16.75,77.67,2.4,110.88,16.51,28.65,95,86.86,123.43,43.47,24.84-37.91-37.12-113.77-57.08-140.99-7.22-9.86-14.72-19.97-25.05-26.21-10.33-6.25-24.32-7.73-33.85-.25-4.3,3.37-7.3,8.2-9.85,13.11Z" fill="#6c5952"/>
    <path d="M1467.77,5546.99c-.16,6.4,7.44,9.46,13.53,10.69,22.38,4.53,44.75,9.07,67.13,13.6,26.78,5.43,53.62,10.86,80.81,13.23,13.71-21.49,23.86-39.61,30.44-59.04,5.83-17.21,8.19-38.27-3.42-52-9.28-10.97-24.53-13.74-38.58-15.1-32.25-3.12-65.93-2.14-95.35,11.84-29.42,13.99-53.69,43.33-54.55,76.77Z" fill="#6c5952"/>
    <path d="M1255.81,1253.48c-18.8,28.31-47.21,48.1-75.63,65.9-22.73,14.24-45.94,27.68-69.57,40.27-57.64,30.72-118.76,57.13-166.94,101.98-66.34,61.76-100.62,151.19-132.72,237.27-32.07,86.01-64.4,173.04-75.9,264.44-5.28,41.99,1.36,101.9,56.68,97.39,15.62-1.27,30.09-8.71,43.79-16.56,66.3-38.02,120.8-93,180.08-139.88,74.18-58.66,144.51-123.75,213.87-188.32,18.19-16.93,39.81-38.28,44.32-64.38,4.82-27.88-14.81-51.44-21.49-77.68-1.03-4.06-1.9-8.6.07-12.26,1.73-3.22,5.2-4.92,8.45-6.42,45.65-21.09,89.67-45.76,134.11-69.49,14.39-7.69,28.89-15.42,44.43-20.15,11.77-3.58,24.1-5.43,35.31-10.58,10.88-5,20.21-12.9,30.06-19.8,27.17-19.03,59.08-30.79,91.78-33.8,5.23-.48,10.9-.63,15.26,2.39,5.07,3.52,6.85,10.22,8.45,16.3,10.91,41.41,29.33,82.23,46.33,121.29,10.04,23.07,20.28,47.03,20.2,72.33-.06,18.87-5.87,37.15-11.63,55.05-15.42,47.97-31.03,97.49-27.45,147.89.69,9.67,1.64,20.74-4.9,27.71-7.4,7.89-19.94,5.88-30.19,2.93-69.27-19.89-138.06-41.48-207.72-60.54-8.74-2.39-17.87-4.8-26.73-2.92-8.21,1.74-15.26,6.99-22.02,12.11-171.18,129.87-323.33,272.23-472.36,428.06-8.57,8.96-17.29,18.2-22.27,29.69-7.84,18.07-5.35,38.93-2.21,58.46,8.78,54.61,29.43,107.88,46.01,160.52,26.92,13.09,58-3.51,83.12-19.98,43.69-28.64,86.98-58.6,124.06-95.88,25.57-25.71,49.01-55.5,81.62-70.49,73.9-33.98,134.01-77.7,193.93-132.6,7.38-6.77,18.17-13.78,26.23-7.89,7.31,5.35,5.83,16.74,3.83,25.75-6.69,30.15-7.41,52.97-2.4,82.92,5.3,31.65,13.75,62.64,22.19,93.56,11.12,40.72,22.23,81.44,33.35,122.16,15.57,57.04,31.19,114.23,53.32,168.91,3.62,8.93,7.77,18.27,15.53,23.71,11.17,7.84,26.55,5.18,38.58-1.17,12.03-6.34,22.29-15.88,34.39-22.09,22.5-11.54,49.16-11.47,72.88-18.93,34.11-10.73,67.56-27.28,100.83-40.62,8.67-3.48,17.6-7.12,24.21-13.87,5.17-5.27,8.58-12.09,11.67-18.88,28.04-61.47,36.39-136,48.76-202.52,7.01-37.7,14.02-75.41,21.03-113.11,5.32-28.64,14.72-62.26,41.63-71.09,29.91-9.81,57.52,17.74,84.72,33.9,37.65,22.38,83.23,23.86,126.67,23.86,86.7,0,172.94,2.77,259.63,6.08,25.39.97,51.42,1.85,75.53-6.44,48.8-16.78,72.31-84.76,78.75-132.7,2-14.91,2.54-30.3-1.26-44.83-9.68-37.01-44.39-60.25-77.23-78.13-106.83-58.16-220.55-100.38-328.82-154.42-10.84-5.41-22.36-11.47-28.13-22.38-3.69-6.98-4.55-15.12-5.35-23.03-4.3-42.89-8.61-85.78-12.91-128.67-4.27-42.5-13.65-92.62-51.58-109.69-20.35-9.16-50.58-11.89-53.04-34.67-1.33-12.37,8.24-23.66,19.34-28.51,11.1-4.85,23.51-4.88,35.54-5.7,36.36-2.47,72.51-13.07,103.32-33.17,12.65-8.26,24.42-18.1,37.97-24.66,12.66-6.14,26.48-9.21,40.15-12.24,127.2-28.19,253.45-49.98,382.29-68.57,12.25-1.77,24.75-3.66,35.78-9.43,10.4-5.44,13.29-20.22,9.44-31.58-3.86-11.35-12.65-20.05-21.14-28.29-93.54-90.69-187.07-181.39-280.61-272.08-38.59-37.42-82-77.03-134.88-79.42-41.32-1.87-79.69,19.6-118.27,35-80.29,32.06-169.87,38.82-253.82,19.17-35.1-8.22-60.57-1.86-95.34,7.73-87.07,24.01-174.13,48.02-261.2,72.03-20.01,5.52-47.65,13.31-60.26-9.69-7.62-13.91-6.76-30.92-5.68-46.86,6.77-99.98,13.54-199.96,20.31-299.93,10.22-150.9,3.89-302.23.27-453.57-16.91,6.62-33.97,13.12-51.49,19.25-49.93,17.47-101.22,27.71-153.06,35.05,11.41,270.37,22.82,540.73,34.23,811.1,2.45,57.97,3.69,120.55-28.09,168.41Z" fill="#6c5952"/>
  </g>
</svg>