<svg xmlns="http://www.w3.org/2000/svg" viewBox="0 0 8927.1 10913.1">
<defs><linearGradient id="grad_cerdan" x1="0" y1="0" x2="0" y2="1">
<stop offset="0" stop-color="#a57574"/><stop offset="1" stop-color="#c7b1a2"/>
</linearGradient></defs>
<rect width="8927.1" height="10913.1" fill="url(#grad_cerdan)"/>
<g transform="translate(1983.8,1984.2)">
<g id="layer-1" fill="#3d0d1f" data-original="#3d0d1f"><rect x="496" width="496" height="296.6"/><polygon points="816.7 7.1 816.7 810.8 991.9 992.1 991.9 7.1 816.7 7.1"/></g>
<g id="layer-2" fill="#a8b7b6" data-original="#a8b7b6"><polygon points="816.7 810.8 496 810.8 496 992.1 991.9 992.1 816.7 810.8"/><polygon points="175.3 182.3 496 182.3 496 1 0 1 175.3 182.3"/></g>
<g id="layer-3" fill="#997533" data-original="#997533"><rect x="0" y="695.6" width="496" height="296.6"/><polygon points="175.3 992.1 175.3 182.3 0 1 0 992.1 175.3 992.1"/></g>
</g><g transform="translate(2975.7,1984.2)">
<g id="layer-1" fill="#3d0d1f" data-original="#3d0d1f"><rect x="496" width="496" height="296.6"/><polygon points="816.7 7.1 816.7 810.8 991.9 992.1 991.9 7.1 816.7 7.1"/></g>
<g id="layer-2" fill="#a8b7b6" data-original="#a8b7b6"><polygon points="816.7 810.8 496 810.8 496 992.1 991.9 992.1 816.7 810.8"/><polygon points="175.3 182.3 496 182.3 496 1 0 1 175.3 182.3"/></g>
<g id="layer-3" fill="#997533" data-original="#997533"><rect x="0" y="695.6" width="496" height="296.6"/><polygon points="175.3 992.1 175.3 182.3 0 1 0 992.1 175.3 992.1"/></g>
</g><g transform="translate(3967.6,1984.2)">
<g id="layer-1" fill="#3d0d1f" data-original="#3d0d1f"><rect x="496" width="496" height="296.6"/><polygon points="816.7 7.1 816.7 810.8 991.9 992.1 991.9 7.1 816.7 7.1"/></g>
<g id="layer-2" fill="#a8b7b6" data-original="#a8b7b6"><polygon points="816.7 810.8 496 810.8 496 992.1 991.9 992.1 816.7 810.8"/><polygon points="175.3 182.3 496 182.3 496 1 0 1 175.3 182.3"/></g>
<g id="layer-3" fill="#997533" data-original="#997533"><rect x="0" y="695.6" width="496" height="296.6"/><polygon points="175.3 992.1 175.3 182.3 0 1 0 992.1 175.3 992.1"/></g>
</g><g transform="translate(4959.5,1984.2)">
<g id="layer-1" fill="#3d0d1f" data-original="#3d0d1f"><rect x="496" width="496" height="296.6"/><polygon points="816.7 7.1 816.7 810.8 991.9 992.1 991.9 7.1 816.7 7.1"/></g>
<g id="layer-2" fill="#a8b7b6" data-original="#a8b7b6"><polygon points="816.7 810.8 496 810.8 496 992.1 991.9 992.1 816.7 810.8"/><polygon points="175.3 182.3 496 182.3 496 1 0 1 175.3 182.3"/></g>
<g id="layer-3" fill="#997533" data-original="#997533"><rect x="0" y="695.6" width="496" height="296.6"/><polygon points="175.3 992.1 175.3 182.3 0 1 0 992.1 175.3 992.1"/></g>
</g><g transform="translate(5951.4,1984.2)">
<g id="layer-1" fill="#3d0d1f" data-original="#3d0d1f"><rect x="496" width="496" height="296.6"/><polygon points="816.7 7.1 816.7 810.8 991.9 992.1 991.9 7.1 816.7 7.1"/></g>
<g id="layer-2" fill="#a8b7b6" data-original="#a8b7b6"><polygon points="816.7 810.8 496 810.8 496 992.1 991.9 992.1 816.7 810.8"/><polygon points="175.3 182.3 496 182.3 496 1 0 1 175.3 182.3"/></g>
<g id="layer-3" fill="#997533" data-original="#997533"><rect x="0" y="695.6" width="496" height="296.6"/><polygon points="175.3 992.1 175.3 182.3 0 1 0 992.1 175.3 992.1"/></g>
</g><g transform="translate(1983.8,2976.3)">
<g id="layer-1" fill="#3d0d1f" data-original="#3d0d1f"><rect x="496" width="496" height="296.6"/><polygon points="816.7 7.1 816.7 810.8 991.9 992.1 991.9 7.1 816.7 7.1"/></g>
<g id="layer-2" fill="#a8b7b6" data-original="#a8b7b6"><polygon points="816.7 810.8 496 810.8 496 992.1 991.9 992.1 816.7 810.8"/><polygon points="175.3 182.3 496 182.3 496 1 0 1 175.3 182.3"/></g>
<g id="layer-3" fill="#997533" data-original="#997533"><rect x="0" y="695.6" width="496" height="296.6"/><polygon points="175.3 992.1 175.3 182.3 0 1 0 992.1 175.3 992.1"/></g>
</g><g transform="translate(2975.7,2976.3)">
<g id="layer-1" fill="#3d0d1f" data-original="#3d0d1f"><rect x="496" width="496" height="296.6"/><polygon points="816.7 7.1 816.7 810.8 991.9 992.1 991.9 7.1 816.7 7.1"/></g>
<g id="layer-2" fill="#a8b7b6" data-original="#a8b7b6"><polygon points="816.7 810.8 496 810.8 496 992.1 991.9 992.1 816.7 810.8"/><polygon points="175.3 182.3 496 182.3 496 1 0 1 175.3 182.3"/></g>
<g id="layer-3" fill="#997533" data-original="#997533"><rect x="0" y="695.6" width="496" height="296.6"/><polygon points="175.3 992.1 175.3 182.3 0 1 0 992.1 175.3 992.1"/></g>
</g><g transform="translate(3967.6,2976.3)">
<g id="layer-1" fill="#3d0d1f" data-original="#3d0d1f"><rect x="496" width="496" height="296.6"/><polygon points="816.7 7.1 816.7 810.8 991.9 992.1 991.9 7.1 816.7 7.1"/></g>
<g id="layer-2" fill="#a8b7b6" data-original="#a8b7b6"><polygon points="816.7 810.8 496 810.8 496 992.1 991.9 992.1 816.7 810.8"/><polygon points="175.3 182.3 496 182.3 496 1 0 1 175.3 182.3"/></g>
<g id="layer-3" fill="#997533" data-original="#997533"><rect x="0" y="695.6" width="496" height="296.6"/><polygon points="175.3 992.1 175.3 182.3 0 1 0 992.1 175.3 992.1"/></g>
</g><g transform="translate(4959.5,2976.3)">
<g id="layer-1" fill="#3d0d1f" data-original="#3d0d1f"><rect x="496" width="496" height="296.6"/><polygon points="816.7 7.1 816.7 810.8 991.9 992.1 991.9 7.1 816.7 7.1"/></g>
<g id="layer-2" fill="#a8b7b6" data-original="#a8b7b6"><polygon points="816.7 810.8 496 810.8 496 992.1 991.9 992.1 816.7 810.8"/><polygon points="175.3 182.3 496 182.3 496 1 0 1 175.3 182.3"/></g>
<g id="layer-3" fill="#997533" data-original="#997533"><rect x="0" y="695.6" width="496" height="296.6"/><polygon points="175.3 992.1 175.3 182.3 0 1 0 992.1 175.3 992.1"/></g>
</g><g transform="translate(5951.4,2976.3)">
<g id="layer-1" fill="#3d0d1f" data-original="#3d0d1f"><rect x="496" width="496" height="296.6"/><polygon points="816.7 7.1 816.7 810.8 991.9 992.1 991.9 7.1 816.7 7.1"/></g>
<g id="layer-2" fill="#a8b7b6" data-original="#a8b7b6"><polygon points="816.7 810.8 496 810.8 496 992.1 991.9 992.1 816.7 810.8"/><polygon points="175.3 182.3 496 182.3 496 1 0 1 175.3 182.3"/></g>
<g id="layer-3" fill="#997533" data-original="#997533"><rect x="0" y="695.6" width="496" height="296.6"/><polygon points="175.3 992.1 175.3 182.3 0 1 0 992.1 175.3 992.1"/></g>
</g><g transform="translate(1983.8,3968.4)">
<g id="layer-1" fill="#3d0d1f" data-original="#3d0d1f"><rect x="496" width="496" height="296.6"/><polygon points="816.7 7.1 816.7 810.8 991.9 992.1 991.9 7.1 816.7 7.1"/></g>
<g id="layer-2" fill="#a8b7b6" data-original="#a8b7b6"><polygon points="816.7 810.8 496 810.8 496 992.1 991.9 992.1 816.7 810.8"/><polygon points="175.3 182.3 496 182.3 496 1 0 1 175.3 182.3"/></g>
<g id="layer-3" fill="#997533" data-original="#997533"><rect x="0" y="695.6" width="496" height="296.6"/><polygon points="175.3 992.1 175.3 182.3 0 1 0 992.1 175.3 992.1"/></g>
</g><g transform="translate(2975.7,3968.4)">
<g id="layer-1" fill="#3d0d1f" data-original="#3d0d1f"><rect x="496" width="496" height="296.6"/><polygon points="816.7 7.1 816.7 810.8 991.9 992.1 991.9 7.1 816.7 7.1"/></g>
<g id="layer-2" fill="#a8b7b6" data-original="#a8b7b6"><polygon points="816.7 810.8 496 810.8 496 992.1 991.9 992.1 816.7 810.8"/><polygon points="175.3 182.3 496 182.3 496 1 0 1 175.3 182.3"/></g>
<g id="layer-3" fill="#997533" data-original="#997533"><rect x="0" y="695.6" width="496" height="296.6"/><polygon points="175.3 992.1 175.3 182.3 0 1 0 992.1 175.3 992.1"/></g>
</g><g transform="translate(3967.6,3968.4)">
<g id="layer-1" fill="#3d0d1f" data-original="#3d0d1f"><rect x="496" width="496" height="296.6"/><polygon points="816.7 7.1 816.7 810.8 991.9 992.1 991.9 7.1 816.7 7.1"/></g>
<g id="layer-2" fill="#a8b7b6" data-original="#a8b7b6"><polygon points="816.7 810.8 496 810.8 496 992.1 991.9 992.1 816.7 810.8"/><polygon points="175.3 182.3 496 182.3 496 1 0 1 175.3 182.3"/></g>
<g id="layer-3" fill="#997533" data-original="#997533"><rect x="0" y="695.6" width="496" height="296.6"/><polygon points="175.3 992.1 175.3 182.3 0 1 0 992.1 175.3 992.1"/></g>
</g><g transform="translate(4959.5,3968.4)">
<g id="layer-1" fill="#3d0d1f" data-original="#3d0d1f"><rect x="496" width="496" height="296.6"/><polygon points="816.7 7.1 816.7 810.8 991.9 992.1 991.9 7.1 816.7 7.1"/></g>
<g id="layer-2" fill="#a8b7b6" data-original="#a8b7b6"><polygon points="816.7 810.8 496 810.8 496 992.1 991.9 992.1 816.7 810.8"/><polygon points="175.3 182.3 496 182.3 496 1 0 1 175.3 182.3"/></g>
<g id="layer-3" fill="#997533" data-original="#997533"><rect x="0" y="695.6" width="496" height="296.6"/><polygon points="175.3 992.1 175.3 182.3 0 1 0 992.1 175.3 992.1"/></g>
</g><g transform="translate(5951.4,3968.4)">
<g id="layer-1" fill="#3d0d1f" data-original="#3d0d1f"><rect x="496" width="496" height="296.6"/><polygon points="816.7 7.1 816.7 810.8 991.9 992.1 991.9 7.1 816.7 7.1"/></g>
<g id="layer-2" fill="#a8b7b6" data-original="#a8b7b6"><polygon points="816.7 810.8 496 810.8 496 992.1 991.9 992.1 816.7 810.8"/><polygon points="175.3 182.3 496 182.3 496 1 0 1 175.3 182.3"/></g>
<g id="layer-3" fill="#997533" data-original="#997533"><rect x="0" y="695.6" width="496" height="296.6"/><polygon points="175.3 992.1 175.3 182.3 0 1 0 992.1 175.3 992.1"/></g>
</g><g transform="translate(1983.8,4960.5)">
<g id="layer-1" fill="#3d0d1f" data-original="#3d0d1f"><rect x="496" width="496" height="296.6"/><polygon points="816.7 7.1 816.7 810.8 991.9 992.1 991.9 7.1 816.7 7.1"/></g>
<g id="layer-2" fill="#a8b7b6" data-original="#a8b7b6"><polygon points="816.7 810.8 496 810.8 496 992.1 991.9 992.1 816.7 810.8"/><polygon points="175.3 182.3 496 182.3 496 1 0 1 175.3 182.3"/></g>
<g id="layer-3" fill="#997533" data-original="#997533"><rect x="0" y="695.6" width="496" height="296.6"/><polygon points="175.3 992.1 175.3 182.3 0 1 0 992.1 175.3 992.1"/></g>
</g><g transform="translate(2975.7,4960.5)">
<g id="layer-1" fill="#3d0d1f" data-original="#3d0d1f"><rect x="496" width="496" height="296.6"/><polygon points="816.7 7.1 816.7 810.8 991.9 992.1 991.9 7.1 816.7 7.1"/></g>
<g id="layer-2" fill="#a8b7b6" data-original="#a8b7b6"><polygon points="816.7 810.8 496 810.8 496 992.1 991.9 992.1 816.7 810.8"/><polygon points="175.3 182.3 496 182.3 496 1 0 1 175.3 182.3"/></g>
<g id="layer-3" fill="#997533" data-original="#997533"><rect x="0" y="695.6" width="496" height="296.6"/><polygon points="175.3 992.1 175.3 182.3 0 1 0 992.1 175.3 992.1"/></g>
</g><g transform="translate(3967.6,4960.5)">
<g id="layer-1" fill="#3d0d1f" data-original="#3d0d1f"><rect x="496" width="496" height="296.6"/><polygon points="816.7 7.1 816.7 810.8 991.9 992.1 991.9 7.1 816.7 7.1"/></g>
<g id="layer-2" fill="#a8b7b6" data-original="#a8b7b6"><polygon points="816.7 810.8 496 810.8 496 992.1 991.9 992.1 816.7 810.8"/><polygon points="175.3 182.3 496 182.3 496 1 0 1 175.3 182.3"/></g>
<g id="layer-3" fill="#997533" data-original="#997533"><rect x="0" y="695.6" width="496" height="296.6"/><polygon points="175.3 992.1 175.3 182.3 0 1 0 992.1 175.3 992.1"/></g>
</g><g transform="translate(4959.5,4960.5)">
<g id="layer-1" fill="#3d0d1f" data-original="#3d0d1f"><rect x="496" width="496" height="296.6"/><polygon points="816.7 7.1 816.7 810.8 991.9 992.1 991.9 7.1 816.7 7.1"/></g>
<g id="layer-2" fill="#a8b7b6" data-original="#a8b7b6"><polygon points="816.7 810.8 496 810.8 496 992.1 991.9 992.1 816.7 810.8"/><polygon points="175.3 182.3 496 182.3 496 1 0 1 175.3 182.3"/></g>
<g id="layer-3" fill="#997533" data-original="#997533"><rect x="0" y="695.6" width="496" height="296.6"/><polygon points="175.3 992.1 175.3 182.3 0 1 0 992.1 175.3 992.1"/></g>
</g><g transform="translate(5951.4,4960.5)">
<g id="layer-1" fill="#3d0d1f" data-original="#3d0d1f"><rect x="496" width="496" height="296.6"/><polygon points="816.7 7.1 816.7 810.8 991.9 992.1 991.9 7.1 816.7 7.1"/></g>
<g id="layer-2" fill="#a8b7b6" data-original="#a8b7b6"><polygon points="816.7 810.8 496 810.8 496 992.1 991.9 992.1 816.7 810.8"/><polygon points="175.3 182.3 496 182.3 496 1 0 1 175.3 182.3"/></g>
<g id="layer-3" fill="#997533" data-original="#997533"><rect x="0" y="695.6" width="496" height="296.6"/><polygon points="175.3 992.1 175.3 182.3 0 1 0 992.1 175.3 992.1"/></g>
</g><g transform="translate(1983.8,5952.6)">
<g id="layer-1" fill="#3d0d1f" data-original="#3d0d1f"><rect x="496" width="496" height="296.6"/><polygon points="816.7 7.1 816.7 810.8 991.9 992.1 991.9 7.1 816.7 7.1"/></g>
<g id="layer-2" fill="#a8b7b6" data-original="#a8b7b6"><polygon points="816.7 810.8 496 810.8 496 992.1 991.9 992.1 816.7 810.8"/><polygon points="175.3 182.3 496 182.3 496 1 0 1 175.3 182.3"/></g>
<g id="layer-3" fill="#997533" data-original="#997533"><rect x="0" y="695.6" width="496" height="296.6"/><polygon points="175.3 992.1 175.3 182.3 0 1 0 992.1 175.3 992.1"/></g>
</g><g transform="translate(2975.7,5952.6)">
<g id="layer-1" fill="#3d0d1f" data-original="#3d0d1f"><rect x="496" width="496" height="296.6"/><polygon points="816.7 7.1 816.7 810.8 991.9 992.1 991.9 7.1 816.7 7.1"/></g>
<g id="layer-2" fill="#a8b7b6" data-original="#a8b7b6"><polygon points="816.7 810.8 496 810.8 496 992.1 991.9 992.1 816.7 810.8"/><polygon points="175.3 182.3 496 182.3 496 1 0 1 175.3 182.3"/></g>
<g id="layer-3" fill="#997533" data-original="#997533"><rect x="0" y="695.6" width="496" height="296.6"/><polygon points="175.3 992.1 175.3 182.3 0 1 0 992.1 175.3 992.1"/></g>
</g><g transform="translate(3967.6,5952.6)">
<g id="layer-1" fill="#3d0d1f" data-original="#3d0d1f"><rect x="496" width="496" height="296.6"/><polygon points="816.7 7.1 816.7 810.8 991.9 992.1 991.9 7.1 816.7 7.1"/></g>
<g id="layer-2" fill="#a8b7b6" data-original="#a8b7b6"><polygon points="816.7 810.8 496 810.8 496 992.1 991.9 992.1 816.7 810.8"/><polygon points="175.3 182.3 496 182.3 496 1 0 1 175.3 182.3"/></g>
<g id="layer-3" fill="#997533" data-original="#997533"><rect x="0" y="695.6" width="496" height="296.6"/><polygon points="175.3 992.1 175.3 182.3 0 1 0 992.1 175.3 992.1"/></g>
</g><g transform="translate(4959.5,5952.6)">
<g id="layer-1" fill="#3d0d1f" data-original="#3d0d1f"><rect x="496" width="496" height="296.6"/><polygon points="816.7 7.1 816.7 810.8 991.9 992.1 991.9 7.1 816.7 7.1"/></g>
<g id="layer-2" fill="#a8b7b6" data-original="#a8b7b6"><polygon points="816.7 810.8 496 810.8 496 992.1 991.9 992.1 816.7 810.8"/><polygon points="175.3 182.3 496 182.3 496 1 0 1 175.3 182.3"/></g>
<g id="layer-3" fill="#997533" data-original="#997533"><rect x="0" y="695.6" width="496" height="296.6"/><polygon points="175.3 992.1 175.3 182.3 0 1 0 992.1 175.3 992.1"/></g>
</g><g transform="translate(5951.4,5952.6)">
<g id="layer-1" fill="#3d0d1f" data-original="#3d0d1f"><rect x="496" width="496" height="296.6"/><polygon points="816.7 7.1 816.7 810.8 991.9 992.1 991.9 7.1 816.7 7.1"/></g>
<g id="layer-2" fill="#a8b7b6" data-original="#a8b7b6"><polygon points="816.7 810.8 496 810.8 496 992.1 991.9 992.1 816.7 810.8"/><polygon points="175.3 182.3 496 182.3 496 1 0 1 175.3 182.3"/></g>
<g id="layer-3" fill="#997533" data-original="#997533"><rect x="0" y="695.6" width="496" height="296.6"/><polygon points="175.3 992.1 175.3 182.3 0 1 0 992.1 175.3 992.1"/></g>
</g><g transform="translate(1983.8,6944.7)">
<g id="layer-1" fill="#3d0d1f" data-original="#3d0d1f"><rect x="496" width="496" height="296.6"/><polygon points="816.7 7.1 816.7 810.8 991.9 992.1 991.9 7.1 816.7 7.1"/></g>
<g id="layer-2" fill="#a8b7b6" data-original="#a8b7b6"><polygon points="816.7 810.8 496 810.8 496 992.1 991.9 992.1 816.7 810.8"/><polygon points="175.3 182.3 496 182.3 496 1 0 1 175.3 182.3"/></g>
<g id="layer-3" fill="#997533" data-original="#997533"><rect x="0" y="695.6" width="496" height="296.6"/><polygon points="175.3 992.1 175.3 182.3 0 1 0 992.1 175.3 992.1"/></g>
</g><g transform="translate(2975.7,6944.7)">
<g id="layer-1" fill="#3d0d1f" data-original="#3d0d1f"><rect x="496" width="496" height="296.6"/><polygon points="816.7 7.1 816.7 810.8 991.9 992.1 991.9 7.1 816.7 7.1"/></g>
<g id="layer-2" fill="#a8b7b6" data-original="#a8b7b6"><polygon points="816.7 810.8 496 810.8 496 992.1 991.9 992.1 816.7 810.8"/><polygon points="175.3 182.3 496 182.3 496 1 0 1 175.3 182.3"/></g>
<g id="layer-3" fill="#997533" data-original="#997533"><rect x="0" y="695.6" width="496" height="296.6"/><polygon points="175.3 992.1 175.3 182.3 0 1 0 992.1 175.3 992.1"/></g>
</g><g transform="translate(3967.6,6944.7)">
<g id="layer-1" fill="#3d0d1f" data-original="#3d0d1f"><rect x="496" width="496" height="296.6"/><polygon points="816.7 7.1 816.7 810.8 991.9 992.1 991.9 7.1 816.7 7.1"/></g>
<g id="layer-2" fill="#a8b7b6" data-original="#a8b7b6"><polygon points="816.7 810.8 496 810.8 496 992.1 991.9 992.1 816.7 810.8"/><polygon points="175.3 182.3 496 182.3 496 1 0 1 175.3 182.3"/></g>
<g id="layer-3" fill="#997533" data-original="#997533"><rect x="0" y="695.6" width="496" height="296.6"/><polygon points="175.3 992.1 175.3 182.3 0 1 0 992.1 175.3 992.1"/></g>
</g><g transform="translate(4959.5,6944.7)">
<g id="layer-1" fill="#3d0d1f" data-original="#3d0d1f"><rect x="496" width="496" height="296.6"/><polygon points="816.7 7.1 816.7 810.8 991.9 992.1 991.9 7.1 816.7 7.1"/></g>
<g id="layer-2" fill="#a8b7b6" data-original="#a8b7b6"><polygon points="816.7 810.8 496 810.8 496 992.1 991.9 992.1 816.7 810.8"/><polygon points="175.3 182.3 496 182.3 496 1 0 1 175.3 182.3"/></g>
<g id="layer-3" fill="#997533" data-original="#997533"><rect x="0" y="695.6" width="496" height="296.6"/><polygon points="175.3 992.1 175.3 182.3 0 1 0 992.1 175.3 992.1"/></g>
</g><g transform="translate(5951.4,6944.7)">
<g id="layer-1" fill="#3d0d1f" data-original="#3d0d1f"><rect x="496" width="496" height="296.6"/><polygon points="816.7 7.1 816.7 810.8 991.9 992.1 991.9 7.1 816.7 7.1"/></g>
<g id="layer-2" fill="#a8b7b6" data-original="#a8b7b6"><polygon points="816.7 810.8 496 810.8 496 992.1 991.9 992.1 816.7 810.8"/><polygon points="175.3 182.3 496 182.3 496 1 0 1 175.3 182.3"/></g>
<g id="layer-3" fill="#997533" data-original="#997533"><rect x="0" y="695.6" width="496" height="296.6"/><polygon points="175.3 992.1 175.3 182.3 0 1 0 992.1 175.3 992.1"/></g>
</g><g transform="translate(1983.8,7936.8)">
<g id="layer-1" fill="#3d0d1f" data-original="#3d0d1f"><rect x="496" width="496" height="296.6"/><polygon points="816.7 7.1 816.7 810.8 991.9 992.1 991.9 7.1 816.7 7.1"/></g>
<g id="layer-2" fill="#a8b7b6" data-original="#a8b7b6"><polygon points="816.7 810.8 496 810.8 496 992.1 991.9 992.1 816.7 810.8"/><polygon points="175.3 182.3 496 182.3 496 1 0 1 175.3 182.3"/></g>
<g id="layer-3" fill="#997533" data-original="#997533"><rect x="0" y="695.6" width="496" height="296.6"/><polygon points="175.3 992.1 175.3 182.3 0 1 0 992.1 175.3 992.1"/></g>
</g><g transform="translate(2975.7,7936.8)">
<g id="layer-1" fill="#3d0d1f" data-original="#3d0d1f"><rect x="496" width="496" height="296.6"/><polygon points="816.7 7.1 816.7 810.8 991.9 992.1 991.9 7.1 816.7 7.1"/></g>
<g id="layer-2" fill="#a8b7b6" data-original="#a8b7b6"><polygon points="816.7 810.8 496 810.8 496 992.1 991.9 992.1 816.7 810.8"/><polygon points="175.3 182.3 496 182.3 496 1 0 1 175.3 182.3"/></g>
<g id="layer-3" fill="#997533" data-original="#997533"><rect x="0" y="695.6" width="496" height="296.6"/><polygon points="175.3 992.1 175.3 182.3 0 1 0 992.1 175.3 992.1"/></g>
</g><g transform="translate(3967.6,7936.8)">
<g id="layer-1" fill="#3d0d1f" data-original="#3d0d1f"><rect x="496" width="496" height="296.6"/><polygon points="816.7 7.1 816.7 810.8 991.9 992.1 991.9 7.1 816.7 7.1"/></g>
<g id="layer-2" fill="#a8b7b6" data-original="#a8b7b6"><polygon points="816.7 810.8 496 810.8 496 992.1 991.9 992.1 816.7 810.8"/><polygon points="175.3 182.3 496 182.3 496 1 0 1 175.3 182.3"/></g>
<g id="layer-3" fill="#997533" data-original="#997533"><rect x="0" y="695.6" width="496" height="296.6"/><polygon points="175.3 992.1 175.3 182.3 0 1 0 992.1 175.3 992.1"/></g>
</g><g transform="translate(4959.5,7936.8)">
<g id="layer-1" fill="#3d0d1f" data-original="#3d0d1f"><rect x="496" width="496" height="296.6"/><polygon points="816.7 7.1 816.7 810.8 991.9 992.1 991.9 7.1 816.7 7.1"/></g>
<g id="layer-2" fill="#a8b7b6" data-original="#a8b7b6"><polygon points="816.7 810.8 496 810.8 496 992.1 991.9 992.1 816.7 810.8"/><polygon points="175.3 182.3 496 182.3 496 1 0 1 175.3 182.3"/></g>
<g id="layer-3" fill="#997533" data-original="#997533"><rect x="0" y="695.6" width="496" height="296.6"/><polygon points="175.3 992.1 175.3 182.3 0 1 0 992.1 175.3 992.1"/></g>
</g><g transform="translate(5951.4,7936.8)">
<g id="layer-1" fill="#3d0d1f" data-original="#3d0d1f"><rect x="496" width="496" height="296.6"/><polygon points="816.7 7.1 816.7 810.8 991.9 992.1 991.9 7.1 816.7 7.1"/></g>
<g id="layer-2" fill="#a8b7b6" data-original="#a8b7b6"><polygon points="816.7 810.8 496 810.8 496 992.1 991.9 992.1 816.7 810.8"/><polygon points="175.3 182.3 496 182.3 496 1 0 1 175.3 182.3"/></g>
<g id="layer-3" fill="#997533" data-original="#997533"><rect x="0" y="695.6" width="496" height="296.6"/><polygon points="175.3 992.1 175.3 182.3 0 1 0 992.1 175.3 992.1"/></g>
</g>
</svg>