<svg xmlns="http://www.w3.org/2000/svg" viewBox="0 0 5620.766666666666 7605.966666666666">
<defs><linearGradient id="g_cerdan" x1="0" y1="0" x2="0" y2="1"><stop offset="0" stop-color="#a57574"/><stop offset="1" stop-color="#c7b1a2"/></linearGradient></defs>
<rect width="5620.766666666666" height="7605.966666666666" fill="#3d0d1f"/>
<rect x="165.31666666666666" y="165.31666666666666" width="5290.133333333333" height="7275.333333333333" fill="#1a0510"/>
<rect x="330.6333333333333" y="330.6333333333333" width="4959.5" height="6944.7" fill="url(#g_cerdan)"/>
<g transform="translate(330.6333333333333,330.6333333333333)">
<g id="layer-1" fill="#3d0d1f" data-original="#3d0d1f"><rect x="496" width="496" height="296.6"/><polygon points="816.7 7.1 816.7 810.8 991.9 992.1 991.9 7.1 816.7 7.1"/></g>
<g id="layer-2" fill="#a8b7b6" data-original="#a8b7b6"><polygon points="816.7 810.8 496 810.8 496 992.1 991.9 992.1 816.7 810.8"/><polygon points="175.3 182.3 496 182.3 496 1 0 1 175.3 182.3"/></g>
<g id="layer-3" fill="#997533" data-original="#997533"><rect x="0" y="695.6" width="496" height="296.6"/><polygon points="175.3 992.1 175.3 182.3 0 1 0 992.1 175.3 992.1"/></g>
</g><g transform="translate(1322.5333333333333,330.6333333333333)">
<g id="layer-1" fill="#3d0d1f" data-original="#3d0d1f"><rect x="496" width="496" height="296.6"/><polygon points="816.7 7.1 816.7 810.8 991.9 992.1 991.9 7.1 816.7 7.1"/></g>
<g id="layer-2" fill="#a8b7b6" data-original="#a8b7b6"><polygon points="816.7 810.8 496 810.8 496 992.1 991.9 992.1 816.7 810.8"/><polygon points="175.3 182.3 496 182.3 496 1 0 1 175.3 182.3"/></g>
<g id="layer-3" fill="#997533" data-original="#997533"><rect x="0" y="695.6" width="496" height="296.6"/><polygon points="175.3 992.1 175.3 182.3 0 1 0 992.1 175.3 992.1"/></g>
</g><g transform="translate(2314.4333333333334,330.6333333333333)">
<g id="layer-1" fill="#3d0d1f" data-original="#3d0d1f"><rect x="496" width="496" height="296.6"/><polygon points="816.7 7.1 816.7 810.8 991.9 992.1 991.9 7.1 816.7 7.1"/></g>
<g id="layer-2" fill="#a8b7b6" data-original="#a8b7b6"><polygon points="816.7 810.8 496 810.8 496 992.1 991.9 992.1 816.7 810.8"/><polygon points="175.3 182.3 496 182.3 496 1 0 1 175.3 182.3"/></g>
<g id="layer-3" fill="#997533" data-original="#997533"><rect x="0" y="695.6" width="496" height="296.6"/><polygon points="175.3 992.1 175.3 182.3 0 1 0 992.1 175.3 992.1"/></g>
</g><g transform="translate(3306.333333333333,330.6333333333333)">
<g id="layer-1" fill="#3d0d1f" data-original="#3d0d1f"><rect x="496" width="496" height="296.6"/><polygon points="816.7 7.1 816.7 810.8 991.9 992.1 991.9 7.1 816.7 7.1"/></g>
<g id="layer-2" fill="#a8b7b6" data-original="#a8b7b6"><polygon points="816.7 810.8 496 810.8 496 992.1 991.9 992.1 816.7 810.8"/><polygon points="175.3 182.3 496 182.3 496 1 0 1 175.3 182.3"/></g>
<g id="layer-3" fill="#997533" data-original="#997533"><rect x="0" y="695.6" width="496" height="296.6"/><polygon points="175.3 992.1 175.3 182.3 0 1 0 992.1 175.3 992.1"/></g>
</g><g transform="translate(4298.233333333334,330.6333333333333)">
<g id="layer-1" fill="#3d0d1f" data-original="#3d0d1f"><rect x="496" width="496" height="296.6"/><polygon points="816.7 7.1 816.7 810.8 991.9 992.1 991.9 7.1 816.7 7.1"/></g>
<g id="layer-2" fill="#a8b7b6" data-original="#a8b7b6"><polygon points="816.7 810.8 496 810.8 496 992.1 991.9 992.1 816.7 810.8"/><polygon points="175.3 182.3 496 182.3 496 1 0 1 175.3 182.3"/></g>
<g id="layer-3" fill="#997533" data-original="#997533"><rect x="0" y="695.6" width="496" height="296.6"/><polygon points="175.3 992.1 175.3 182.3 0 1 0 992.1 175.3 992.1"/></g>
</g><g transform="translate(330.6333333333333,1322.7333333333333)">
<g id="layer-1" fill="#3d0d1f" data-original="#3d0d1f"><rect x="496" width="496" height="296.6"/><polygon points="816.7 7.1 816.7 810.8 991.9 992.1 991.9 7.1 816.7 7.1"/></g>
<g id="layer-2" fill="#a8b7b6" data-original="#a8b7b6"><polygon points="816.7 810.8 496 810.8 496 992.1 991.9 992.1 816.7 810.8"/><polygon points="175.3 182.3 496 182.3 496 1 0 1 175.3 182.3"/></g>
<g id="layer-3" fill="#997533" data-original="#997533"><rect x="0" y="695.6" width="496" height="296.6"/><polygon points="175.3 992.1 175.3 182.3 0 1 0 992.1 175.3 992.1"/></g>
</g><g transform="translate(1322.5333333333333,1322.7333333333333)">
<g id="layer-1" fill="#3d0d1f" data-original="#3d0d1f"><rect x="496" width="496" height="296.6"/><polygon points="816.7 7.1 816.7 810.8 991.9 992.1 991.9 7.1 816.7 7.1"/></g>
<g id="layer-2" fill="#a8b7b6" data-original="#a8b7b6"><polygon points="816.7 810.8 496 810.8 496 992.1 991.9 992.1 816.7 810.8"/><polygon points="175.3 182.3 496 182.3 496 1 0 1 175.3 182.3"/></g>
<g id="layer-3" fill="#997533" data-original="#997533"><rect x="0" y="695.6" width="496" height="296.6"/><polygon points="175.3 992.1 175.3 182.3 0 1 0 992.1 175.3 992.1"/></g>
</g><g transform="translate(2314.4333333333334,1322.7333333333333)">
<g id="layer-1" fill="#3d0d1f" data-original="#3d0d1f"><rect x="496" width="496" height="296.6"/><polygon points="816.7 7.1 816.7 810.8 991.9 992.1 991.9 7.1 816.7 7.1"/></g>
<g id="layer-2" fill="#a8b7b6" data-original="#a8b7b6"><polygon points="816.7 810.8 496 810.8 496 992.1 991.9 992.1 816.7 810.8"/><polygon points="175.3 182.3 496 182.3 496 1 0 1 175.3 182.3"/></g>
<g id="layer-3" fill="#997533" data-original="#997533"><rect x="0" y="695.6" width="496" height="296.6"/><polygon points="175.3 992.1 175.3 182.3 0 1 0 992.1 175.3 992.1"/></g>
</g><g transform="translate(3306.333333333333,1322.7333333333333)">
<g id="layer-1" fill="#3d0d1f" data-original="#3d0d1f"><rect x="496" width="496" height="296.6"/><polygon points="816.7 7.1 816.7 810.8 991.9 992.1 991.9 7.1 816.7 7.1"/></g>
<g id="layer-2" fill="#a8b7b6" data-original="#a8b7b6"><polygon points="816.7 810.8 496 810.8 496 992.1 991.9 992.1 816.7 810.8"/><polygon points="175.3 182.3 496 182.3 496 1 0 1 175.3 182.3"/></g>
<g id="layer-3" fill="#997533" data-original="#997533"><rect x="0" y="695.6" width="496" height="296.6"/><polygon points="175.3 992.1 175.3 182.3 0 1 0 992.1 175.3 992.1"/></g>
</g><g transform="translate(4298.233333333334,1322.7333333333333)">
<g id="layer-1" fill="#3d0d1f" data-original="#3d0d1f"><rect x="496" width="496" height="296.6"/><polygon points="816.7 7.1 816.7 810.8 991.9 992.1 991.9 7.1 816.7 7.1"/></g>
<g id="layer-2" fill="#a8b7b6" data-original="#a8b7b6"><polygon points="816.7 810.8 496 810.8 496 992.1 991.9 992.1 816.7 810.8"/><polygon points="175.3 182.3 496 182.3 496 1 0 1 175.3 182.3"/></g>
<g id="layer-3" fill="#997533" data-original="#997533"><rect x="0" y="695.6" width="496" height="296.6"/><polygon points="175.3 992.1 175.3 182.3 0 1 0 992.1 175.3 992.1"/></g>
</g><g transform="translate(330.6333333333333,2314.8333333333335)">
<g id="layer-1" fill="#3d0d1f" data-original="#3d0d1f"><rect x="496" width="496" height="296.6"/><polygon points="816.7 7.1 816.7 810.8 991.9 992.1 991.9 7.1 816.7 7.1"/></g>
<g id="layer-2" fill="#a8b7b6" data-original="#a8b7b6"><polygon points="816.7 810.8 496 810.8 496 992.1 991.9 992.1 816.7 810.8"/><polygon points="175.3 182.3 496 182.3 496 1 0 1 175.3 182.3"/></g>
<g id="layer-3" fill="#997533" data-original="#997533"><rect x="0" y="695.6" width="496" height="296.6"/><polygon points="175.3 992.1 175.3 182.3 0 1 0 992.1 175.3 992.1"/></g>
</g><g transform="translate(1322.5333333333333,2314.8333333333335)">
<g id="layer-1" fill="#3d0d1f" data-original="#3d0d1f"><rect x="496" width="496" height="296.6"/><polygon points="816.7 7.1 816.7 810.8 991.9 992.1 991.9 7.1 816.7 7.1"/></g>
<g id="layer-2" fill="#a8b7b6" data-original="#a8b7b6"><polygon points="816.7 810.8 496 810.8 496 992.1 991.9 992.1 816.7 810.8"/><polygon points="175.3 182.3 496 182.3 496 1 0 1 175.3 182.3"/></g>
<g id="layer-3" fill="#997533" data-original="#997533"><rect x="0" y="695.6" width="496" height="296.6"/><polygon points="175.3 992.1 175.3 182.3 0 1 0 992.1 175.3 992.1"/></g>
</g><g transform="translate(2314.4333333333334,2314.8333333333335)">
<g id="layer-1" fill="#3d0d1f" data-original="#3d0d1f"><rect x="496" width="496" height="296.6"/><polygon points="816.7 7.1 816.7 810.8 991.9 992.1 991.9 7.1 816.7 7.1"/></g>
<g id="layer-2" fill="#a8b7b6" data-original="#a8b7b6"><polygon points="816.7 810.8 496 810.8 496 992.1 991.9 992.1 816.7 810.8"/><polygon points="175.3 182.3 496 182.3 496 1 0 1 175.3 182.3"/></g>
<g id="layer-3" fill="#997533" data-original="#997533"><rect x="0" y="695.6" width="496" height="296.6"/><polygon points="175.3 992.1 175.3 182.3 0 1 0 992.1 175.3 992.1"/></g>
</g><g transform="translate(3306.333333333333,2314.8333333333335)">
<g id="layer-1" fill="#3d0d1f" data-original="#3d0d1f"><rect x="496" width="496" height="296.6"/><polygon points="816.7 7.1 816.7 810.8 991.9 992.1 991.9 7.1 816.7 7.1"/></g>
<g id="layer-2" fill="#a8b7b6" data-original="#a8b7b6"><polygon points="816.7 810.8 496 810.8 496 992.1 991.9 992.1 816.7 810.8"/><polygon points="175.3 182.3 496 182.3 496 1 0 1 175.3 182.3"/></g>
<g id="layer-3" fill="#997533" data-original="#997533"><rect x="0" y="695.6" width="496" height="296.6"/><polygon points="175.3 992.1 175.3 182.3 0 1 0 992.1 175.3 992.1"/></g>
</g><g transform="translate(4298.233333333334,2314.8333333333335)">
<g id="layer-1" fill="#3d0d1f" data-original="#3d0d1f"><rect x="496" width="496" height="296.6"/><polygon points="816.7 7.1 816.7 810.8 991.9 992.1 991.9 7.1 816.7 7.1"/></g>
<g id="layer-2" fill="#a8b7b6" data-original="#a8b7b6"><polygon points="816.7 810.8 496 810.8 496 992.1 991.9 992.1 816.7 810.8"/><polygon points="175.3 182.3 496 182.3 496 1 0 1 175.3 182.3"/></g>
<g id="layer-3" fill="#997533" data-original="#997533"><rect x="0" y="695.6" width="496" height="296.6"/><polygon points="175.3 992.1 175.3 182.3 0 1 0 992.1 175.3 992.1"/></g>
</g><g transform="translate(330.6333333333333,3306.9333333333334)">
<g id="layer-1" fill="#3d0d1f" data-original="#3d0d1f"><rect x="496" width="496" height="296.6"/><polygon points="816.7 7.1 816.7 810.8 991.9 992.1 991.9 7.1 816.7 7.1"/></g>
<g id="layer-2" fill="#a8b7b6" data-original="#a8b7b6"><polygon points="816.7 810.8 496 810.8 496 992.1 991.9 992.1 816.7 810.8"/><polygon points="175.3 182.3 496 182.3 496 1 0 1 175.3 182.3"/></g>
<g id="layer-3" fill="#997533" data-original="#997533"><rect x="0" y="695.6" width="496" height="296.6"/><polygon points="175.3 992.1 175.3 182.3 0 1 0 992.1 175.3 992.1"/></g>
</g><g transform="translate(1322.5333333333333,3306.9333333333334)">
<g id="layer-1" fill="#3d0d1f" data-original="#3d0d1f"><rect x="496" width="496" height="296.6"/><polygon points="816.7 7.1 816.7 810.8 991.9 992.1 991.9 7.1 816.7 7.1"/></g>
<g id="layer-2" fill="#a8b7b6" data-original="#a8b7b6"><polygon points="816.7 810.8 496 810.8 496 992.1 991.9 992.1 816.7 810.8"/><polygon points="175.3 182.3 496 182.3 496 1 0 1 175.3 182.3"/></g>
<g id="layer-3" fill="#997533" data-original="#997533"><rect x="0" y="695.6" width="496" height="296.6"/><polygon points="175.3 992.1 175.3 182.3 0 1 0 992.1 175.3 992.1"/></g>
</g><g transform="translate(2314.4333333333334,3306.9333333333334)">
<g id="layer-1" fill="#3d0d1f" data-original="#3d0d1f"><rect x="496" width="496" height="296.6"/><polygon points="816.7 7.1 816.7 810.8 991.9 992.1 991.9 7.1 816.7 7.1"/></g>
<g id="layer-2" fill="#a8b7b6" data-original="#a8b7b6"><polygon points="816.7 810.8 496 810.8 496 992.1 991.9 992.1 816.7 810.8"/><polygon points="175.3 182.3 496 182.3 496 1 0 1 175.3 182.3"/></g>
<g id="layer-3" fill="#997533" data-original="#997533"><rect x="0" y="695.6" width="496" height="296.6"/><polygon points="175.3 992.1 175.3 182.3 0 1 0 992.1 175.3 992.1"/></g>
</g><g transform="translate(3306.333333333333,3306.9333333333334)">
<g id="layer-1" fill="#3d0d1f" data-original="#3d0d1f"><rect x="496" width="496" height="296.6"/><polygon points="816.7 7.1 816.7 810.8 991.9 992.1 991.9 7.1 816.7 7.1"/></g>
<g id="layer-2" fill="#a8b7b6" data-original="#a8b7b6"><polygon points="816.7 810.8 496 810.8 496 992.1 991.9 992.1 816.7 810.8"/><polygon points="175.3 182.3 496 182.3 496 1 0 1 175.3 182.3"/></g>
<g id="layer-3" fill="#997533" data-original="#997533"><rect x="0" y="695.6" width="496" height="296.6"/><polygon points="175.3 992.1 175.3 182.3 0 1 0 992.1 175.3 992.1"/></g>
</g><g transform="translate(4298.233333333334,3306.9333333333334)">
<g id="layer-1" fill="#3d0d1f" data-original="#3d0d1f"><rect x="496" width="496" height="296.6"/><polygon points="816.7 7.1 816.7 810.8 991.9 992.1 991.9 7.1 816.7 7.1"/></g>
<g id="layer-2" fill="#a8b7b6" data-original="#a8b7b6"><polygon points="816.7 810.8 496 810.8 496 992.1 991.9 992.1 816.7 810.8"/><polygon points="175.3 182.3 496 182.3 496 1 0 1 175.3 182.3"/></g>
<g id="layer-3" fill="#997533" data-original="#997533"><rect x="0" y="695.6" width="496" height="296.6"/><polygon points="175.3 992.1 175.3 182.3 0 1 0 992.1 175.3 992.1"/></g>
</g><g transform="translate(330.6333333333333,4299.033333333334)">
<g id="layer-1" fill="#3d0d1f" data-original="#3d0d1f"><rect x="496" width="496" height="296.6"/><polygon points="816.7 7.1 816.7 810.8 991.9 992.1 991.9 7.1 816.7 7.1"/></g>
<g id="layer-2" fill="#a8b7b6" data-original="#a8b7b6"><polygon points="816.7 810.8 496 810.8 496 992.1 991.9 992.1 816.7 810.8"/><polygon points="175.3 182.3 496 182.3 496 1 0 1 175.3 182.3"/></g>
<g id="layer-3" fill="#997533" data-original="#997533"><rect x="0" y="695.6" width="496" height="296.6"/><polygon points="175.3 992.1 175.3 182.3 0 1 0 992.1 175.3 992.1"/></g>
</g><g transform="translate(1322.5333333333333,4299.033333333334)">
<g id="layer-1" fill="#3d0d1f" data-original="#3d0d1f"><rect x="496" width="496" height="296.6"/><polygon points="816.7 7.1 816.7 810.8 991.9 992.1 991.9 7.1 816.7 7.1"/></g>
<g id="layer-2" fill="#a8b7b6" data-original="#a8b7b6"><polygon points="816.7 810.8 496 810.8 496 992.1 991.9 992.1 816.7 810.8"/><polygon points="175.3 182.3 496 182.3 496 1 0 1 175.3 182.3"/></g>
<g id="layer-3" fill="#997533" data-original="#997533"><rect x="0" y="695.6" width="496" height="296.6"/><polygon points="175.3 992.1 175.3 182.3 0 1 0 992.1 175.3 992.1"/></g>
</g><g transform="translate(2314.4333333333334,4299.033333333334)">
<g id="layer-1" fill="#3d0d1f" data-original="#3d0d1f"><rect x="496" width="496" height="296.6"/><polygon points="816.7 7.1 816.7 810.8 991.9 992.1 991.9 7.1 816.7 7.1"/></g>
<g id="layer-2" fill="#a8b7b6" data-original="#a8b7b6"><polygon points="816.7 810.8 496 810.8 496 992.1 991.9 992.1 816.7 810.8"/><polygon points="175.3 182.3 496 182.3 496 1 0 1 175.3 182.3"/></g>
<g id="layer-3" fill="#997533" data-original="#997533"><rect x="0" y="695.6" width="496" height="296.6"/><polygon points="175.3 992.1 175.3 182.3 0 1 0 992.1 175.3 992.1"/></g>
</g><g transform="translate(3306.333333333333,4299.033333333334)">
<g id="layer-1" fill="#3d0d1f" data-original="#3d0d1f"><rect x="496" width="496" height="296.6"/><polygon points="816.7 7.1 816.7 810.8 991.9 992.1 991.9 7.1 816.7 7.1"/></g>
<g id="layer-2" fill="#a8b7b6" data-original="#a8b7b6"><polygon points="816.7 810.8 496 810.8 496 992.1 991.9 992.1 816.7 810.8"/><polygon points="175.3 182.3 496 182.3 496 1 0 1 175.3 182.3"/></g>
<g id="layer-3" fill="#997533" data-original="#997533"><rect x="0" y="695.6" width="496" height="296.6"/><polygon points="175.3 992.1 175.3 182.3 0 1 0 992.1 175.3 992.1"/></g>
</g><g transform="translate(4298.233333333334,4299.033333333334)">
<g id="layer-1" fill="#3d0d1f" data-original="#3d0d1f"><rect x="496" width="496" height="296.6"/><polygon points="816.7 7.1 816.7 810.8 991.9 992.1 991.9 7.1 816.7 7.1"/></g>
<g id="layer-2" fill="#a8b7b6" data-original="#a8b7b6"><polygon points="816.7 810.8 496 810.8 496 992.1 991.9 992.1 816.7 810.8"/><polygon points="175.3 182.3 496 182.3 496 1 0 1 175.3 182.3"/></g>
<g id="layer-3" fill="#997533" data-original="#997533"><rect x="0" y="695.6" width="496" height="296.6"/><polygon points="175.3 992.1 175.3 182.3 0 1 0 992.1 175.3 992.1"/></g>
</g><g transform="translate(330.6333333333333,5291.133333333333)">
<g id="layer-1" fill="#3d0d1f" data-original="#3d0d1f"><rect x="496" width="496" height="296.6"/><polygon points="816.7 7.1 816.7 810.8 991.9 992.1 991.9 7.1 816.7 7.1"/></g>
<g id="layer-2" fill="#a8b7b6" data-original="#a8b7b6"><polygon points="816.7 810.8 496 810.8 496 992.1 991.9 992.1 816.7 810.8"/><polygon points="175.3 182.3 496 182.3 496 1 0 1 175.3 182.3"/></g>
<g id="layer-3" fill="#997533" data-original="#997533"><rect x="0" y="695.6" width="496" height="296.6"/><polygon points="175.3 992.1 175.3 182.3 0 1 0 992.1 175.3 992.1"/></g>
</g><g transform="translate(1322.5333333333333,5291.133333333333)">
<g id="layer-1" fill="#3d0d1f" data-original="#3d0d1f"><rect x="496" width="496" height="296.6"/><polygon points="816.7 7.1 816.7 810.8 991.9 992.1 991.9 7.1 816.7 7.1"/></g>
<g id="layer-2" fill="#a8b7b6" data-original="#a8b7b6"><polygon points="816.7 810.8 496 810.8 496 992.1 991.9 992.1 816.7 810.8"/><polygon points="175.3 182.3 496 182.3 496 1 0 1 175.3 182.3"/></g>
<g id="layer-3" fill="#997533" data-original="#997533"><rect x="0" y="695.6" width="496" height="296.6"/><polygon points="175.3 992.1 175.3 182.3 0 1 0 992.1 175.3 992.1"/></g>
</g><g transform="translate(2314.4333333333334,5291.133333333333)">
<g id="layer-1" fill="#3d0d1f" data-original="#3d0d1f"><rect x="496" width="496" height="296.6"/><polygon points="816.7 7.1 816.7 810.8 991.9 992.1 991.9 7.1 816.7 7.1"/></g>
<g id="layer-2" fill="#a8b7b6" data-original="#a8b7b6"><polygon points="816.7 810.8 496 810.8 496 992.1 991.9 992.1 816.7 810.8"/><polygon points="175.3 182.3 496 182.3 496 1 0 1 175.3 182.3"/></g>
<g id="layer-3" fill="#997533" data-original="#997533"><rect x="0" y="695.6" width="496" height="296.6"/><polygon points="175.3 992.1 175.3 182.3 0 1 0 992.1 175.3 992.1"/></g>
</g><g transform="translate(3306.333333333333,5291.133333333333)">
<g id="layer-1" fill="#3d0d1f" data-original="#3d0d1f"><rect x="496" width="496" height="296.6"/><polygon points="816.7 7.1 816.7 810.8 991.9 992.1 991.9 7.1 816.7 7.1"/></g>
<g id="layer-2" fill="#a8b7b6" data-original="#a8b7b6"><polygon points="816.7 810.8 496 810.8 496 992.1 991.9 992.1 816.7 810.8"/><polygon points="175.3 182.3 496 182.3 496 1 0 1 175.3 182.3"/></g>
<g id="layer-3" fill="#997533" data-original="#997533"><rect x="0" y="695.6" width="496" height="296.6"/><polygon points="175.3 992.1 175.3 182.3 0 1 0 992.1 175.3 992.1"/></g>
</g><g transform="translate(4298.233333333334,5291.133333333333)">
<g id="layer-1" fill="#3d0d1f" data-original="#3d0d1f"><rect x="496" width="496" height="296.6"/><polygon points="816.7 7.1 816.7 810.8 991.9 992.1 991.9 7.1 816.7 7.1"/></g>
<g id="layer-2" fill="#a8b7b6" data-original="#a8b7b6"><polygon points="816.7 810.8 496 810.8 496 992.1 991.9 992.1 816.7 810.8"/><polygon points="175.3 182.3 496 182.3 496 1 0 1 175.3 182.3"/></g>
<g id="layer-3" fill="#997533" data-original="#997533"><rect x="0" y="695.6" width="496" height="296.6"/><polygon points="175.3 992.1 175.3 182.3 0 1 0 992.1 175.3 992.1"/></g>
</g><g transform="translate(330.6333333333333,6283.233333333334)">
<g id="layer-1" fill="#3d0d1f" data-original="#3d0d1f"><rect x="496" width="496" height="296.6"/><polygon points="816.7 7.1 816.7 810.8 991.9 992.1 991.9 7.1 816.7 7.1"/></g>
<g id="layer-2" fill="#a8b7b6" data-original="#a8b7b6"><polygon points="816.7 810.8 496 810.8 496 992.1 991.9 992.1 816.7 810.8"/><polygon points="175.3 182.3 496 182.3 496 1 0 1 175.3 182.3"/></g>
<g id="layer-3" fill="#997533" data-original="#997533"><rect x="0" y="695.6" width="496" height="296.6"/><polygon points="175.3 992.1 175.3 182.3 0 1 0 992.1 175.3 992.1"/></g>
</g><g transform="translate(1322.5333333333333,6283.233333333334)">
<g id="layer-1" fill="#3d0d1f" data-original="#3d0d1f"><rect x="496" width="496" height="296.6"/><polygon points="816.7 7.1 816.7 810.8 991.9 992.1 991.9 7.1 816.7 7.1"/></g>
<g id="layer-2" fill="#a8b7b6" data-original="#a8b7b6"><polygon points="816.7 810.8 496 810.8 496 992.1 991.9 992.1 816.7 810.8"/><polygon points="175.3 182.3 496 182.3 496 1 0 1 175.3 182.3"/></g>
<g id="layer-3" fill="#997533" data-original="#997533"><rect x="0" y="695.6" width="496" height="296.6"/><polygon points="175.3 992.1 175.3 182.3 0 1 0 992.1 175.3 992.1"/></g>
</g><g transform="translate(2314.4333333333334,6283.233333333334)">
<g id="layer-1" fill="#3d0d1f" data-original="#3d0d1f"><rect x="496" width="496" height="296.6"/><polygon points="816.7 7.1 816.7 810.8 991.9 992.1 991.9 7.1 816.7 7.1"/></g>
<g id="layer-2" fill="#a8b7b6" data-original="#a8b7b6"><polygon points="816.7 810.8 496 810.8 496 992.1 991.9 992.1 816.7 810.8"/><polygon points="175.3 182.3 496 182.3 496 1 0 1 175.3 182.3"/></g>
<g id="layer-3" fill="#997533" data-original="#997533"><rect x="0" y="695.6" width="496" height="296.6"/><polygon points="175.3 992.1 175.3 182.3 0 1 0 992.1 175.3 992.1"/></g>
</g><g transform="translate(3306.333333333333,6283.233333333334)">
<g id="layer-1" fill="#3d0d1f" data-original="#3d0d1f"><rect x="496" width="496" height="296.6"/><polygon points="816.7 7.1 816.7 810.8 991.9 992.1 991.9 7.1 816.7 7.1"/></g>
<g id="layer-2" fill="#a8b7b6" data-original="#a8b7b6"><polygon points="816.7 810.8 496 810.8 496 992.1 991.9 992.1 816.7 810.8"/><polygon points="175.3 182.3 496 182.3 496 1 0 1 175.3 182.3"/></g>
<g id="layer-3" fill="#997533" data-original="#997533"><rect x="0" y="695.6" width="496" height="296.6"/><polygon points="175.3 992.1 175.3 182.3 0 1 0 992.1 175.3 992.1"/></g>
</g><g transform="translate(4298.233333333334,6283.233333333334)">
<g id="layer-1" fill="#3d0d1f" data-original="#3d0d1f"><rect x="496" width="496" height="296.6"/><polygon points="816.7 7.1 816.7 810.8 991.9 992.1 991.9 7.1 816.7 7.1"/></g>
<g id="layer-2" fill="#a8b7b6" data-original="#a8b7b6"><polygon points="816.7 810.8 496 810.8 496 992.1 991.9 992.1 816.7 810.8"/><polygon points="175.3 182.3 496 182.3 496 1 0 1 175.3 182.3"/></g>
<g id="layer-3" fill="#997533" data-original="#997533"><rect x="0" y="695.6" width="496" height="296.6"/><polygon points="175.3 992.1 175.3 182.3 0 1 0 992.1 175.3 992.1"/></g>
</g>
</svg>