<svg id="Calque_1" data-name="Calque 1" xmlns="http://www.w3.org/2000/svg" viewBox="0 0 4818.9 6803.15">
  <path d="M3154.02,52.79c19.43,1.79,38.69,5.09,57.58,10.56,80.7,23.36,154.79,54.35,220.89,105.33,28.83,22.24,55.46,47.16,86.1,67.09,49.27,32.05,107.05,50.01,159.09,77.83,75.7,40.46,137.66,100.9,211.84,143.83,42.37,24.52,88.23,43.05,131.91,65.4,188.53,96.47,333.69,262.58,532.05,339.15,58.17,22.45,76.29,91.1,85.28,150.2,6.67,43.9,18,83.18,17.61,127.69-.43,49.64-.86,99.27-1.3,148.91-.52,59.94-1.04,119.9.91,179.82,2.84,87.04,10.89,173.83,17.58,260.68,9.55,124.14,16.3,248.47,20.23,372.89,2.98,94.03,4.32,188.5-8.41,281.78-7.62,55.79-20.28,111.35-18.92,167.59.46,18.81,2.52,37.75,8.7,55.63,11.8,34.12,38.26,63.6,42.74,99.27,4.96,39.41,15.61,72.84,18.04,112.46,5.15,84,49.63,166.7,31.06,248.97-.73,3.24-1.56,6.47-2.06,9.76-3.47,23.03,9.58,44.97,16.33,67.33,11.2,37.09,5.06,76.59,1.12,115-10.35,100.99-4.72,203.45,16.64,302.87,18.95,88.17-5.57,178.74-23.3,267.14-17.02,84.83-27.85,170.78-32.4,257.03-3.05,57.76,39.83,100.06,58.36,155.14,10.22,30.39,20.01,61.98,16.43,93.71-2.02,17.9-8.23,35.13-11.51,52.86-11.39,61.59-15.37,124.41-11.85,186.86,2.69,47.77,9.76,95.54,6.28,143.26-3.92,53.73-21.07,105.68-38.11,157.05-2.64,7.96-5.28,15.91-7.92,23.87-8.34,25.15-3.94,41.25-5.17,67.6-4.77,101.66-9.53,203.32-14.3,304.99-.76,16.15-1.51,32.37.14,48.47,12.41,120.96,9.06,243.37-9.95,363.55-33.13,209.37,2.89,410.48-18.59,621.23-2.92,28.64-6.47,58.12-21.15,83.28-8.9,15.25-21.53,28.24-31.18,43.08-33.32,51.25-27.03,116.01-30.05,176.2-.59,11.83-1.65,23.87-6.37,34.82-4.31,10.02-11.51,18.68-19.26,26.61-44.33,45.37-108.08,69.82-172.18,80.71-64.1,10.88-129.69,9.52-194.78,11.08-122.43,2.93-244.33,16.3-365.58,32.68-59.97,8.1-122.66,16.72-179.85-2.26-33.7-11.19-62.18-27.12-96.93-34.68-38.9-8.46-76.57-18.1-116.35-22.81-79.16-9.37-159.33-7.92-238.75-2.67-109.52,7.24-228.73,33.67-337.92,22.56-113.91-11.59-228.53-35.02-339.08-63.46-36.46-9.38-73.04-19.72-106.06-37.18-8.46-4.48-16.68-9.41-25.46-13.3-38.54-17.07-83.34-12.34-125.51-7.26-33.86,4.08-67.71,8.16-101.57,12.24-17.94,2.16-35.94,4.33-54.02,4.46-12.07.09-22.29,8.45-34.02,11.17-9.53,2.21-19.52.59-29.18-1.04-87.19-14.7-174.38-29.4-261.58-44.1-174.35-29.4-342.42-11.02-519.44-14.44-19.75-.38-40.48-.55-57.95,8.22-9.47,4.76-17.64,12.01-27.87,15.05-14.13,4.2-29.26-.37-43.5-4.21-60.09-16.25-123.92-19.83-185.6-10.4-40.66,6.21-62.4,5.55-103.09,11.61-15,2.23-31.02,4.35-44.82-1.68-45.26-19.78-75.48-85.02-101.13-122.31-36.25-52.7-72.5-105.39-108.75-158.09-50.14-72.88-100.47-146.02-160.4-211.88-55.81-61.35-107.1-126.27-158.33-191.14-19.4-24.57-38.81-49.13-58.21-73.7-25.36-32.1-52.4-63.52-76.3-96.61-14.74-20.4-39.54-37.91-51.52-58.8-4.62-8.06-5.48-17.52-6.25-26.67-11.76-140.47-16.06-279.06-22.3-419.82-1.07-23.99-2.15-47.97-3.07-71.96-5.33-139.27-5.44-278.72-.31-418,3.14-85.17,8.02-156.55-1.82-241.26-3.7-31.82-8.56-63.61-8.87-95.63-.57-59.28,13.58-122.98-16.66-174.81-14.53-24.9-29.05-49.8-43.58-74.7-5.77-9.89-11.57-19.85-15.27-30.6-3.63-10.57-5.15-21.7-5.94-32.8-6.6-93.03,36.8-183.07,40.79-276.24,1.54-35.96-2.8-72.3,3.46-107.8,2.77-15.67,7.57-30.94,11.48-46.4,11.52-45.5,15.29-92.77,11.13-139.41-6.36-71.11-18.82-122.2-27.31-193.11-17.1-142.91-1-286.92-13.95-429.78-4.11-45.32-8.29-90.82-7.14-136.36,1.01-40-4.52-74.84-6.31-114.25-2.84-62.61-1.91-125.31.11-187.93.84-26.02-1.23-52.31-1.86-77.16-.71-28.2,14.34-47.21,25.94-72.28,19.08-41.24,24.26-99.92,25-144.39,1.03-61.63,1.84-122.21-6.79-183.52-.7-4.99-1.44-10.14,0-14.99,1.47-4.94,5.06-9.02,8.55-12.94,90.36-101.71,174.99-208.03,253.4-318.35,10.73-15.1,12.12-17.9,22.67-33.11,46.84-67.47,93.67-134.95,140.51-202.42,21.93-31.6,44.08-63.59,57.45-99.26,23.36-62.31,18.21-130.58,12.76-196.53,30.24-35.13,59.07-71.49,81.08-111.78,69.73-127.59,148.89-252.77,257.46-352.83,16.18-14.91,33.32-29.44,53.79-38.38,33.42-14.6,72.34-11.99,105.47-27.01,28.75-13.03,40.28-45.27,57.43-69.92,12.53-18.02,25.55-40.15,16.56-59.99-11.65-25.69-27.3-49.74-46.28-71.11-4.72-5.32-9.91-11.06-10.21-18.02-1.21-28.08,63.03-73.62,78.25-95.84,44.03-64.25,88.06-128.51,132.1-192.76,16.27-23.74,33.13-48.07,57.49-64.38,35.63-23.86,81.66-27.06,125.16-29.45,42.57-2.34,85.26-4.69,127.83-2.34,44.33,2.44,87.95,11.34,131.36,20.21,98.78,20.18,197.56,40.37,296.34,60.55,4.85.99,10.4,2.5,12.36,6.84,10.73,23.76,33.19,41.8,45.78,64.34,7.04,12.6,18.66,33.87,35.78,33.52,47.13-.98,81.35-40.95,127.48-47.31,46.54-6.42,93.96-6.45,138.17,5.1,18.52,4.84,37.76,7.17,56.97,6.9,45.86-.63,91.73-1.27,137.59-1.9,19.33-.27,38.75-.54,57.81-3.61,11.33-1.82,22.45-4.62,33.56-7.41,53.18-13.37,109.16-28.25,147.4-65.86,6.63-6.52,13.06-13.93,22.08-16.88,6.93-2.27,14.5-1.58,21.79-.84,56.53,5.74,114.71,6.7,171.04,1.73,43.95-3.88,89.01-7.62,133.14-3.56Z" fill="#978b7e"/>
  <g>
    <path d="M3864.35,6793.99c97.08-13.12,194.6-24.02,292.46-29.46,142.63-109.06,242.89-267.13,308.87-431.39,5.21-12.98,10.26-26.05,13.73-39.54,9.25-35.93,7.09-73.47,8.25-110.44,1.13-35.9,5.45-71.62,10.68-107.16,3.05-20.75-6.69-69.72,11.11-83.83,7.35-5.82,17.51-6.92,27.03-7.78,57.68-5.2,115.19-11.83,172.87-15.96-1.67-94.11-1.02-188.24,14.15-284.1,7.69-48.61,12.69-97.59,15.25-146.68-19.8-10.27-40.05-19.63-61.22-26.97-40.87-14.16-85.82-20.58-128.1-10.87-28.38,6.52-54.68,20.04-83.32,25.4-11.33,2.12-23.61,2.81-33.92-2.12-3.34-1.6-6.36-3.74-9.22-6.05-35.08-28.31-42.23-76.3-63.37-115.17-16.16-29.71-40.8-54.32-65.12-78.49-16.76-16.67-33.53-33.33-50.29-50-23.11-22.97-54.44-38.31-87.52-42.84-83.14-11.37-161.12,43.28-244.98,47.67-40.05,2.1-73.17-8.53-110.29-18.52-45.53-12.26-94.53-17.65-140.99-26.33-19.64-3.67-39.38-7.37-58.19-13.89-23.25-8.07-44.63-20.32-65.49-32.98-74.71-45.33-145.16-97.01-210.23-154.22-10.05-8.84-20.3-18.01-33.01-22.85-9.01-3.44-18.8-4.51-28.49-5.11-58.98-3.63-117.55,9.29-175.1,22.12-63.17,14.08-126.34,28.17-189.52,42.25-6.14,1.37-12.74,3-16.71,7.67-8.95,10.51,1.86,25.4,11.52,35.32,37,38.02,64.47,84.36,79.53,134.14,17.61,58.21,21.69,126.33,70.27,165.49,33.08,26.67,79.48,32.65,122.81,30.98,43.33-1.67,86.51-9.83,129.76-6.83,43.25,3,88.71,19.84,110.54,55.48,41.95,68.49,75.94,129.52,144.88,178.77,66.43,47.46,147.04,77.48,230.15,82.5,54.73,3.31,110.13-3.37,164.29,4.84,9.7,6.15-2.45,19.5-13.21,23.78-72.3,28.71-146.08,55.3-223.05,69.22-76.97,13.91-157.79,14.7-232.54-7.64-84.57-25.28-161.46-79.67-250.09-81.39-94.4-1.83-176.56,56.09-262.07,94.19-42.53,18.95-87.21,33.29-132.46,45.23-8.48,2.24,3.35,2.4-5.18,4.46.55,18.6,13.82,34.36,26.45,48.57,26.81,30.18,53.62,60.35,80.43,90.53,22.66,25.51,60.96,32.98,96.04,31.81,35.08-1.18,69.77-9.34,104.86-8.32,35.09,1.02,72.91,13.77,89.88,43,13.92,23.98,13,56.97,36.18,73.23,27.41,19.22,65.14.55,94.75-15.44,43.23-23.35,92.79-41.26,141.88-33.84,58.49,8.84,106.84,46.16,164.79,57.91,69.02,13.99,139.23,18.62,208.85,5.15,78.42-15.17,152.94-52.78,205.21-110.44,9.57-10.55,21.9-22.97,36.11-19.57,9.77,2.34,15.76,11.42,20.74,19.75,12.26,20.5,24.96,43.44,19.71,66.49-12.48,54.77-85.9,107.14-129.9,139.66-56.28,41.6-119.54,74.69-186.78,97.21-48.46,16.23-94.25,41.48-144.5,56.76-74.17,22.57-161.44,48.97-240.31,38.92-73.03-9.31-127.88-49.51-193.45-77.22-22.29-9.42-45.81-16.22-69.84-20.2-36.95-6.12-74.81-5.55-111.88-10.97-91.36-13.35-175.85-64.75-226.9-138.05-26.87-38.58-44.51-82.22-68.2-122.64-23.68-40.42-55.41-79.11-99.91-97.8-41.58-17.46-83.16-12.23-126.92-10.51-44.43,1.74-89.34,1.39-133.89,2.5-5.14.13-11.26.8-13.65,5.13-1.65,2.98-.83,6.6.04,9.86,11.39,42.84,33.25,75.76,50.88,116.27,21.08,48.44,40.96,97.35,59.61,146.69,8.58,22.7,16.91,45.48,25.77,68.08,41.21,105.01,117.5,197.27,215.07,260.11,81.07,52.2,174.57,83.64,266.92,114.54,16.63,5.56,33.57,10.83,50.52,16.1,52.46-5.92,104.79-13.23,155.07-16.55,79.43-5.25,159.59-6.7,238.75,2.67,39.79,4.71,77.45,14.34,116.35,22.81,34.74,7.56,63.23,23.49,96.93,34.68,57.19,18.98,119.88,10.36,179.85,2.26ZM3120.71,5351.61c-36.64-19.21-70.49-63.7-65.61-105.7,5.35-46.06,71.4-41.62,107.12-32.27,62.16,16.27,118.68,51.5,159.19,99.22,2.29,2.7,4.66,6.14,3.35,9.37-9.97,24.77-39.39,36.72-66.61,42.44-45.95,9.66-96.22,8.55-137.43-13.06ZM3544.75,5454.74c-67.93-65.9,12.35-151.69,92.13-144.95,41.11,3.47,78.71,24.17,110,49.77,7.57,6.2,15.16,13.14,18.13,22.21,5.77,17.66-7.76,35.49-21.71,48.37-26.63,24.58-59.08,44.72-95.51,51.44-36.42,6.72-77.07-1.64-103.04-26.84ZM4086.2,5706.01c-80.49-7.55-111.46-100.24-100.06-166.34,7.73-44.78,23.11-110.48,82.4-114.84,30.13-2.22,59.5,12.22,81.08,32.34,21.58,20.12,36.67,45.56,51.46,70.63,7.68,13.03,15.37,26.05,23.05,39.08,16.84,28.54,33.98,63.12,18.67,92.43-12.99,24.88-40.82,40.34-69.38,46.14-28.56,5.8-58.17,3.28-87.23.56ZM3726.76,6070.16c-27.42,5.25-53.51,15.44-80.58,22.14-32.77,8.12-152.79,7.6-114.83-55.9.79-1.33,1.64-2.61,2.54-3.86,20.65-28.6,68.58-36.73,100.03-48.61,46.45-17.54,92.9-35.07,139.35-52.6,31.48-11.88,63.6-23.91,97.4-26.05,8.36-.53,17.02-.39,24.72,2.74,23.23,9.47,26.24,40.28,18.66,63.22-12.32,37.29-43.57,68.45-82.15,81.91-33.45,11.67-70.22,10.3-105.15,16.99ZM4343.01,6095.97c-42.26-26.39-79.72-55.81-123.49-79.33-12.28-6.6-21.05-24.06-11.54-32.92.47-.44.98-.85,1.54-1.24,3.34-2.34,7.56-3.16,11.63-3.91,55.42-10.23,100.74-8.6,146.97,26.67,27.88,21.26,55.28,50.32,52.32,84.2-1.3,14.93-18.77,24.69-34.49,23.9-15.72-.79-29.78-9.14-42.94-17.36ZM2836.61,6543.79c-34.4-4.62-68.94-11.31-100.25-25.64-47.18-21.6-84.24-60.82-103.79-106.82-22.13-52.05-15.02-95.14,55.99-68.82,97.15,36.01,188.38,88.22,290.11,109.94,28.31,6.04,57.58,9.78,83.83,21.53,21.74,9.73,20.23,42.51,2.62,58.06-17.61,15.55-43.55,18.25-67.55,19.22-53.75,2.19-107.7-.32-160.97-7.47ZM3712.46,6737.13c-12.23-.35-25.92-1.31-34.08-9.98-3.71-3.95-2.81-10.24,1.1-17.83,14.82-28.81,72.79-76.51,85.53-87.75,40.97-36.15,88.54-67.06,143.87-78.64,18.86-3.94,39.02-5.48,57.11.95,31.93,11.35,49.04,43.6,63.17,73.12,9.37,19.59,2.51,43.59-11.89,60.18-14.4,16.6-35.1,27.03-55.92,35.44-82.49,33.32-161.81,26.99-248.89,24.52Z" fill="#6c5952"/>
    <path d="M1936.7,1402.24c11.56-88.96,13.56-179.04,5.97-268.39-2.06-24.22,6.65-73.54,29.12-30.8,15.43,29.34,29.13,59.83,42.76,89.95,14.07,31.11,21.96,70.34,41.2,98.23,4.65,6.74,9.78,13.64,17.29,17.38,17.46,8.69,38.04-3,53.83-14.2,7.05-5,14.23-10.13,19.22-17.01,14.44-19.94,6.33-46.99-2.64-69.65-13.83-34.93-27.06-64.54-45.97-96.95-18.03-30.9-35.62-62.05-52.16-93.69-9.49-18.15-78.06-132.67-45.95-149.4,31.06-16.18,72.19,25.63,91.12,43.8,30.1,28.89,48.09,63.58,81.51,88.92,86.46,65.57,59.36-100.61,41.58-137.75-23.48-49.05-46.26-98.41-68.34-148.05-28.27-63.56-53.89-128.44-73.37-194.85-4.43-15.1-3.3-33.54,9.42-43.51,10.01-7.85,24.14-8.22,37.11-8.21,24.88,0,49.76,0,74.64.01,26.21,0,53.26.17,77.33,10.04,52.43,21.53,86.94,72.89,118.99,115.45,36.38,48.31,68.36,99.47,98.8,151.31,60.46,102.97,115.07,209.54,186.96,306,5.66,7.6,11.69,15.36,20.21,19.94,8.52,4.59,20.25,5.12,27.41-1.23,9.46-8.4,6.49-23.04,2.8-34.83-10.58-33.79-21.16-67.59-31.74-101.38-6.44-20.58-6.26-23.08-5.18-44.53,1-19.98,28.72-30.22,48.3-22.94,19.58,7.28,32.13,25.17,43.42,42.05,10.95,16.38,21.9,32.75,32.85,49.13,7.03,10.52,14.35,21.32,25.08,28.47,10.74,7.15,25.88,9.81,36.92,3.09,10.56-6.44,14.57-19.75,12.96-31.59-1.61-11.83-7.79-22.59-13.86-33.04-11-18.93-22-37.86-33-56.78-5.76-9.92-11.63-20.12-13.3-31.34-1.67-11.22,1.75-23.86,11.45-30.43,10.47-7.09,25.44-5.18,36.32,1.32,10.88,6.5,18.6,16.74,26.04,26.71,16.02,21.49,32.05,42.99,48.07,64.48,6.7,8.98,13.66,18.21,23.5,24.01,9.84,5.8,23.4,7.35,32.67.74,14.65-10.45,10.08-32.04,4.04-48.48-9.94-27.07-19.88-54.14-29.81-81.2-4.44-12.1-7.5-28.42,3.89-35.27,11.24-6.76,25.3,2.53,34.89,11.29,17.34,15.84,34.56,31.8,51.66,47.87,11.05,10.38,22.49,21.08,36.97,26.42,14.48,5.34,32.95,3.85,42.89-7.5,8.33-9.53,8.64-23.65,4.13-35.27-4.51-11.63-13.09-21.34-21.51-30.8-49.2-55.27-85.76-110.58-144.7-156.43-22.27-17.32-55.24-8.94-82.27.44-49.67,17.25-102.59,35.4-154.21,24.49-51.93-10.97-93.62-51.06-113.99-97.8-5.79-13.29-10.08-27.12-14.4-40.91-36.72-117.35-76.62-233.77-118.59-349.52-25.14.35-50.28.69-75.42,1.04-19.2.27-38.45-2.07-56.97-6.9-44.21-11.55-91.63-11.52-138.17-5.1-46.13,6.37-80.36,46.33-127.48,47.31-17.11.36-28.74-20.92-35.78-33.52-12.59-22.54-35.04-40.57-45.78-64.34-1.96-4.34-7.51-5.85-12.36-6.84-98.78-20.18-197.56-40.37-296.34-60.55-43.41-8.87-87.03-17.77-131.36-20.21-42.57-2.35-85.26,0-127.83,2.34-43.5,2.4-89.53,5.6-125.16,29.45-24.36,16.31-41.22,40.64-57.49,64.38-44.03,64.25-88.06,128.51-132.1,192.76-15.22,22.22-79.46,67.75-78.25,95.84.05,1.21.42,2.33.73,3.47,6.02,3.42,11.96,6.95,18.17,10.05,31.88,15.95,66.43,26.72,77.25,64.67,3.7,12.99,2.67,26.73,1.61,40.15-1.11,14.03-2.25,28.19-6.54,41.65-11.31,35.41-45.92,62.99-84.54,67.38-14.37,1.63-28.54.31-42.64-1.85-28.56,8.02-59.6,8.57-86.99,20.53-20.47,8.94-37.61,23.47-53.79,38.38-16.6,15.3-32.3,31.36-47.6,47.75.22.16.44.33.66.49,46.96,34.02,124.26,73.63,140.66,132.4,4.81,17.22,2.96,35.4,1.06,53.12-5.13,47.86-37.06,86.35-85.37,103.65-29.8,10.67-62.43,11.47-94.25,10.32-17.94-.65-36.39-1.81-53.41,3.63-5.41,1.73-5.89,8.68-5.69,14.1,1.53,39.69-14.67,79.71-43.77,108.19-9.33,9.13-20.01,17.23-27.32,27.9-7.3,10.67-12.33,23.49-4.09,33.53,49.21,59.9,98.42,119.79,147.63,179.69,9.32,11.35,19.2,23.12,33.03,29,33.28,14.15,64.09-17.85,86.82-36.85,33.83-28.28,67.13-57.17,100.42-86.03,66.59-57.74,132.56-116.12,198.52-174.51,72.87-64.5,145.74-129,218.6-193.5,31.66-28.03,63.34-56.06,93.65-85.41,22.38-21.67,44.59-44.46,72.95-58.42,11.16-5.49,24.13-9.56,36.17-6.14,12.03,3.42,20.93,10.85,15.23,21.5,1.68,51.58,3.36,103.16,5.03,154.74.86,26.34,2.37,53.05,9.04,78.73,5.51,21.22,19.64,38.58,28.56,58.9,15.77,35.94,22.94,75.32,20.59,114.21-2.14,35.32-8.6,75.35,7.82,108.84,11.05,22.53,32.34,38.72,52.91,54.05,24.82,18.51,49.63,37.02,74.45,55.53,15.85,11.82,38.67,23.8,54.31,11.73,8.75-6.76,10.87-18.45,12.25-29.09Z" fill="#6c5952"/>
    <path d="M3313.83,874.9c10.88-9.12,15.2-23.22,22.71-35.02,7.52-11.8,22.23-22.3,35.63-17.03,14.13,5.55,22.94,21.62,30.38,33.31,4.52,7.11,8.94,15.13,7.44,23.31-1.08,5.87-5.07,10.82-8.93,15.51-9.28,11.28-18.57,22.56-27.85,33.84-2.15,2.62-4.57,5.4-7.97,6.15-3.18.7-6.45-.55-9.44-1.8-20.41-8.56-43.3-13.33-49.59-36.02-2-7.23,1.67-18.21,7.62-22.23Z" fill="#6c5952"/>
    <path d="M3270.63,2094.52c8.31-4.88,16.86-9.37,24.23-13.93,8.36-5.17,15.05-12.72,26.01-11.45,12.54,1.46,19.64,14.23,30.24,20.78,9.18,5.67,20.68,6.41,31.61,6.99,4.51.24,9.01.47,13.52.71,2.2.12,4.46.25,6.44,1.15,5.12,2.33,6.43,8.58,6.97,13.96,2.35,23.33,2.26,46.89-.25,70.2-.77,7.14-11.07,8.4-18.58,7.66-10.92-1.08-21.84-2.16-32.76-3.24-6.18-.61-12.12,2.73-16.4,7.01-4.29,4.28-7.36,9.5-11.21,14.14-2.65,3.2-5.81,6.22-9.85,7.56-7.22,2.41-15.03-1.07-21.7-4.63-12.97-6.92-25.54-14.5-37.64-22.72-12.51-8.49-25.23-18.63-29.21-32.75-3.86-13.69,1.56-28.53,10.68-39.74,6.94-8.53,17.23-15.43,27.91-21.7Z" fill="#6c5952"/>
    <path d="M4029.93,784.67c16.15-1.59,34.35.2,45.32,11.59,6.15,6.38,9.13,14.9,11.56,23.24,6.2,21.3,9.84,43.27,10.83,65.35.61,13.56-.17,28.26-9.02,38.9-17.25,20.73-30.3,6.36-49.2,1.48-19.51-5.03-40.44,3.62-60.16-1.97-15.67-4.44-36.44-20.85-41.16-36.25-5.25-17.12,8.99-27.9,10.18-44.22.78-10.69-.69-22.12,4.7-31.53,12.75-22.24,53.9-24.33,76.96-26.59Z" fill="#6c5952"/>
    <path d="M1077.84,5726.77c20.68-12.89,47.06-19.64,70.52-12.22,24.39,7.72,44.32,29.87,69.98,28.45,12.52-.69,25.89-7,36.85-1.2,32.31,17.11,61.79,41.79,75.59,74.43,13.79,32.64,8.59,73.96-19,97.38-29.07,24.68-72.64,23.87-111.4,20.04-46.88-4.64-95.61-12.46-133.36-39.3-67.59-48.05-55.41-126.28,10.82-167.57Z" fill="#6c5952"/>
    <path d="M728.03,5631.72c35.27-1.46,87.16,25.46,96.09,54.57,5.59,18.24,7.1,40.92-.83,58.75-8.27,18.58-32.74,28.18-52.78,28.09-19.94-.09-43.48-19.34-41.69-40.47.74-8.73-2.89-16.26-8.33-27.57-7.51-15.61-36.12-11.98-34.52-37.08.69-10.88,17.63-30.23,28.16-33.85,4.18-1.44,8.88-2.23,13.91-2.44Z" fill="#6c5952"/>
    <path d="M886.77,5908.68c-2.51-5.14-6.32-9.61-11.92-12.87-14.97-8.71-35.21-3.8-50.72.79-5.35,1.58-11.6,2.83-16.22-.17-2.48-1.62-4.02-4.2-5.77-6.53-12.56-16.72-40.61-20.4-57.5-7.55-6.14,4.67-10.67,10.94-14.65,17.37-23.39,37.82-29.81,84.72-17.35,126.94,9.27,31.42,45.85,53.23,79.79,47.57,16.74-2.79,31.76-11.18,46.36-19.42,6.48-3.66,13.24-7.57,17.04-13.75,17.31-28.13,28.81-59.45,33.67-91.67,1.91-12.65,3.21-28.57-2.72-40.72Z" fill="#6c5952"/>
    <path d="M271.15,3778.74c10.66-12.84,26.77-22.81,42.08-23.64,28.35-1.55,49.21,28.55,62.98,47.71,18.36,25.56,18.74,51.16,17.85,82.15-.84,29.14-27.17,52.71-53.5,29.16-19.05-17.03-18.35-46.33-36.32-64.43-17.38-17.5-51.34-21.37-44.28-49.97,1.77-7.18,5.78-14.45,11.2-20.98Z" fill="#6c5952"/>
    <path d="M1046.08,4978.78c90.76-21.74,177.91-68,259.78-110.11,6.32-3.25,12.93-6.85,16.46-12.81,3.61-6.09,3.33-13.49,2.95-20.47-2.2-40.87-7.56-82.93-6.29-123.75,1.38-44.37,8.84-89.36,13.2-133.57,2.86-28.99,5.28-60.1-9.85-85.41-10.56-17.67-28.35-30.12-44.93-42.95-27.64-21.38-54.02-41.44-72.05-70.66-44.16-71.56-24.18-168.07-19.93-246.11,4.95-91,7.88-182.18,4.95-273.3-2.14-66.4,12.14-132.25-22.32-191.94-19.07-33.04-35.63-65.1-35.96-102.79-.18-20.03-16.21-36.14-27.91-52.8-31.73-45.16-34.18-102.75-35.58-157.06-.35-13.35,2.32-30.62,16.04-33.47,10.98-2.28,21.96-4.56,32.94-6.84,4.52-.94,9.46-1.83,13.58.17,4.1,1.99,6.25,6.28,8.16,10.26,21.14,43.89,48.98,84.84,82.39,121.18,2.26,2.46,4.58,4.96,5.85,7.99,1.47,3.51,1.38,7.4,1.28,11.17-.82,30.33-6.64,63.13-6.29,94.52.38,33.4,13.61,56.97,24.85,87.57,21.57,58.71,48.42,115.99,91.37,163.58,97.76,108.33,211.29,202.63,324.36,296.51,12.28,10.19,26.52,24.41,41.6,29.15,10.36,3.25,17.72-.33,27.82,6.19,6.7,4.33,10.96,12.01,17.14,17.01,17.5,14.15,43.45,11.38,66.1,7.8,2.04-.32,4.09-.65,6-1.4,3.89-1.54,6.77-4.7,9.5-7.75,27.6-30.84,52.79-59.78,78.53-92.07,10.65-13.37,21.67-27.04,36.7-35.81,17.54-10.22,42.55-11.51,58.98,1.67,18.08,14.51,19.49,40.08,19.47,62.59-.03,53.03.55,101.85.52,154.89,11.54,11.06,23.07,22.13,34.6,33.19,3.91,3.75,8.07,7.64,13.43,9.01,7.89,2.02,16-1.94,22.96-6.03,68.28-40.07,106.28-86.2,171.23-131,20.17-13.91,44-12.84,68.63-14.74,4.69-.36,9.65-.65,13.84,1.38,7.57,3.67,9.39,13.01,10.32,21.05,6.44,55.89,9.26,103.61-15.22,154.81-.87,1.83-1.77,3.78-1.47,5.77.5,3.27,3.93,5.28,7.02,6.78,78.66,38.24,166.16,25.65,251.75,25.17,65.29-.37,130.65-.35,195.81-4.71,36.24-2.43,72.43-5.6,108.52-9.5,30.39-3.29,58.11-8.43,75.71,21.7,8.77,15.01,9.43,32.95,9.87,50.11,2.52,96.93,5.04,193.86,7.56,290.79.24,9.12,1.21,19.63,9.06,24.87,3.34,2.23,7.46,3.11,11.47,3.86,51.61,9.56,115.18-1.16,138.25-46.1,10.72-20.87,21.42-41.75,32.6-62.4,31.88-58.9,67.53-115.87,103.16-172.8,14.83-23.69,8.09-25.01,25.75-46.87,30.24-37.45,62.39-75.55,106.31-97.55,66.6-33.36,149.81-24.52,216.43-57.85,26.07-13.04,52.13-26.08,78.19-39.12,8.77-4.39,17.84-9.01,23.74-16.58,6.71-8.59,8.39-19.74,9.57-30.38,5.96-53.41,7.59-101.27,4.18-154.88-3.67-57.77-7.27-116.42,5.72-172.96,5.99-26.06,15.39-53.61,5.59-78.61-5.24-13.37-15.48-24.34-25.49-34.96-25.43-26.97-51.53-54.44-84.8-72.07-33.27-17.64-51.21-7.73-89.29-8.65-18.87-.46-37.48,4.13-56.34,4.81-18.86.68-39.55-3.51-51.33-17.53-12.33-14.66-11.44-35.26-13.41-53.94-1.97-18.68-10.81-40.27-30.16-43.94-20.25-3.84-37.17,14.26-48.02,30.97-17.34,26.7-18.87,41.45-37.12,67.58-15.82,22.65-31.65,45.31-47.47,67.96-13.22,18.92-27.14,38.49-47.75,49.97-20.61,11.48-49.96,12.16-66-4.67-15.99-16.79-12.93-42.45-11.93-65.09,1.01-22.64-4.86-50.36-27.46-57.5-58.56-18.49-138.59-1.55-199.81-1.66-8.1-.02-16.45.02-23.91,3.01-9.05,3.63-15.63,11.14-21.85,18.37-25.82,30.07-52.13,60.92-65.82,97.51-22.26,59.48,13.5,114.89,21.46,173.99,3.14,23.33,6.28,46.66,9.43,69.99,3.87,28.73,5.12,63.57-19.74,80.29-23.09,15.53-57.28,4.56-75.02-16.4-17.74-20.95-23.23-48.68-28.16-75.17-9.75-52.4-33.45-108.76-13.3-158.4,9.76-24.03-7.2-51.87-30.78-64.55-23.58-12.68-51.81-14-78.88-15.02-68.11-2.56-136.22-5.12-204.32-7.68-34.73-1.31-70.9-2.97-101.35-18.92-30.45-15.95-52.98-50.82-41.93-82.17,6.51-18.47,22.93-32.05,39.55-43.43,98.41-67.41,231.94-81.62,350.09-88.95,87.62-5.44,175.71,1.8,263.32-3.78,87.61-5.58,177.63-25.55,245.93-78.04,42.53-32.69,72.29-76.47,111.29-112.35,33.4-30.73,88.08-21.42,131.26-15.36,26.09,3.67,57.71,13.39,61.68,38.19,10.95,68.53,71.55,122.63,139.63,147.33,18.29,6.64,37.21,11.55,56.1,16.44,70.09,18.17,143.77-.55,213.19,27.75,19.13,7.8,37.06,18.36,56.88,24.42,44.41,13.56,99.93,5.06,142.6-10.03,84.1-29.74,170.21-54.34,257.62-73.59,19.79-4.36,39.97-8.56,57.68-18.01,17.71-9.45,32.93-25.19,35.97-44.29,1.53-9.63-.08-19.45-2.09-29-6.96-33.2-18.68-65.5-34.73-95.72-9.46-17.81-32.23-24.54-52.79-28.49-144.68-27.75-294.27-3.76-441.77-8.71-25.22-.85-55.17,17.5-70.24-1.76-13.57-17.34-15.94-40.13-17.84-61.67-1.16-13.16-2.23-26.89,2.95-39.14,5.19-12.25,18.71-22.4,32.29-19.62,6.45,1.32,11.9,5.24,17.49,8.57,32.16,19.18,83.07,15.27,98.79-17.59,13.53-28.3-1.63-51.18-20.31-76.69-14.66-20.02-44.59-21.33-70.22-22.32-25.63-.99-56.38-7.3-64.82-30.35-7.64-20.87,9.57-43.93,31.06-52.3,21.5-8.37,45.7-6.1,68.85-4.26,38.01,3.03,76.15,4.55,114.29,4.54,46.7,0,99.29-4.92,128.92-39.27,7.06-8.19,13.97-16.49,20.89-24.8,58.31-70.07,116.62-140.15,174.94-210.22,12.77-15.35,26.17-35.74,16.5-53.02-4.96-8.84-14.79-14.03-24.1-18.72-113.69-57.36-227.38-114.73-341.07-172.09-5.77-2.91-11.57-5.84-17.69-8.01-33.53-11.9-70.69.14-104.01,12.57-168.64,62.92-332.32,137.88-489.2,224.02-31.51,17.3-56.24,43.65-80.39,69.54-48.78,52.3-97.57,104.6-146.35,156.91-11.38,12.2-28.87,2.98-44.5-3.74-15.63-6.72-28.22-18.37-40.48-29.78-59.37-55.21-104.74-97.2-168.27-148.04-40.05-32.05-80.1-64.1-120.14-96.14-21.67-17.34-27.98-34.37-56.3-34.51-214.47-1.12-428.93-2.23-643.4-3.35-32.88-.17-52.39-3.11-56.95,32.81-2.83,22.26,2.51,44.29,3.11,66.45,1.27,47.02,3.82,94.19,3.82,141.22.16,5.98.3,12.12-1.74,17.78-8.79,24.44-44.18,26.2-60.3,6.32-23.12-28.5-10.5-91.71-17.13-126.47-6.7-35.16-21.44-68.92-42.92-98.24-7.2-9.83-15.36-19.36-26.04-25.72-29.58-17.63-68.01-6.45-100.72,5.16-65.37,23.2-66.58,68.96-51.61,127.48,3.97,15.5,9.38,30.81,10.62,46.72,1.24,15.91-2.32,33.04-14,44.5-20.96,20.56-59.55,13.58-80.68-6.82-21.13-20.4-29.29-49.58-36.65-77.35-18.24-68.88-36.48-137.76-54.72-206.63-7.7-29.07-20.15-56.88-26.77-85.65-7.1-30.84-9.36-62.71-21.23-92.45-15.29-38.29-41.66-71.66-59.66-108.88-27.39-56.64-11.93-107.89.83-165.59,7.03-31.82,48.99-49.31,47.02-84.45-.51-9.15-4.5-17.8-6.08-26.84-1-5.7-1.15-11.83-4.56-16.61-4.18-5.86-12.02-8.04-19.23-9.8-31.09-7.62-83.21-22.87-80.76,28.82.28,6.01,1.89,12.24-.28,17.89-1.06,2.76-2.95,5.16-4.94,7.41-11.81,13.36-29.53,23.4-47.77,21.51-18.24-1.89-34.74-19.11-30.48-36.09,3.33-13.3-6.09-26.17-14.97-36.92-15.09-17.23-34.28-51.7-58.68-57.76-12.98-3.23-26.95-.42-39.04,5.1-4.87,2.23-9.62,4.97-13,8.97-11.86,14.03-2.09,34.29,4.28,51.25,7.63,20.29,7.99,41.87,6.82,63.13-.65,11.95,2.28,51.39-8.01,59.86-4.81,3.96-11.52,4.88-17.82,5.63-30.51,3.66-46.58.21-60.96-28.38-10.1-20.1-13.64-44.02-16.33-65.37-4.6-36.43-2.2-73.46-8.98-109.67-1.02-5.47-2.73-11.66-7.97-14.11-2.77-1.29-6-1.23-9.08-1.13-40.09,1.2-80.18,2.4-120.27,3.6-6.01.18-12.17.39-17.74,2.54-7.5,2.9-13.06,8.97-18.32,14.83-14.7,16.37-32.07,30.24-36.4,51.38-5.29,25.84,2.81,52.61,4.15,78.43,1.87,35.99-17.13,64.86,1.78,100.03,7,13.02,17.82,23.77,28.7,34.1,44.54,42.31,85.92,80.36,137.43,115.04,38.29,25.78,77.35,50.53,117.12,74.2,37.5,22.32,69.51,37.05,86.36,78.73,11.81,29.22,14.47,60.94,17.01,92.15,2.48,30.53,4.97,61.06,7.46,91.59,5.19,63.72,10.4,127.64,23.88,190.25,3.69,17.13,14.8,59-9.4,68.16-18.9,7.16-45.19-19.38-57.74-28.97-13.67-10.45-28.59-19.32-43.46-28.16-22.34-13.27-44.67-26.55-67.01-39.82-44.01-26.15-89.68-52.9-141.04-59.9-41.8-5.7-86.93,3.23-118.88,29.5-37.31,30.67-51.57,78.96-64.01,124.35-10.88,39.72-21.76,79.43-32.64,119.15-7.27,26.54-5.53,54.46-3.73,81.83,3.56,54.3,7.12,108.59,10.68,162.89,2.49,37.93,14.46,72.86,17.71,110.15,3.92,44.96,9.67,89.76,13.24,134.77,5.32,67.06,2.47,136.48,16.59,202.17,12.68,58.99,16.13,119.38,19.54,179.5,1.42,24.99,2.84,49.99,4.26,74.99,3.91,68.98,7.83,138.01,16.56,206.59,3.43,26.93,7.93,54.67,23.12,77.62,5.85,8.84,13.5,17.71,13.19,28.15-.27,8.88-6.36,16.67-7.98,25.41-3.51,18.97,14.03,35.25,19.07,53.91,6.39,23.66-7.98,48.67-3.44,72.71,2.61,13.85,12.59,22.88,17.65,35.21,4.63,11.25,4.83,24.52,10.43,35.28,3.81,7.32,11.43,12,14.74,19.48,8.62,19.48-4.27,52.48-30.7,49.13-4.42-.56-8.61-2.25-13.01-2.91-12.53-1.88-24.57,4.65-35.4,10.93-2.1,1.22-4.26,2.49-5.68,4.39-2.76,3.7-2.08,8.71-1.23,13.18,2.24,11.77,4.82,23.48,7.75,35.12.49,1.95,1,3.91,1.96,5.7,1.88,3.5,5.35,5.98,8.95,7.91,16.27,8.7,36.08,7.99,54.22,12.21,18.13,4.22,37.25,17.77,35.07,35.41-1.01,8.2-2.02,16.4-3.04,24.6-.38,3.05-.81,6.25-2.74,8.71-3.07,3.92-8.79,4.71-13.9,5.19-30.56,2.86-61.11,5.72-91.67,8.58-4.04.38-8.36.86-11.46,3.36-3.84,3.08-4.71,8.32-5.04,13.08-1.23,17.99,1.72,36.23,8.58,53.03,1.34,3.28,2.91,6.62,5.69,8.94,4.79,3.99,11.83,3.98,18.19,3.75,37.13-1.11,72.9-6.41,109.72-3.51,3.55.28,7.76.99,9.16,4.1.42.93.51,1.96.6,2.98,1.13,13.2,2.27,26.41,3.4,39.61.42,4.85.8,9.92-1.11,14.43-7.79,18.44-49.6,11.08-65.96,11.88-34.75,1.69-69.53,2.92-104.3,4.38-7.52.32-15.88,1-20.91,6.32-3.29,3.48-4.45,8.29-5.29,12.9-8,43.79,2.84,90.43,29.49,126.93,5.49,7.52,11.7,14.69,19.39,20.2,9.13,6.54,20.01,10.48,30.93,13.67,58.34,17,121.61,14.22,180.78.05ZM3142.57,4053.6c24.59-26.15,42.35-73.93,76.46-88.23,35.96-15.07,78.42-2.56,116.11-5.48,53.21-4.12,105.72-13.99,158.91-18.34,49.81-4.07,106.18-6.12,142.68,26.38,14.99,13.34,13.07,34.3,13.31,52.46.06,4.16-.03,8.46-1.88,12.23-.76,1.54-1.84,2.98-3.17,4.32-7.17,7.26-21.44,11.8-29.71,15.66-12.07,5.64-25.53,9.67-34.73,19.54-11.85,12.71-9.23,26.2-13.06,40.86-3.5,13.36-27.51,23.11-40.52,23.48-44.34,1.28-88.17-6.58-132.38-7.89-100.36-2.97-200.72-2.82-219.47-2.79-19.57-.03-36.32-8.05-53.08-16.06-12.73-18.72-6.79-35.64,20.54-56.15Z" fill="#6c5952"/>
  </g>
</svg>